MiaoUnicode-Regular.ufo
<glyph name="exclam" format="1">
  <advance width="289"/>
  <unicode hex="0021"/>
  <outline>
    <contour>
      <point x="105" y="576" type="line"/>
      <point x="103" y="670" type="line"/>
      <point x="186" y="670" type="line"/>
      <point x="184" y="576" type="line"/>
      <point x="173" y="198" type="line"/>
      <point x="116" y="198" type="line"/>
    </contour>
    <contour>
      <point x="85" y="50" type="curve" smooth="yes"/>
      <point x="85" y="69.3333"/>
      <point x="90.8333" y="84.8333"/>
      <point x="102.5" y="96.5" type="curve" smooth="yes"/>
      <point x="114.167" y="108.167"/>
      <point x="128.333" y="114"/>
      <point x="145" y="114" type="curve" smooth="yes"/>
      <point x="161" y="114"/>
      <point x="174.833" y="108.167"/>
      <point x="186.5" y="96.5" type="curve" smooth="yes"/>
      <point x="198.167" y="84.8333"/>
      <point x="204" y="69.3333"/>
      <point x="204" y="50" type="curve" smooth="yes"/>
      <point x="204" y="32"/>
      <point x="198.167" y="17.1667"/>
      <point x="186.5" y="5.5" type="curve" smooth="yes"/>
      <point x="174.833" y="-6.16667"/>
      <point x="161" y="-12"/>
      <point x="145" y="-12" type="curve" smooth="yes"/>
      <point x="128.333" y="-12"/>
      <point x="114.167" y="-6.16667"/>
      <point x="102.5" y="5.5" type="curve" smooth="yes"/>
      <point x="90.8333" y="17.1667"/>
      <point x="85" y="32"/>
    </contour>
  </outline>
</glyph>
<glyph name="dollar" format="1">
  <advance width="497"/>
  <unicode hex="0024"/>
  <outline>
    <contour>
      <point x="380" y="524" type="line"/>
      <point x="361.333" y="542"/>
      <point x="343.167" y="556"/>
      <point x="325.5" y="566" type="curve" smooth="yes"/>
      <point x="307.833" y="576"/>
      <point x="285.333" y="581"/>
      <point x="258" y="581" type="curve" smooth="yes"/>
      <point x="227.333" y="581"/>
      <point x="203" y="572.333"/>
      <point x="185" y="555" type="curve" smooth="yes"/>
      <point x="167" y="537.667"/>
      <point x="158" y="514.333"/>
      <point x="158" y="485" type="curve" smooth="yes"/>
      <point x="158" y="461"/>
      <point x="164.833" y="441.333"/>
      <point x="178.5" y="426" type="curve" smooth="yes"/>
      <point x="192.167" y="410.667"/>
      <point x="209.333" y="397.167"/>
      <point x="230" y="385.5" type="curve" smooth="yes"/>
      <point x="250.667" y="373.833"/>
      <point x="273.167" y="362.5"/>
      <point x="297.5" y="351.5" type="curve" smooth="yes"/>
      <point x="321.833" y="340.5"/>
      <point x="344.333" y="327.167"/>
      <point x="365" y="311.5" type="curve" smooth="yes"/>
      <point x="385.667" y="295.833"/>
      <point x="402.833" y="276.5"/>
      <point x="416.5" y="253.5" type="curve" smooth="yes"/>
      <point x="430.167" y="230.5"/>
      <point x="437" y="201"/>
      <point x="437" y="165" type="curve" smooth="yes"/>
      <point x="437" y="117"/>
      <point x="423.167" y="77.6667"/>
      <point x="395.5" y="47" type="curve" smooth="yes"/>
      <point x="367.833" y="16.3333"/>
      <point x="330" y="-2.33333"/>
      <point x="282" y="-9" type="curve"/>
      <point x="282" y="-110" type="line"/>
      <point x="222" y="-110" type="line"/>
      <point x="222" y="-11" type="line"/>
      <point x="190" y="-7.66667"/>
      <point x="159" y="1.16667"/>
      <point x="129" y="15.5" type="curve" smooth="yes"/>
      <point x="99" y="29.8333"/>
      <point x="73.3333" y="46.6667"/>
      <point x="52" y="66" type="curve"/>
      <point x="90" y="123" type="line"/>
      <point x="111.333" y="104.333"/>
      <point x="134.833" y="88.5"/>
      <point x="160.5" y="75.5" type="curve" smooth="yes"/>
      <point x="186.167" y="62.5"/>
      <point x="214.333" y="56"/>
      <point x="245" y="56" type="curve" smooth="yes"/>
      <point x="282.333" y="56"/>
      <point x="310.167" y="65.3333"/>
      <point x="328.5" y="84" type="curve" smooth="yes"/>
      <point x="346.833" y="102.667"/>
      <point x="356" y="127.667"/>
      <point x="356" y="159" type="curve" smooth="yes"/>
      <point x="356" y="185.667"/>
      <point x="349.167" y="207.833"/>
      <point x="335.5" y="225.5" type="curve" smooth="yes"/>
      <point x="321.833" y="243.167"/>
      <point x="304.667" y="258.5"/>
      <point x="284" y="271.5" type="curve" smooth="yes"/>
      <point x="263.333" y="284.5"/>
      <point x="240.833" y="296.667"/>
      <point x="216.5" y="308" type="curve" smooth="yes"/>
      <point x="192.167" y="319.333"/>
      <point x="169.667" y="332.333"/>
      <point x="149" y="347" type="curve" smooth="yes"/>
      <point x="128.333" y="361.667"/>
      <point x="111.167" y="379.5"/>
      <point x="97.5" y="400.5" type="curve" smooth="yes"/>
      <point x="83.8333" y="421.5"/>
      <point x="77" y="448.333"/>
      <point x="77" y="481" type="curve" smooth="yes"/>
      <point x="77" y="525.667"/>
      <point x="90.1667" y="562.833"/>
      <point x="116.5" y="592.5" type="curve" smooth="yes"/>
      <point x="142.833" y="622.167"/>
      <point x="178" y="640.667"/>
      <point x="222" y="648" type="curve"/>
      <point x="222" y="748" type="line"/>
      <point x="282" y="748" type="line"/>
      <point x="282" y="649" type="line"/>
      <point x="314" y="645.667"/>
      <point x="341.167" y="637"/>
      <point x="363.5" y="623" type="curve" smooth="yes"/>
      <point x="385.833" y="609"/>
      <point x="406" y="592.333"/>
      <point x="424" y="573" type="curve"/>
    </contour>
  </outline>
</glyph>
<glyph name="ampersand" format="1">
  <advance width="609"/>
  <unicode hex="0026"/>
  <outline>
    <contour>
      <point x="112" y="175" type="curve" smooth="yes"/>
      <point x="112" y="157"/>
      <point x="115.333" y="140.5"/>
      <point x="122" y="125.5" type="curve" smooth="yes"/>
      <point x="128.667" y="110.5"/>
      <point x="137.833" y="97.6667"/>
      <point x="149.5" y="87" type="curve" smooth="yes"/>
      <point x="161.167" y="76.3333"/>
      <point x="174.833" y="68.1667"/>
      <point x="190.5" y="62.5" type="curve" smooth="yes"/>
      <point x="206.167" y="56.8333"/>
      <point x="223" y="54"/>
      <point x="241" y="54" type="curve" smooth="yes"/>
      <point x="263.667" y="54"/>
      <point x="285.333" y="58.6667"/>
      <point x="306" y="68" type="curve" smooth="yes"/>
      <point x="326.667" y="77.3333"/>
      <point x="346.667" y="90.3333"/>
      <point x="366" y="107" type="curve"/>
      <point x="334" y="135"/>
      <point x="303.167" y="165.667"/>
      <point x="273.5" y="199" type="curve" smooth="yes"/>
      <point x="243.833" y="232.333"/>
      <point x="217.333" y="266.667"/>
      <point x="194" y="302" type="curve"/>
      <point x="170.667" y="283.333"/>
      <point x="151.167" y="263.833"/>
      <point x="135.5" y="243.5" type="curve" smooth="yes"/>
      <point x="119.833" y="223.167"/>
      <point x="112" y="200.333"/>
    </contour>
    <contour>
      <point x="189" y="514" type="curve" smooth="yes"/>
      <point x="189" y="496"/>
      <point x="191.833" y="477.333"/>
      <point x="197.5" y="458" type="curve" smooth="yes"/>
      <point x="203.167" y="438.667"/>
      <point x="210.667" y="419"/>
      <point x="220" y="399" type="curve"/>
      <point x="234.667" y="409"/>
      <point x="248.833" y="419.167"/>
      <point x="262.5" y="429.5" type="curve" smooth="yes"/>
      <point x="276.167" y="439.833"/>
      <point x="288.167" y="450.5"/>
      <point x="298.5" y="461.5" type="curve" smooth="yes"/>
      <point x="308.833" y="472.5"/>
      <point x="317" y="484.167"/>
      <point x="323" y="496.5" type="curve" smooth="yes"/>
      <point x="329" y="508.833"/>
      <point x="332" y="522.333"/>
      <point x="332" y="537" type="curve" smooth="yes"/>
      <point x="332" y="556.333"/>
      <point x="327.167" y="573.167"/>
      <point x="317.5" y="587.5" type="curve" smooth="yes"/>
      <point x="307.833" y="601.833"/>
      <point x="292" y="609"/>
      <point x="270" y="609" type="curve" smooth="yes"/>
      <point x="245.333" y="609"/>
      <point x="225.667" y="600"/>
      <point x="211" y="582" type="curve" smooth="yes"/>
      <point x="196.333" y="564"/>
      <point x="189" y="541.333"/>
    </contour>
    <contour>
      <point x="572" y="-12" type="line"/>
      <point x="548.667" y="-5.33333"/>
      <point x="524.333" y="4.16667"/>
      <point x="499" y="16.5" type="curve" smooth="yes"/>
      <point x="473.667" y="28.8333"/>
      <point x="447.667" y="44.3333"/>
      <point x="421" y="63" type="curve"/>
      <point x="395.667" y="40.3333"/>
      <point x="367.5" y="22.1667"/>
      <point x="336.5" y="8.5" type="curve" smooth="yes"/>
      <point x="305.5" y="-5.16667"/>
      <point x="270.667" y="-12"/>
      <point x="232" y="-12" type="curve" smooth="yes"/>
      <point x="202" y="-12"/>
      <point x="174.833" y="-7.5"/>
      <point x="150.5" y="1.5" type="curve" smooth="yes"/>
      <point x="126.167" y="10.5"/>
      <point x="105.167" y="23"/>
      <point x="87.5" y="39" type="curve" smooth="yes"/>
      <point x="69.8333" y="55"/>
      <point x="56.1667" y="74.1667"/>
      <point x="46.5" y="96.5" type="curve" smooth="yes"/>
      <point x="36.8333" y="118.833"/>
      <point x="32" y="143.333"/>
      <point x="32" y="170" type="curve" smooth="yes"/>
      <point x="32" y="192"/>
      <point x="35.5" y="212"/>
      <point x="42.5" y="230" type="curve" smooth="yes"/>
      <point x="49.5" y="248"/>
      <point x="59" y="264.667"/>
      <point x="71" y="280" type="curve" smooth="yes"/>
      <point x="83" y="295.333"/>
      <point x="96.8333" y="309.5"/>
      <point x="112.5" y="322.5" type="curve" smooth="yes"/>
      <point x="128.167" y="335.5"/>
      <point x="144.333" y="347.667"/>
      <point x="161" y="359" type="curve"/>
      <point x="147.667" y="386.333"/>
      <point x="137.167" y="412.833"/>
      <point x="129.5" y="438.5" type="curve" smooth="yes"/>
      <point x="121.833" y="464.167"/>
      <point x="118" y="489"/>
      <point x="118" y="513" type="curve" smooth="yes"/>
      <point x="118" y="535"/>
      <point x="121.667" y="555.333"/>
      <point x="129" y="574" type="curve" smooth="yes"/>
      <point x="136.333" y="592.667"/>
      <point x="146.667" y="609"/>
      <point x="160" y="623" type="curve" smooth="yes"/>
      <point x="173.333" y="637"/>
      <point x="189.333" y="648"/>
      <point x="208" y="656" type="curve" smooth="yes"/>
      <point x="226.667" y="664"/>
      <point x="247.333" y="668"/>
      <point x="270" y="668" type="curve" smooth="yes"/>
      <point x="310.667" y="668"/>
      <point x="342.333" y="656"/>
      <point x="365" y="632" type="curve" smooth="yes"/>
      <point x="387.667" y="608"/>
      <point x="399" y="576.667"/>
      <point x="399" y="538" type="curve" smooth="yes"/>
      <point x="399" y="516.667"/>
      <point x="394.667" y="497"/>
      <point x="386" y="479" type="curve" smooth="yes"/>
      <point x="377.333" y="461"/>
      <point x="366" y="444.167"/>
      <point x="352" y="428.5" type="curve" smooth="yes"/>
      <point x="338" y="412.833"/>
      <point x="322.167" y="398.167"/>
      <point x="304.5" y="384.5" type="curve" smooth="yes"/>
      <point x="286.833" y="370.833"/>
      <point x="269" y="357.333"/>
      <point x="251" y="344" type="curve"/>
      <point x="272.333" y="310"/>
      <point x="297.5" y="277.333"/>
      <point x="326.5" y="246" type="curve" smooth="yes"/>
      <point x="355.5" y="214.667"/>
      <point x="385.667" y="186"/>
      <point x="417" y="160" type="curve"/>
      <point x="437" y="187.333"/>
      <point x="454.833" y="217"/>
      <point x="470.5" y="249" type="curve" smooth="yes"/>
      <point x="486.167" y="281"/>
      <point x="499" y="316"/>
      <point x="509" y="354" type="curve"/>
      <point x="586" y="354" type="line"/>
      <point x="572.667" y="310.667"/>
      <point x="556.667" y="269.333"/>
      <point x="538" y="230" type="curve" smooth="yes"/>
      <point x="519.333" y="190.667"/>
      <point x="497" y="153.667"/>
      <point x="471" y="119" type="curve"/>
      <point x="493.667" y="103.667"/>
      <point x="515.333" y="90.6667"/>
      <point x="536" y="80" type="curve" smooth="yes"/>
      <point x="556.667" y="69.3333"/>
      <point x="576" y="61.3333"/>
      <point x="594" y="56" type="curve"/>
    </contour>
  </outline>
</glyph>
<glyph name="parenleft" format="1">
  <advance width="303"/>
  <unicode hex="0028"/>
  <outline>
    <contour>
      <point x="214" y="-176" type="line"/>
      <point x="172.667" y="-109.333"/>
      <point x="140.333" y="-39"/>
      <point x="117" y="35" type="curve" smooth="yes"/>
      <point x="93.6667" y="109"/>
      <point x="82" y="190"/>
      <point x="82" y="278" type="curve" smooth="yes"/>
      <point x="82" y="366"/>
      <point x="93.6667" y="446.833"/>
      <point x="117" y="520.5" type="curve" smooth="yes"/>
      <point x="140.333" y="594.167"/>
      <point x="172.667" y="664.667"/>
      <point x="214" y="732" type="curve"/>
      <point x="265" y="708" type="line"/>
      <point x="226.333" y="644"/>
      <point x="197.5" y="575.5"/>
      <point x="178.5" y="502.5" type="curve" smooth="yes"/>
      <point x="159.5" y="429.5"/>
      <point x="150" y="354.667"/>
      <point x="150" y="278" type="curve" smooth="yes"/>
      <point x="150" y="201.333"/>
      <point x="159.5" y="126.5"/>
      <point x="178.5" y="53.5" type="curve" smooth="yes"/>
      <point x="197.5" y="-19.5"/>
      <point x="226.333" y="-88"/>
      <point x="265" y="-152" type="curve"/>
      <point x="214" y="-176" type="line"/>
    </contour>
  </outline>
</glyph>
<glyph name="parenright" format="1">
  <advance width="303"/>
  <unicode hex="0029"/>
  <outline>
    <contour>
      <point x="38" y="-152" type="line"/>
      <point x="76.6667" y="-88"/>
      <point x="105.5" y="-19.5"/>
      <point x="124.5" y="53.5" type="curve" smooth="yes"/>
      <point x="143.5" y="126.5"/>
      <point x="153" y="201.333"/>
      <point x="153" y="278" type="curve" smooth="yes"/>
      <point x="153" y="354.667"/>
      <point x="143.5" y="429.5"/>
      <point x="124.5" y="502.5" type="curve" smooth="yes"/>
      <point x="105.5" y="575.5"/>
      <point x="76.6667" y="644"/>
      <point x="38" y="708" type="curve"/>
      <point x="89" y="732" type="line"/>
      <point x="130.333" y="664.667"/>
      <point x="162.667" y="594.167"/>
      <point x="186" y="520.5" type="curve" smooth="yes"/>
      <point x="209.333" y="446.833"/>
      <point x="221" y="366"/>
      <point x="221" y="278" type="curve" smooth="yes"/>
      <point x="221" y="190"/>
      <point x="209.333" y="109"/>
      <point x="186" y="35" type="curve" smooth="yes"/>
      <point x="162.667" y="-39"/>
      <point x="130.333" y="-109.333"/>
      <point x="89" y="-176" type="curve"/>
      <point x="38" y="-152" type="line"/>
    </contour>
  </outline>
</glyph>
<glyph name="comma" format="1">
  <advance width="249"/>
  <unicode hex="002C"/>
  <outline>
    <contour>
      <point x="47" y="-122" type="line"/>
      <point x="75" y="-109.333"/>
      <point x="97" y="-92.6667"/>
      <point x="113" y="-72" type="curve" smooth="yes"/>
      <point x="129" y="-51.3333"/>
      <point x="137" y="-27.3333"/>
      <point x="137" y="0" type="curve"/>
      <point x="135" y="-0.666667"/>
      <point x="131.667" y="-1"/>
      <point x="127" y="-1" type="curve" smooth="yes"/>
      <point x="111" y="-1"/>
      <point x="97.1667" y="3.83333"/>
      <point x="85.5" y="13.5" type="curve" smooth="yes"/>
      <point x="73.8333" y="23.1667"/>
      <point x="68" y="37.3333"/>
      <point x="68" y="56" type="curve" smooth="yes"/>
      <point x="68" y="74"/>
      <point x="74" y="88.1667"/>
      <point x="86" y="98.5" type="curve" smooth="yes"/>
      <point x="98" y="108.833"/>
      <point x="112.333" y="114"/>
      <point x="129" y="114" type="curve" smooth="yes"/>
      <point x="150.333" y="114"/>
      <point x="167.167" y="105.333"/>
      <point x="179.5" y="88" type="curve" smooth="yes"/>
      <point x="191.833" y="70.6667"/>
      <point x="198" y="47"/>
      <point x="198" y="17" type="curve" smooth="yes"/>
      <point x="198" y="-26.3333"/>
      <point x="186.333" y="-64"/>
      <point x="163" y="-96" type="curve" smooth="yes"/>
      <point x="139.667" y="-128"/>
      <point x="107.667" y="-152.667"/>
      <point x="67" y="-170" type="curve"/>
    </contour>
  </outline>
</glyph>
<glyph name="period" format="1">
  <advance width="249"/>
  <unicode hex="002E"/>
  <outline>
    <contour>
      <point x="65" y="50" type="curve" smooth="yes"/>
      <point x="65" y="69.3333"/>
      <point x="70.8333" y="84.8333"/>
      <point x="82.5" y="96.5" type="curve" smooth="yes"/>
      <point x="94.1667" y="108.167"/>
      <point x="108.333" y="114"/>
      <point x="125" y="114" type="curve" smooth="yes"/>
      <point x="141" y="114"/>
      <point x="154.833" y="108.167"/>
      <point x="166.5" y="96.5" type="curve" smooth="yes"/>
      <point x="178.167" y="84.8333"/>
      <point x="184" y="69.3333"/>
      <point x="184" y="50" type="curve" smooth="yes"/>
      <point x="184" y="32"/>
      <point x="178.167" y="17.1667"/>
      <point x="166.5" y="5.5" type="curve" smooth="yes"/>
      <point x="154.833" y="-6.16667"/>
      <point x="141" y="-12"/>
      <point x="125" y="-12" type="curve" smooth="yes"/>
      <point x="108.333" y="-12"/>
      <point x="94.1667" y="-6.16667"/>
      <point x="82.5" y="5.5" type="curve" smooth="yes"/>
      <point x="70.8333" y="17.1667"/>
      <point x="65" y="32"/>
    </contour>
  </outline>
</glyph>
<glyph name="zero" format="1">
  <advance width="497"/>
  <unicode hex="0030"/>
  <outline>
    <contour>
      <point x="249" y="-12" type="curve" smooth="yes"/>
      <point x="184.333" y="-12"/>
      <point x="134" y="16.6667"/>
      <point x="98" y="74" type="curve" smooth="yes"/>
      <point x="62" y="131.333"/>
      <point x="44" y="213.667"/>
      <point x="44" y="321" type="curve" smooth="yes"/>
      <point x="44" y="428.333"/>
      <point x="62" y="510"/>
      <point x="98" y="566" type="curve" smooth="yes"/>
      <point x="134" y="622"/>
      <point x="184.333" y="650"/>
      <point x="249" y="650" type="curve" smooth="yes"/>
      <point x="313" y="650"/>
      <point x="363" y="622"/>
      <point x="399" y="566" type="curve" smooth="yes"/>
      <point x="435" y="510"/>
      <point x="453" y="428.333"/>
      <point x="453" y="321" type="curve" smooth="yes"/>
      <point x="453" y="213.667"/>
      <point x="435" y="131.333"/>
      <point x="399" y="74" type="curve" smooth="yes"/>
      <point x="363" y="16.6667"/>
      <point x="313" y="-12"/>
    </contour>
    <contour>
      <point x="249" y="54" type="curve" smooth="yes"/>
      <point x="267.667" y="54"/>
      <point x="284.5" y="59.1667"/>
      <point x="299.5" y="69.5" type="curve" smooth="yes"/>
      <point x="314.5" y="79.8333"/>
      <point x="327.5" y="95.8333"/>
      <point x="338.5" y="117.5" type="curve" smooth="yes"/>
      <point x="349.5" y="139.167"/>
      <point x="358" y="166.833"/>
      <point x="364" y="200.5" type="curve" smooth="yes"/>
      <point x="370" y="234.167"/>
      <point x="373" y="274.333"/>
      <point x="373" y="321" type="curve" smooth="yes"/>
      <point x="373" y="367.667"/>
      <point x="370" y="407.667"/>
      <point x="364" y="441" type="curve" smooth="yes"/>
      <point x="358" y="474.333"/>
      <point x="349.5" y="501.5"/>
      <point x="338.5" y="522.5" type="curve" smooth="yes"/>
      <point x="327.5" y="543.5"/>
      <point x="314.5" y="559"/>
      <point x="299.5" y="569" type="curve" smooth="yes"/>
      <point x="284.5" y="579"/>
      <point x="267.667" y="584"/>
      <point x="249" y="584" type="curve" smooth="yes"/>
      <point x="230.333" y="584"/>
      <point x="213.333" y="579"/>
      <point x="198" y="569" type="curve" smooth="yes"/>
      <point x="182.667" y="559"/>
      <point x="169.5" y="543.5"/>
      <point x="158.5" y="522.5" type="curve" smooth="yes"/>
      <point x="147.5" y="501.5"/>
      <point x="139" y="474.333"/>
      <point x="133" y="441" type="curve" smooth="yes"/>
      <point x="127" y="407.667"/>
      <point x="124" y="367.667"/>
      <point x="124" y="321" type="curve" smooth="yes"/>
      <point x="124" y="227.667"/>
      <point x="135.5" y="159.833"/>
      <point x="158.5" y="117.5" type="curve" smooth="yes"/>
      <point x="181.5" y="75.1667"/>
      <point x="211.667" y="54"/>
    </contour>
  </outline>
</glyph>
<glyph name="one" format="1">
  <advance width="497"/>
  <unicode hex="0031"/>
  <outline>
    <contour>
      <point x="79" y="68" type="line"/>
      <point x="225" y="68" type="line"/>
      <point x="225" y="538" type="line"/>
      <point x="109" y="538" type="line"/>
      <point x="109" y="591" type="line"/>
      <point x="138.333" y="596.333"/>
      <point x="163.833" y="602.833"/>
      <point x="185.5" y="610.5" type="curve" smooth="yes"/>
      <point x="207.167" y="618.167"/>
      <point x="226.667" y="627.333"/>
      <point x="244" y="638" type="curve"/>
      <point x="307" y="638" type="line"/>
      <point x="307" y="68" type="line"/>
      <point x="439" y="68" type="line"/>
      <point x="439" y="0" type="line"/>
      <point x="79" y="0" type="line"/>
    </contour>
  </outline>
</glyph>
<glyph name="two" format="1">
  <advance width="497"/>
  <unicode hex="0032"/>
  <outline>
    <contour>
      <point x="40" y="49" type="line"/>
      <point x="88" y="97"/>
      <point x="130.667" y="140.333"/>
      <point x="168" y="179" type="curve" smooth="yes"/>
      <point x="205.333" y="217.667"/>
      <point x="236.667" y="253.5"/>
      <point x="262" y="286.5" type="curve" smooth="yes"/>
      <point x="287.333" y="319.5"/>
      <point x="306.667" y="349.833"/>
      <point x="320" y="377.5" type="curve" smooth="yes"/>
      <point x="333.333" y="405.167"/>
      <point x="340" y="432"/>
      <point x="340" y="458" type="curve" smooth="yes"/>
      <point x="340" y="494.667"/>
      <point x="330" y="524.667"/>
      <point x="310" y="548" type="curve" smooth="yes"/>
      <point x="290" y="571.333"/>
      <point x="259.667" y="583"/>
      <point x="219" y="583" type="curve" smooth="yes"/>
      <point x="192.333" y="583"/>
      <point x="167.667" y="575.5"/>
      <point x="145" y="560.5" type="curve" smooth="yes"/>
      <point x="122.333" y="545.5"/>
      <point x="101.667" y="527.333"/>
      <point x="83" y="506" type="curve"/>
      <point x="36" y="553" type="line"/>
      <point x="62.6667" y="582.333"/>
      <point x="91" y="605.833"/>
      <point x="121" y="623.5" type="curve" smooth="yes"/>
      <point x="151" y="641.167"/>
      <point x="187" y="650"/>
      <point x="229" y="650" type="curve" smooth="yes"/>
      <point x="288.333" y="650"/>
      <point x="335" y="632.833"/>
      <point x="369" y="598.5" type="curve" smooth="yes"/>
      <point x="403" y="564.167"/>
      <point x="420" y="518.667"/>
      <point x="420" y="462" type="curve" smooth="yes"/>
      <point x="420" y="432"/>
      <point x="413.5" y="401.833"/>
      <point x="400.5" y="371.5" type="curve" smooth="yes"/>
      <point x="387.5" y="341.167"/>
      <point x="369.5" y="309.833"/>
      <point x="346.5" y="277.5" type="curve" smooth="yes"/>
      <point x="323.5" y="245.167"/>
      <point x="296.167" y="211.5"/>
      <point x="264.5" y="176.5" type="curve" smooth="yes"/>
      <point x="232.833" y="141.5"/>
      <point x="198" y="104.333"/>
      <point x="160" y="65" type="curve"/>
      <point x="177.333" y="66.3333"/>
      <point x="195.333" y="67.6667"/>
      <point x="214" y="69" type="curve" smooth="yes"/>
      <point x="232.667" y="70.3333"/>
      <point x="250.333" y="71"/>
      <point x="267" y="71" type="curve" smooth="yes"/>
      <point x="452" y="71" type="line"/>
      <point x="452" y="0" type="line"/>
      <point x="40" y="0" type="line"/>
    </contour>
  </outline>
</glyph>
<glyph name="three" format="1">
  <advance width="497"/>
  <unicode hex="0033"/>
  <outline>
    <contour>
      <point x="68" y="132" type="line"/>
      <point x="87.3333" y="112"/>
      <point x="109.833" y="94.3333"/>
      <point x="135.5" y="79" type="curve" smooth="yes"/>
      <point x="161.167" y="63.6667"/>
      <point x="193" y="56"/>
      <point x="231" y="56" type="curve" smooth="yes"/>
      <point x="269.667" y="56"/>
      <point x="301.333" y="66.5"/>
      <point x="326" y="87.5" type="curve" smooth="yes"/>
      <point x="350.667" y="108.5"/>
      <point x="363" y="137"/>
      <point x="363" y="173" type="curve" smooth="yes"/>
      <point x="363" y="191.667"/>
      <point x="359.5" y="208.833"/>
      <point x="352.5" y="224.5" type="curve" smooth="yes"/>
      <point x="345.5" y="240.167"/>
      <point x="334" y="253.667"/>
      <point x="318" y="265" type="curve" smooth="yes"/>
      <point x="302" y="276.333"/>
      <point x="281" y="285"/>
      <point x="255" y="291" type="curve" smooth="yes"/>
      <point x="229" y="297"/>
      <point x="197" y="300"/>
      <point x="159" y="300" type="curve"/>
      <point x="159" y="363" type="line"/>
      <point x="193" y="363"/>
      <point x="221.5" y="366"/>
      <point x="244.5" y="372" type="curve" smooth="yes"/>
      <point x="267.5" y="378"/>
      <point x="286.167" y="386.333"/>
      <point x="300.5" y="397" type="curve" smooth="yes"/>
      <point x="314.833" y="407.667"/>
      <point x="325" y="420.333"/>
      <point x="331" y="435" type="curve" smooth="yes"/>
      <point x="337" y="449.667"/>
      <point x="340" y="465.333"/>
      <point x="340" y="482" type="curve" smooth="yes"/>
      <point x="340" y="513.333"/>
      <point x="330.167" y="538"/>
      <point x="310.5" y="556" type="curve" smooth="yes"/>
      <point x="290.833" y="574"/>
      <point x="264" y="583"/>
      <point x="230" y="583" type="curve" smooth="yes"/>
      <point x="203.333" y="583"/>
      <point x="178.833" y="577"/>
      <point x="156.5" y="565" type="curve" smooth="yes"/>
      <point x="134.167" y="553"/>
      <point x="113.333" y="537.333"/>
      <point x="94" y="518" type="curve"/>
      <point x="50" y="570" type="line"/>
      <point x="74.6667" y="593.333"/>
      <point x="101.833" y="612.5"/>
      <point x="131.5" y="627.5" type="curve" smooth="yes"/>
      <point x="161.167" y="642.5"/>
      <point x="195" y="650"/>
      <point x="233" y="650" type="curve" smooth="yes"/>
      <point x="261" y="650"/>
      <point x="286.667" y="646.333"/>
      <point x="310" y="639" type="curve" smooth="yes"/>
      <point x="333.333" y="631.667"/>
      <point x="353.5" y="621.167"/>
      <point x="370.5" y="607.5" type="curve" smooth="yes"/>
      <point x="387.5" y="593.833"/>
      <point x="400.667" y="577"/>
      <point x="410" y="557" type="curve" smooth="yes"/>
      <point x="419.333" y="537"/>
      <point x="424" y="514"/>
      <point x="424" y="488" type="curve" smooth="yes"/>
      <point x="424" y="449.333"/>
      <point x="413.333" y="417.667"/>
      <point x="392" y="393" type="curve" smooth="yes"/>
      <point x="370.667" y="368.333"/>
      <point x="342.667" y="349.333"/>
      <point x="308" y="336" type="curve"/>
      <point x="308" y="332" type="line"/>
      <point x="327.333" y="327.333"/>
      <point x="345.333" y="320.5"/>
      <point x="362" y="311.5" type="curve" smooth="yes"/>
      <point x="378.667" y="302.5"/>
      <point x="393.333" y="291.167"/>
      <point x="406" y="277.5" type="curve" smooth="yes"/>
      <point x="418.667" y="263.833"/>
      <point x="428.5" y="248"/>
      <point x="435.5" y="230" type="curve" smooth="yes"/>
      <point x="442.5" y="212"/>
      <point x="446" y="192"/>
      <point x="446" y="170" type="curve" smooth="yes"/>
      <point x="446" y="142"/>
      <point x="440.5" y="116.667"/>
      <point x="429.5" y="94" type="curve" smooth="yes"/>
      <point x="418.5" y="71.3333"/>
      <point x="403.5" y="52.1667"/>
      <point x="384.5" y="36.5" type="curve" smooth="yes"/>
      <point x="365.5" y="20.8333"/>
      <point x="343.333" y="8.83333"/>
      <point x="318" y="0.5" type="curve" smooth="yes"/>
      <point x="292.667" y="-7.83333"/>
      <point x="265.333" y="-12"/>
      <point x="236" y="-12" type="curve" smooth="yes"/>
      <point x="210.667" y="-12"/>
      <point x="187.5" y="-9.5"/>
      <point x="166.5" y="-4.5" type="curve" smooth="yes"/>
      <point x="145.5" y="0.5"/>
      <point x="126.333" y="7.16667"/>
      <point x="109" y="15.5" type="curve" smooth="yes"/>
      <point x="91.6667" y="23.8333"/>
      <point x="76.1667" y="33.3333"/>
      <point x="62.5" y="44" type="curve" smooth="yes"/>
      <point x="48.8333" y="54.6667"/>
      <point x="36.6667" y="66"/>
      <point x="26" y="78" type="curve"/>
    </contour>
  </outline>
</glyph>
<glyph name="four" format="1">
  <advance width="497"/>
  <unicode hex="0034"/>
  <outline>
    <contour>
      <point x="304" y="242" type="line"/>
      <point x="304" y="427" type="line" smooth="yes"/>
      <point x="304" y="444.333"/>
      <point x="304.5" y="464.833"/>
      <point x="305.5" y="488.5" type="curve" smooth="yes"/>
      <point x="306.5" y="512.167"/>
      <point x="307.667" y="532.667"/>
      <point x="309" y="550" type="curve"/>
      <point x="305" y="550" type="line"/>
      <point x="297" y="534.667"/>
      <point x="288.667" y="519.667"/>
      <point x="280" y="505" type="curve" smooth="yes"/>
      <point x="271.333" y="490.333"/>
      <point x="262.333" y="475.333"/>
      <point x="253" y="460" type="curve"/>
      <point x="104" y="242" type="line"/>
    </contour>
    <contour>
      <point x="469" y="176" type="line"/>
      <point x="382" y="176" type="line"/>
      <point x="382" y="0" type="line"/>
      <point x="304" y="0" type="line"/>
      <point x="304" y="176" type="line"/>
      <point x="17" y="176" type="line"/>
      <point x="17" y="230" type="line"/>
      <point x="290" y="638" type="line"/>
      <point x="382" y="638" type="line"/>
      <point x="382" y="242" type="line"/>
      <point x="469" y="242" type="line"/>
    </contour>
  </outline>
</glyph>
<glyph name="five" format="1">
  <advance width="497"/>
  <unicode hex="0035"/>
  <outline>
    <contour>
      <point x="65" y="129" type="line"/>
      <point x="83.6667" y="109.667"/>
      <point x="105.833" y="92.6667"/>
      <point x="131.5" y="78" type="curve" smooth="yes"/>
      <point x="157.167" y="63.3333"/>
      <point x="188.667" y="56"/>
      <point x="226" y="56" type="curve" smooth="yes"/>
      <point x="245.333" y="56"/>
      <point x="263.5" y="59.5"/>
      <point x="280.5" y="66.5" type="curve" smooth="yes"/>
      <point x="297.5" y="73.5"/>
      <point x="312.333" y="83.3333"/>
      <point x="325" y="96" type="curve" smooth="yes"/>
      <point x="337.667" y="108.667"/>
      <point x="347.667" y="124"/>
      <point x="355" y="142" type="curve" smooth="yes"/>
      <point x="362.333" y="160"/>
      <point x="366" y="180"/>
      <point x="366" y="202" type="curve" smooth="yes"/>
      <point x="366" y="246"/>
      <point x="353.667" y="280.333"/>
      <point x="329" y="305" type="curve" smooth="yes"/>
      <point x="304.333" y="329.667"/>
      <point x="271.333" y="342"/>
      <point x="230" y="342" type="curve" smooth="yes"/>
      <point x="208" y="342"/>
      <point x="189.167" y="338.667"/>
      <point x="173.5" y="332" type="curve" smooth="yes"/>
      <point x="157.833" y="325.333"/>
      <point x="140.333" y="315.667"/>
      <point x="121" y="303" type="curve"/>
      <point x="77" y="331" type="line"/>
      <point x="98" y="638" type="line"/>
      <point x="417" y="638" type="line"/>
      <point x="417" y="567" type="line"/>
      <point x="170" y="567" type="line"/>
      <point x="153" y="378" type="line"/>
      <point x="168.333" y="386"/>
      <point x="183.667" y="392.333"/>
      <point x="199" y="397" type="curve" smooth="yes"/>
      <point x="214.333" y="401.667"/>
      <point x="231.667" y="404"/>
      <point x="251" y="404" type="curve" smooth="yes"/>
      <point x="278.333" y="404"/>
      <point x="304" y="400"/>
      <point x="328" y="392" type="curve" smooth="yes"/>
      <point x="352" y="384"/>
      <point x="373" y="371.833"/>
      <point x="391" y="355.5" type="curve" smooth="yes"/>
      <point x="409" y="339.167"/>
      <point x="423.167" y="318.5"/>
      <point x="433.5" y="293.5" type="curve" smooth="yes"/>
      <point x="443.833" y="268.5"/>
      <point x="449" y="238.667"/>
      <point x="449" y="204" type="curve" smooth="yes"/>
      <point x="449" y="169.333"/>
      <point x="443" y="138.667"/>
      <point x="431" y="112" type="curve" smooth="yes"/>
      <point x="419" y="85.3333"/>
      <point x="403" y="62.8333"/>
      <point x="383" y="44.5" type="curve" smooth="yes"/>
      <point x="363" y="26.1667"/>
      <point x="340.167" y="12.1667"/>
      <point x="314.5" y="2.5" type="curve" smooth="yes"/>
      <point x="288.833" y="-7.16667"/>
      <point x="262" y="-12"/>
      <point x="234" y="-12" type="curve" smooth="yes"/>
      <point x="208.667" y="-12"/>
      <point x="185.5" y="-9.5"/>
      <point x="164.5" y="-4.5" type="curve" smooth="yes"/>
      <point x="143.5" y="0.5"/>
      <point x="124.5" y="7"/>
      <point x="107.5" y="15" type="curve" smooth="yes"/>
      <point x="90.5" y="23"/>
      <point x="75.1667" y="32.1667"/>
      <point x="61.5" y="42.5" type="curve" smooth="yes"/>
      <point x="47.8333" y="52.8333"/>
      <point x="35.6667" y="63.6667"/>
      <point x="25" y="75" type="curve"/>
    </contour>
  </outline>
</glyph>
<glyph name="six" format="1">
  <advance width="497"/>
  <unicode hex="0036"/>
  <outline>
    <contour>
      <point x="268" y="53" type="curve" smooth="yes"/>
      <point x="284" y="53"/>
      <point x="298.667" y="56.3333"/>
      <point x="312" y="63" type="curve" smooth="yes"/>
      <point x="325.333" y="69.6667"/>
      <point x="337" y="79.1667"/>
      <point x="347" y="91.5" type="curve" smooth="yes"/>
      <point x="357" y="103.833"/>
      <point x="364.833" y="118.5"/>
      <point x="370.5" y="135.5" type="curve" smooth="yes"/>
      <point x="376.167" y="152.5"/>
      <point x="379" y="171.667"/>
      <point x="379" y="193" type="curve" smooth="yes"/>
      <point x="379" y="235"/>
      <point x="369.333" y="268"/>
      <point x="350" y="292" type="curve" smooth="yes"/>
      <point x="330.667" y="316"/>
      <point x="301" y="328"/>
      <point x="261" y="328" type="curve" smooth="yes"/>
      <point x="241" y="328"/>
      <point x="219.167" y="321.5"/>
      <point x="195.5" y="308.5" type="curve" smooth="yes"/>
      <point x="171.833" y="295.5"/>
      <point x="149.333" y="274"/>
      <point x="128" y="244" type="curve"/>
      <point x="133.333" y="181.333"/>
      <point x="147.833" y="133.833"/>
      <point x="171.5" y="101.5" type="curve" smooth="yes"/>
      <point x="195.167" y="69.1667"/>
      <point x="227.333" y="53"/>
    </contour>
    <contour>
      <point x="399" y="531" type="line"/>
      <point x="385.667" y="546.333"/>
      <point x="369.833" y="558.5"/>
      <point x="351.5" y="567.5" type="curve" smooth="yes"/>
      <point x="333.167" y="576.5"/>
      <point x="314" y="581"/>
      <point x="294" y="581" type="curve" smooth="yes"/>
      <point x="272" y="581"/>
      <point x="251" y="576.333"/>
      <point x="231" y="567" type="curve" smooth="yes"/>
      <point x="211" y="557.667"/>
      <point x="193.333" y="542.333"/>
      <point x="178" y="521" type="curve" smooth="yes"/>
      <point x="162.667" y="499.667"/>
      <point x="150.333" y="471.833"/>
      <point x="141" y="437.5" type="curve" smooth="yes"/>
      <point x="131.667" y="403.167"/>
      <point x="126.667" y="360.667"/>
      <point x="126" y="310" type="curve"/>
      <point x="146" y="334.667"/>
      <point x="169.333" y="354.167"/>
      <point x="196" y="368.5" type="curve" smooth="yes"/>
      <point x="222.667" y="382.833"/>
      <point x="249" y="390"/>
      <point x="275" y="390" type="curve" smooth="yes"/>
      <point x="330.333" y="390"/>
      <point x="374.5" y="373.667"/>
      <point x="407.5" y="341" type="curve" smooth="yes"/>
      <point x="440.5" y="308.333"/>
      <point x="457" y="259"/>
      <point x="457" y="193" type="curve" smooth="yes"/>
      <point x="457" y="162.333"/>
      <point x="452" y="134.5"/>
      <point x="442" y="109.5" type="curve" smooth="yes"/>
      <point x="432" y="84.5"/>
      <point x="418.333" y="63"/>
      <point x="401" y="45" type="curve" smooth="yes"/>
      <point x="383.667" y="27"/>
      <point x="363.667" y="13"/>
      <point x="341" y="3" type="curve" smooth="yes"/>
      <point x="318.333" y="-7"/>
      <point x="294" y="-12"/>
      <point x="268" y="-12" type="curve" smooth="yes"/>
      <point x="236.667" y="-12"/>
      <point x="207.667" y="-5.66667"/>
      <point x="181" y="7" type="curve" smooth="yes"/>
      <point x="154.333" y="19.6667"/>
      <point x="131.167" y="38.8333"/>
      <point x="111.5" y="64.5" type="curve" smooth="yes"/>
      <point x="91.8333" y="90.1667"/>
      <point x="76.3333" y="122.167"/>
      <point x="65" y="160.5" type="curve" smooth="yes"/>
      <point x="53.6667" y="198.833"/>
      <point x="48" y="243.667"/>
      <point x="48" y="295" type="curve" smooth="yes"/>
      <point x="48" y="359"/>
      <point x="54.6667" y="413.5"/>
      <point x="68" y="458.5" type="curve" smooth="yes"/>
      <point x="81.3333" y="503.5"/>
      <point x="99.3333" y="540.167"/>
      <point x="122" y="568.5" type="curve" smooth="yes"/>
      <point x="144.667" y="596.833"/>
      <point x="170.5" y="617.5"/>
      <point x="199.5" y="630.5" type="curve" smooth="yes"/>
      <point x="228.5" y="643.5"/>
      <point x="259" y="650"/>
      <point x="291" y="650" type="curve" smooth="yes"/>
      <point x="325.667" y="650"/>
      <point x="355.5" y="643.5"/>
      <point x="380.5" y="630.5" type="curve" smooth="yes"/>
      <point x="405.5" y="617.5"/>
      <point x="427" y="601.333"/>
      <point x="445" y="582" type="curve"/>
    </contour>
  </outline>
</glyph>
<glyph name="seven" format="1">
  <advance width="497"/>
  <unicode hex="0037"/>
  <outline>
    <contour>
      <point x="177" y="0" type="line"/>
      <point x="179.667" y="60"/>
      <point x="185" y="115"/>
      <point x="193" y="165" type="curve" smooth="yes"/>
      <point x="201" y="215"/>
      <point x="212.167" y="262.5"/>
      <point x="226.5" y="307.5" type="curve" smooth="yes"/>
      <point x="240.833" y="352.5"/>
      <point x="259.167" y="396"/>
      <point x="281.5" y="438" type="curve" smooth="yes"/>
      <point x="303.833" y="480"/>
      <point x="330.667" y="523"/>
      <point x="362" y="567" type="curve"/>
      <point x="44" y="567" type="line"/>
      <point x="44" y="638" type="line"/>
      <point x="455" y="638" type="line"/>
      <point x="455" y="587" type="line"/>
      <point x="417" y="539"/>
      <point x="386.167" y="493"/>
      <point x="362.5" y="449" type="curve" smooth="yes"/>
      <point x="338.833" y="405"/>
      <point x="320" y="360.167"/>
      <point x="306" y="314.5" type="curve" smooth="yes"/>
      <point x="292" y="268.833"/>
      <point x="281.833" y="220.5"/>
      <point x="275.5" y="169.5" type="curve" smooth="yes"/>
      <point x="269.167" y="118.5"/>
      <point x="264.667" y="62"/>
      <point x="262" y="0" type="curve"/>
      <point x="177" y="0" type="line"/>
    </contour>
  </outline>
</glyph>
<glyph name="eight" format="1">
  <advance width="497"/>
  <unicode hex="0038"/>
  <outline>
    <contour>
      <point x="115" y="171" type="curve" smooth="yes"/>
      <point x="115" y="153"/>
      <point x="118.5" y="136.667"/>
      <point x="125.5" y="122" type="curve" smooth="yes"/>
      <point x="132.5" y="107.333"/>
      <point x="142.167" y="94.5"/>
      <point x="154.5" y="83.5" type="curve" smooth="yes"/>
      <point x="166.833" y="72.5"/>
      <point x="181.333" y="64"/>
      <point x="198" y="58" type="curve" smooth="yes"/>
      <point x="214.667" y="52"/>
      <point x="232.667" y="49"/>
      <point x="252" y="49" type="curve" smooth="yes"/>
      <point x="289.333" y="49"/>
      <point x="319.5" y="59.3333"/>
      <point x="342.5" y="80" type="curve" smooth="yes"/>
      <point x="365.5" y="100.667"/>
      <point x="377" y="127.667"/>
      <point x="377" y="161" type="curve" smooth="yes"/>
      <point x="377" y="181.667"/>
      <point x="372.333" y="199.333"/>
      <point x="363" y="214" type="curve" smooth="yes"/>
      <point x="353.667" y="228.667"/>
      <point x="341" y="241.5"/>
      <point x="325" y="252.5" type="curve" smooth="yes"/>
      <point x="309" y="263.5"/>
      <point x="290.5" y="273.5"/>
      <point x="269.5" y="282.5" type="curve" smooth="yes"/>
      <point x="248.5" y="291.5"/>
      <point x="226.667" y="300.667"/>
      <point x="204" y="310" type="curve"/>
      <point x="178.667" y="292.667"/>
      <point x="157.5" y="272.5"/>
      <point x="140.5" y="249.5" type="curve" smooth="yes"/>
      <point x="123.5" y="226.5"/>
      <point x="115" y="200.333"/>
    </contour>
    <contour>
      <point x="295" y="348" type="curve"/>
      <point x="316.333" y="367.333"/>
      <point x="332.833" y="387.667"/>
      <point x="344.5" y="409" type="curve" smooth="yes"/>
      <point x="356.167" y="430.333"/>
      <point x="362" y="452.667"/>
      <point x="362" y="476" type="curve" smooth="yes"/>
      <point x="362" y="508"/>
      <point x="352.333" y="534.833"/>
      <point x="333" y="556.5" type="curve" smooth="yes"/>
      <point x="313.667" y="578.167"/>
      <point x="286.333" y="589"/>
      <point x="251" y="589" type="curve" smooth="yes"/>
      <point x="221" y="589"/>
      <point x="196.333" y="579.667"/>
      <point x="177" y="561" type="curve" smooth="yes"/>
      <point x="157.667" y="542.333"/>
      <point x="148" y="517.333"/>
      <point x="148" y="486" type="curve" smooth="yes"/>
      <point x="148" y="466.667"/>
      <point x="152" y="450.167"/>
      <point x="160" y="436.5" type="curve" smooth="yes"/>
      <point x="168" y="422.833"/>
      <point x="178.833" y="410.667"/>
      <point x="192.5" y="400" type="curve" smooth="yes"/>
      <point x="206.167" y="389.333"/>
      <point x="221.833" y="379.833"/>
      <point x="239.5" y="371.5" type="curve" smooth="yes"/>
      <point x="257.167" y="363.167"/>
      <point x="275.667" y="355.333"/>
    </contour>
    <contour>
      <point x="41" y="163" type="curve" smooth="yes"/>
      <point x="41" y="183.667"/>
      <point x="44.5" y="202.833"/>
      <point x="51.5" y="220.5" type="curve" smooth="yes"/>
      <point x="58.5" y="238.167"/>
      <point x="67.5" y="254.167"/>
      <point x="78.5" y="268.5" type="curve" smooth="yes"/>
      <point x="89.5" y="282.833"/>
      <point x="102.167" y="295.5"/>
      <point x="116.5" y="306.5" type="curve" smooth="yes"/>
      <point x="130.833" y="317.5"/>
      <point x="145.667" y="327"/>
      <point x="161" y="335" type="curve"/>
      <point x="161" y="339" type="line"/>
      <point x="137.667" y="355.667"/>
      <point x="117" y="375.833"/>
      <point x="99" y="399.5" type="curve" smooth="yes"/>
      <point x="81" y="423.167"/>
      <point x="72" y="452"/>
      <point x="72" y="486" type="curve" smooth="yes"/>
      <point x="72" y="510.667"/>
      <point x="76.6667" y="533"/>
      <point x="86" y="553" type="curve" smooth="yes"/>
      <point x="95.3333" y="573"/>
      <point x="108" y="590.167"/>
      <point x="124" y="604.5" type="curve" smooth="yes"/>
      <point x="140" y="618.833"/>
      <point x="159" y="630"/>
      <point x="181" y="638" type="curve" smooth="yes"/>
      <point x="203" y="646"/>
      <point x="227" y="650"/>
      <point x="253" y="650" type="curve" smooth="yes"/>
      <point x="281" y="650"/>
      <point x="306" y="645.833"/>
      <point x="328" y="637.5" type="curve" smooth="yes"/>
      <point x="350" y="629.167"/>
      <point x="368.833" y="617.5"/>
      <point x="384.5" y="602.5" type="curve" smooth="yes"/>
      <point x="400.167" y="587.5"/>
      <point x="412.167" y="569.5"/>
      <point x="420.5" y="548.5" type="curve" smooth="yes"/>
      <point x="428.833" y="527.5"/>
      <point x="433" y="504.667"/>
      <point x="433" y="480" type="curve" smooth="yes"/>
      <point x="433" y="463.333"/>
      <point x="430.167" y="447.333"/>
      <point x="424.5" y="432" type="curve" smooth="yes"/>
      <point x="418.833" y="416.667"/>
      <point x="411.833" y="402.333"/>
      <point x="403.5" y="389" type="curve" smooth="yes"/>
      <point x="395.167" y="375.667"/>
      <point x="385.833" y="363.667"/>
      <point x="375.5" y="353" type="curve" smooth="yes"/>
      <point x="365.167" y="342.333"/>
      <point x="355" y="333.333"/>
      <point x="345" y="326" type="curve"/>
      <point x="345" y="322" type="line"/>
      <point x="359" y="314"/>
      <point x="372.667" y="304.833"/>
      <point x="386" y="294.5" type="curve" smooth="yes"/>
      <point x="399.333" y="284.167"/>
      <point x="411.167" y="272.5"/>
      <point x="421.5" y="259.5" type="curve" smooth="yes"/>
      <point x="431.833" y="246.5"/>
      <point x="440.167" y="231.667"/>
      <point x="446.5" y="215" type="curve" smooth="yes"/>
      <point x="452.833" y="198.333"/>
      <point x="456" y="179.333"/>
      <point x="456" y="158" type="curve" smooth="yes"/>
      <point x="456" y="134"/>
      <point x="451" y="111.667"/>
      <point x="441" y="91" type="curve" smooth="yes"/>
      <point x="431" y="70.3333"/>
      <point x="417" y="52.3333"/>
      <point x="399" y="37" type="curve" smooth="yes"/>
      <point x="381" y="21.6667"/>
      <point x="359.333" y="9.66667"/>
      <point x="334" y="1" type="curve" smooth="yes"/>
      <point x="308.667" y="-7.66667"/>
      <point x="280.667" y="-12"/>
      <point x="250" y="-12" type="curve" smooth="yes"/>
      <point x="220" y="-12"/>
      <point x="192.167" y="-7.66667"/>
      <point x="166.5" y="1" type="curve" smooth="yes"/>
      <point x="140.833" y="9.66667"/>
      <point x="118.833" y="21.8333"/>
      <point x="100.5" y="37.5" type="curve" smooth="yes"/>
      <point x="82.1667" y="53.1667"/>
      <point x="67.6667" y="71.6667"/>
      <point x="57" y="93" type="curve" smooth="yes"/>
      <point x="46.3333" y="114.333"/>
      <point x="41" y="137.667"/>
    </contour>
  </outline>
</glyph>
<glyph name="nine" format="1">
  <advance width="497"/>
  <unicode hex="0039"/>
  <outline>
    <contour>
      <point x="235" y="310" type="curve" smooth="yes"/>
      <point x="255.667" y="310"/>
      <point x="277.833" y="316.5"/>
      <point x="301.5" y="329.5" type="curve" smooth="yes"/>
      <point x="325.167" y="342.5"/>
      <point x="347.667" y="364.333"/>
      <point x="369" y="395" type="curve"/>
      <point x="363.667" y="457.667"/>
      <point x="349" y="505"/>
      <point x="325" y="537" type="curve" smooth="yes"/>
      <point x="301" y="569"/>
      <point x="268.667" y="585"/>
      <point x="228" y="585" type="curve" smooth="yes"/>
      <point x="212.667" y="585"/>
      <point x="198.167" y="581.667"/>
      <point x="184.5" y="575" type="curve" smooth="yes"/>
      <point x="170.833" y="568.333"/>
      <point x="159" y="558.833"/>
      <point x="149" y="546.5" type="curve" smooth="yes"/>
      <point x="139" y="534.167"/>
      <point x="131.167" y="519.333"/>
      <point x="125.5" y="502" type="curve" smooth="yes"/>
      <point x="119.833" y="484.667"/>
      <point x="117" y="465.667"/>
      <point x="117" y="445" type="curve" smooth="yes"/>
      <point x="117" y="403"/>
      <point x="126.667" y="370"/>
      <point x="146" y="346" type="curve" smooth="yes"/>
      <point x="165.333" y="322"/>
      <point x="195" y="310"/>
    </contour>
    <contour>
      <point x="97" y="107" type="line"/>
      <point x="110.333" y="91.6667"/>
      <point x="126.167" y="79.3333"/>
      <point x="144.5" y="70" type="curve" smooth="yes"/>
      <point x="162.833" y="60.6667"/>
      <point x="182" y="56"/>
      <point x="202" y="56" type="curve" smooth="yes"/>
      <point x="224.667" y="56"/>
      <point x="246" y="60.6667"/>
      <point x="266" y="70" type="curve" smooth="yes"/>
      <point x="286" y="79.3333"/>
      <point x="303.667" y="94.8333"/>
      <point x="319" y="116.5" type="curve" smooth="yes"/>
      <point x="334.333" y="138.167"/>
      <point x="346.667" y="166.333"/>
      <point x="356" y="201" type="curve" smooth="yes"/>
      <point x="365.333" y="235.667"/>
      <point x="370.333" y="278.667"/>
      <point x="371" y="330" type="curve"/>
      <point x="351" y="304.667"/>
      <point x="327.667" y="284.667"/>
      <point x="301" y="270" type="curve" smooth="yes"/>
      <point x="274.333" y="255.333"/>
      <point x="247.667" y="248"/>
      <point x="221" y="248" type="curve" smooth="yes"/>
      <point x="165.667" y="248"/>
      <point x="121.667" y="264.333"/>
      <point x="89" y="297" type="curve" smooth="yes"/>
      <point x="56.3333" y="329.667"/>
      <point x="40" y="379"/>
      <point x="40" y="445" type="curve" smooth="yes"/>
      <point x="40" y="475.667"/>
      <point x="45" y="503.5"/>
      <point x="55" y="528.5" type="curve" smooth="yes"/>
      <point x="65" y="553.5"/>
      <point x="78.5" y="575"/>
      <point x="95.5" y="593" type="curve" smooth="yes"/>
      <point x="112.5" y="611"/>
      <point x="132.5" y="625"/>
      <point x="155.5" y="635" type="curve" smooth="yes"/>
      <point x="178.5" y="645"/>
      <point x="202.667" y="650"/>
      <point x="228" y="650" type="curve" smooth="yes"/>
      <point x="259.333" y="650"/>
      <point x="288.5" y="643.667"/>
      <point x="315.5" y="631" type="curve" smooth="yes"/>
      <point x="342.5" y="618.333"/>
      <point x="365.833" y="599.167"/>
      <point x="385.5" y="573.5" type="curve" smooth="yes"/>
      <point x="405.167" y="547.833"/>
      <point x="420.5" y="515.833"/>
      <point x="431.5" y="477.5" type="curve" smooth="yes"/>
      <point x="442.5" y="439.167"/>
      <point x="448" y="394.333"/>
      <point x="448" y="343" type="curve" smooth="yes"/>
      <point x="448" y="279"/>
      <point x="441.333" y="224.5"/>
      <point x="428" y="179.5" type="curve" smooth="yes"/>
      <point x="414.667" y="134.5"/>
      <point x="396.667" y="97.8333"/>
      <point x="374" y="69.5" type="curve" smooth="yes"/>
      <point x="351.333" y="41.1667"/>
      <point x="325.5" y="20.5"/>
      <point x="296.5" y="7.5" type="curve" smooth="yes"/>
      <point x="267.5" y="-5.5"/>
      <point x="237" y="-12"/>
      <point x="205" y="-12" type="curve" smooth="yes"/>
      <point x="171" y="-12"/>
      <point x="141.167" y="-5.66667"/>
      <point x="115.5" y="7" type="curve" smooth="yes"/>
      <point x="89.8333" y="19.6667"/>
      <point x="68.3333" y="35.6667"/>
      <point x="51" y="55" type="curve"/>
    </contour>
  </outline>
</glyph>
<glyph name="question" format="1">
  <advance width="425"/>
  <unicode hex="003F"/>
  <outline>
    <contour>
      <point x="160" y="198" type="line"/>
      <point x="156" y="224"/>
      <point x="156.833" y="247.5"/>
      <point x="162.5" y="268.5" type="curve" smooth="yes"/>
      <point x="168.167" y="289.5"/>
      <point x="176" y="308.833"/>
      <point x="186" y="326.5" type="curve" smooth="yes"/>
      <point x="196" y="344.167"/>
      <point x="207.5" y="360.667"/>
      <point x="220.5" y="376" type="curve" smooth="yes"/>
      <point x="233.5" y="391.333"/>
      <point x="245.667" y="406.5"/>
      <point x="257" y="421.5" type="curve" smooth="yes"/>
      <point x="268.333" y="436.5"/>
      <point x="277.833" y="451.667"/>
      <point x="285.5" y="467" type="curve" smooth="yes"/>
      <point x="293.167" y="482.333"/>
      <point x="297" y="499"/>
      <point x="297" y="517" type="curve" smooth="yes"/>
      <point x="297" y="543.667"/>
      <point x="288.833" y="566.5"/>
      <point x="272.5" y="585.5" type="curve" smooth="yes"/>
      <point x="256.167" y="604.5"/>
      <point x="232" y="614"/>
      <point x="200" y="614" type="curve" smooth="yes"/>
      <point x="178" y="614"/>
      <point x="157.167" y="608.833"/>
      <point x="137.5" y="598.5" type="curve" smooth="yes"/>
      <point x="117.833" y="588.167"/>
      <point x="100.333" y="574"/>
      <point x="85" y="556" type="curve"/>
      <point x="38" y="599" type="line"/>
      <point x="59.3333" y="623"/>
      <point x="83.6667" y="642.833"/>
      <point x="111" y="658.5" type="curve" smooth="yes"/>
      <point x="138.333" y="674.167"/>
      <point x="170" y="682"/>
      <point x="206" y="682" type="curve" smooth="yes"/>
      <point x="258" y="682"/>
      <point x="299.5" y="667.833"/>
      <point x="330.5" y="639.5" type="curve" smooth="yes"/>
      <point x="361.5" y="611.167"/>
      <point x="377" y="572"/>
      <point x="377" y="522" type="curve" smooth="yes"/>
      <point x="377" y="500"/>
      <point x="373" y="480"/>
      <point x="365" y="462" type="curve" smooth="yes"/>
      <point x="357" y="444"/>
      <point x="347.167" y="427"/>
      <point x="335.5" y="411" type="curve" smooth="yes"/>
      <point x="323.833" y="395"/>
      <point x="311.5" y="379.167"/>
      <point x="298.5" y="363.5" type="curve" smooth="yes"/>
      <point x="285.5" y="347.833"/>
      <point x="273.5" y="331.667"/>
      <point x="262.5" y="315" type="curve" smooth="yes"/>
      <point x="251.5" y="298.333"/>
      <point x="243" y="280.5"/>
      <point x="237" y="261.5" type="curve" smooth="yes"/>
      <point x="231" y="242.5"/>
      <point x="229.333" y="221.333"/>
      <point x="232" y="198" type="curve"/>
    </contour>
    <contour>
      <point x="139" y="50" type="curve" smooth="yes"/>
      <point x="139" y="69.3333"/>
      <point x="144.667" y="84.8333"/>
      <point x="156" y="96.5" type="curve" smooth="yes"/>
      <point x="167.333" y="108.167"/>
      <point x="181.333" y="114"/>
      <point x="198" y="114" type="curve" smooth="yes"/>
      <point x="214.667" y="114"/>
      <point x="228.833" y="108.167"/>
      <point x="240.5" y="96.5" type="curve" smooth="yes"/>
      <point x="252.167" y="84.8333"/>
      <point x="258" y="69.3333"/>
      <point x="258" y="50" type="curve" smooth="yes"/>
      <point x="258" y="32"/>
      <point x="252.167" y="17.1667"/>
      <point x="240.5" y="5.5" type="curve" smooth="yes"/>
      <point x="228.833" y="-6.16667"/>
      <point x="214.667" y="-12"/>
      <point x="198" y="-12" type="curve" smooth="yes"/>
      <point x="181.333" y="-12"/>
      <point x="167.333" y="-6.16667"/>
      <point x="156" y="5.5" type="curve" smooth="yes"/>
      <point x="144.667" y="17.1667"/>
      <point x="139" y="32"/>
    </contour>
  </outline>
</glyph>
<glyph name="at" format="1">
  <advance width="847"/>
  <unicode hex="0040"/>
  <outline>
    <contour>
      <point x="51" y="203" type="curve" smooth="yes"/>
      <point x="51" y="269.667"/>
      <point x="62.1667" y="330.333"/>
      <point x="84.5" y="385" type="curve" smooth="yes"/>
      <point x="106.833" y="439.667"/>
      <point x="137.167" y="486.333"/>
      <point x="175.5" y="525" type="curve" smooth="yes"/>
      <point x="213.833" y="563.667"/>
      <point x="258.167" y="593.5"/>
      <point x="308.5" y="614.5" type="curve" smooth="yes"/>
      <point x="358.833" y="635.5"/>
      <point x="412" y="646"/>
      <point x="468" y="646" type="curve" smooth="yes"/>
      <point x="518.667" y="646"/>
      <point x="564.167" y="638"/>
      <point x="604.5" y="622" type="curve" smooth="yes"/>
      <point x="644.833" y="606"/>
      <point x="679.167" y="583.5"/>
      <point x="707.5" y="554.5" type="curve" smooth="yes"/>
      <point x="735.833" y="525.5"/>
      <point x="757.667" y="490.667"/>
      <point x="773" y="450" type="curve" smooth="yes"/>
      <point x="788.333" y="409.333"/>
      <point x="796" y="364.333"/>
      <point x="796" y="315" type="curve" smooth="yes"/>
      <point x="796" y="271"/>
      <point x="789.833" y="232.5"/>
      <point x="777.5" y="199.5" type="curve" smooth="yes"/>
      <point x="765.167" y="166.5"/>
      <point x="749.333" y="138.833"/>
      <point x="730" y="116.5" type="curve" smooth="yes"/>
      <point x="710.667" y="94.1667"/>
      <point x="689.167" y="77.3333"/>
      <point x="665.5" y="66" type="curve" smooth="yes"/>
      <point x="641.833" y="54.6667"/>
      <point x="618.667" y="49"/>
      <point x="596" y="49" type="curve" smooth="yes"/>
      <point x="568.667" y="49"/>
      <point x="545.5" y="55.3333"/>
      <point x="526.5" y="68" type="curve" smooth="yes"/>
      <point x="507.5" y="80.6667"/>
      <point x="496.333" y="99.6667"/>
      <point x="493" y="125" type="curve"/>
      <point x="491" y="125" type="line"/>
      <point x="474.333" y="105.667"/>
      <point x="455.333" y="89.5"/>
      <point x="434" y="76.5" type="curve" smooth="yes"/>
      <point x="412.667" y="63.5"/>
      <point x="391" y="57"/>
      <point x="369" y="57" type="curve" smooth="yes"/>
      <point x="335" y="57"/>
      <point x="306.5" y="69"/>
      <point x="283.5" y="93" type="curve" smooth="yes"/>
      <point x="260.5" y="117"/>
      <point x="249" y="152"/>
      <point x="249" y="198" type="curve" smooth="yes"/>
      <point x="249" y="224.667"/>
      <point x="253.5" y="251.833"/>
      <point x="262.5" y="279.5" type="curve" smooth="yes"/>
      <point x="271.5" y="307.167"/>
      <point x="284.333" y="332.167"/>
      <point x="301" y="354.5" type="curve" smooth="yes"/>
      <point x="317.667" y="376.833"/>
      <point x="337.833" y="395"/>
      <point x="361.5" y="409" type="curve" smooth="yes"/>
      <point x="385.167" y="423"/>
      <point x="411.667" y="430"/>
      <point x="441" y="430" type="curve" smooth="yes"/>
      <point x="458.333" y="430"/>
      <point x="473.667" y="426.167"/>
      <point x="487" y="418.5" type="curve" smooth="yes"/>
      <point x="500.333" y="410.833"/>
      <point x="511.667" y="398.667"/>
      <point x="521" y="382" type="curve"/>
      <point x="523" y="382" type="line"/>
      <point x="534" y="422" type="line"/>
      <point x="589" y="422" type="line"/>
      <point x="550" y="222" type="line"/>
      <point x="530" y="144"/>
      <point x="548" y="105"/>
      <point x="604" y="105" type="curve" smooth="yes"/>
      <point x="620" y="105"/>
      <point x="635.833" y="109.667"/>
      <point x="651.5" y="119" type="curve" smooth="yes"/>
      <point x="667.167" y="128.333"/>
      <point x="681.5" y="141.833"/>
      <point x="694.5" y="159.5" type="curve" smooth="yes"/>
      <point x="707.5" y="177.167"/>
      <point x="718" y="198.833"/>
      <point x="726" y="224.5" type="curve" smooth="yes"/>
      <point x="734" y="250.167"/>
      <point x="738" y="279.333"/>
      <point x="738" y="312" type="curve" smooth="yes"/>
      <point x="738" y="352"/>
      <point x="732.167" y="389.167"/>
      <point x="720.5" y="423.5" type="curve" smooth="yes"/>
      <point x="708.833" y="457.833"/>
      <point x="691.333" y="487.333"/>
      <point x="668" y="512" type="curve" smooth="yes"/>
      <point x="644.667" y="536.667"/>
      <point x="615.667" y="556"/>
      <point x="581" y="570" type="curve" smooth="yes"/>
      <point x="546.333" y="584"/>
      <point x="506.333" y="591"/>
      <point x="461" y="591" type="curve" smooth="yes"/>
      <point x="416.333" y="591"/>
      <point x="373" y="581.833"/>
      <point x="331" y="563.5" type="curve" smooth="yes"/>
      <point x="289" y="545.167"/>
      <point x="251.667" y="519.333"/>
      <point x="219" y="486" type="curve" smooth="yes"/>
      <point x="186.333" y="452.667"/>
      <point x="160.167" y="412.333"/>
      <point x="140.5" y="365" type="curve" smooth="yes"/>
      <point x="120.833" y="317.667"/>
      <point x="111" y="264.667"/>
      <point x="111" y="206" type="curve" smooth="yes"/>
      <point x="111" y="157.333"/>
      <point x="118.5" y="114"/>
      <point x="133.5" y="76" type="curve" smooth="yes"/>
      <point x="148.5" y="38"/>
      <point x="169.333" y="6"/>
      <point x="196" y="-20" type="curve" smooth="yes"/>
      <point x="222.667" y="-46"/>
      <point x="254.167" y="-65.8333"/>
      <point x="290.5" y="-79.5" type="curve" smooth="yes"/>
      <point x="326.833" y="-93.1667"/>
      <point x="366.333" y="-100"/>
      <point x="409" y="-100" type="curve" smooth="yes"/>
      <point x="439.667" y="-100"/>
      <point x="468.667" y="-95.8333"/>
      <point x="496" y="-87.5" type="curve" smooth="yes"/>
      <point x="523.333" y="-79.1667"/>
      <point x="548.333" y="-68.3333"/>
      <point x="571" y="-55" type="curve"/>
      <point x="593" y="-104" type="line"/>
      <point x="536.333" y="-138"/>
      <point x="473" y="-155"/>
      <point x="403" y="-155" type="curve" smooth="yes"/>
      <point x="353.667" y="-155"/>
      <point x="307.667" y="-147.333"/>
      <point x="265" y="-132" type="curve" smooth="yes"/>
      <point x="222.333" y="-116.667"/>
      <point x="185.167" y="-93.8333"/>
      <point x="153.5" y="-63.5" type="curve" smooth="yes"/>
      <point x="121.833" y="-33.1667"/>
      <point x="96.8333" y="4.33333"/>
      <point x="78.5" y="49" type="curve" smooth="yes"/>
      <point x="60.1667" y="93.6667"/>
      <point x="51" y="145"/>
    </contour>
    <contour>
      <point x="315" y="203" type="curve" smooth="yes"/>
      <point x="315" y="171"/>
      <point x="321.667" y="148"/>
      <point x="335" y="134" type="curve" smooth="yes"/>
      <point x="348.333" y="120"/>
      <point x="365" y="113"/>
      <point x="385" y="113" type="curve" smooth="yes"/>
      <point x="399" y="113"/>
      <point x="413.5" y="117.667"/>
      <point x="428.5" y="127" type="curve" smooth="yes"/>
      <point x="443.5" y="136.333"/>
      <point x="459.667" y="151.333"/>
      <point x="477" y="172" type="curve"/>
      <point x="506" y="331" type="line"/>
      <point x="496.667" y="346.333"/>
      <point x="487" y="357.167"/>
      <point x="477" y="363.5" type="curve" smooth="yes"/>
      <point x="467" y="369.833"/>
      <point x="455.333" y="373"/>
      <point x="442" y="373" type="curve" smooth="yes"/>
      <point x="422" y="373"/>
      <point x="404.167" y="367.667"/>
      <point x="388.5" y="357" type="curve" smooth="yes"/>
      <point x="372.833" y="346.333"/>
      <point x="359.5" y="332.667"/>
      <point x="348.5" y="316" type="curve" smooth="yes"/>
      <point x="337.5" y="299.333"/>
      <point x="329.167" y="281"/>
      <point x="323.5" y="261" type="curve" smooth="yes"/>
      <point x="317.833" y="241"/>
      <point x="315" y="221.667"/>
    </contour>
  </outline>
</glyph>
<glyph name="A" format="1">
  <advance width="544"/>
  <unicode hex="0041"/>
  <outline>
    <contour>
      <point x="466" y="0" type="move" name="Anchor-4"/>
    </contour>
    <contour>
      <point x="270" y="-22" type="move" name="Anchor-2"/>
    </contour>
    <contour>
      <point x="270" y="678" type="move" name="Anchor-0"/>
    </contour>
    <contour>
      <point x="369" y="267" type="line"/>
      <point x="338" y="367" type="line" smooth="yes"/>
      <point x="326" y="403.667"/>
      <point x="314.667" y="440.167"/>
      <point x="304" y="476.5" type="curve" smooth="yes"/>
      <point x="293.333" y="512.833"/>
      <point x="282.667" y="550"/>
      <point x="272" y="588" type="curve"/>
      <point x="268" y="588" type="line"/>
      <point x="258" y="550"/>
      <point x="247.667" y="512.833"/>
      <point x="237" y="476.5" type="curve" smooth="yes"/>
      <point x="226.333" y="440.167"/>
      <point x="215" y="403.667"/>
      <point x="203" y="367" type="curve" smooth="yes"/>
      <point x="172" y="267" type="line"/>
    </contour>
    <contour>
      <point x="390" y="200" type="line"/>
      <point x="151" y="200" type="line"/>
      <point x="88" y="0" type="line"/>
      <point x="3" y="0" type="line"/>
      <point x="225" y="656" type="line"/>
      <point x="319" y="656" type="line"/>
      <point x="541" y="0" type="line"/>
      <point x="452" y="0" type="line"/>
    </contour>
  </outline>
</glyph>
<glyph name="B" format="1">
  <advance width="588"/>
  <unicode hex="0042"/>
  <outline>
    <contour>
      <point x="90" y="656" type="line"/>
      <point x="285" y="656" type="line" smooth="yes"/>
      <point x="318.333" y="656"/>
      <point x="348.833" y="653"/>
      <point x="376.5" y="647" type="curve" smooth="yes"/>
      <point x="404.167" y="641"/>
      <point x="427.833" y="631.667"/>
      <point x="447.5" y="619" type="curve" smooth="yes"/>
      <point x="467.167" y="606.333"/>
      <point x="482.5" y="589.833"/>
      <point x="493.5" y="569.5" type="curve" smooth="yes"/>
      <point x="504.5" y="549.167"/>
      <point x="510" y="524.667"/>
      <point x="510" y="496" type="curve" smooth="yes"/>
      <point x="510" y="463.333"/>
      <point x="500.667" y="433.833"/>
      <point x="482" y="407.5" type="curve" smooth="yes"/>
      <point x="463.333" y="381.167"/>
      <point x="434.667" y="363"/>
      <point x="396" y="353" type="curve"/>
      <point x="396" y="349" type="line"/>
      <point x="444" y="341.667"/>
      <point x="481.333" y="325"/>
      <point x="508" y="299" type="curve" smooth="yes"/>
      <point x="534.667" y="273"/>
      <point x="548" y="237.333"/>
      <point x="548" y="192" type="curve" smooth="yes"/>
      <point x="548" y="160"/>
      <point x="542" y="132"/>
      <point x="530" y="108" type="curve" smooth="yes"/>
      <point x="518" y="84"/>
      <point x="501" y="64"/>
      <point x="479" y="48" type="curve" smooth="yes"/>
      <point x="457" y="32"/>
      <point x="430.667" y="20"/>
      <point x="400" y="12" type="curve" smooth="yes"/>
      <point x="369.333" y="4"/>
      <point x="335.667" y="0"/>
      <point x="299" y="0" type="curve" smooth="yes"/>
      <point x="90" y="0" type="line"/>
    </contour>
    <contour>
      <point x="270" y="376" type="line" smooth="yes"/>
      <point x="326.667" y="376"/>
      <point x="367.167" y="385.667"/>
      <point x="391.5" y="405" type="curve" smooth="yes"/>
      <point x="415.833" y="424.333"/>
      <point x="428" y="452.333"/>
      <point x="428" y="489" type="curve" smooth="yes"/>
      <point x="428" y="525"/>
      <point x="415.167" y="550.833"/>
      <point x="389.5" y="566.5" type="curve" smooth="yes"/>
      <point x="363.833" y="582.167"/>
      <point x="325.333" y="590"/>
      <point x="274" y="590" type="curve" smooth="yes"/>
      <point x="173" y="590" type="line"/>
      <point x="173" y="376" type="line"/>
    </contour>
    <contour>
      <point x="287" y="66" type="line" smooth="yes"/>
      <point x="343.667" y="66"/>
      <point x="387.667" y="76.5"/>
      <point x="419" y="97.5" type="curve" smooth="yes"/>
      <point x="450.333" y="118.5"/>
      <point x="466" y="151.333"/>
      <point x="466" y="196" type="curve" smooth="yes"/>
      <point x="466" y="236.667"/>
      <point x="450.667" y="266.5"/>
      <point x="420" y="285.5" type="curve" smooth="yes"/>
      <point x="389.333" y="304.5"/>
      <point x="345" y="314"/>
      <point x="287" y="314" type="curve" smooth="yes"/>
      <point x="173" y="314" type="line"/>
      <point x="173" y="66" type="line"/>
    </contour>
    <contour>
      <point x="287" y="678" type="move" name="Anchor-0"/>
    </contour>
    <contour>
      <point x="302" y="-22" type="move" name="Anchor-2"/>
    </contour>
  </outline>
</glyph>
<glyph name="C" format="1">
  <advance width="571"/>
  <unicode hex="0043"/>
  <outline>
    <contour>
      <point x="343" y="-22" type="move" name="Anchor-2"/>
    </contour>
    <contour>
      <point x="343" y="0" type="move" name="Anchor-1"/>
    </contour>
    <contour>
      <point x="329" y="678" type="move" name="Anchor-0"/>
    </contour>
    <contour>
      <point x="52" y="328" type="curve" smooth="yes"/>
      <point x="52" y="380.667"/>
      <point x="59.3333" y="428"/>
      <point x="74" y="470" type="curve" smooth="yes"/>
      <point x="88.6667" y="512"/>
      <point x="109" y="547.667"/>
      <point x="135" y="577" type="curve" smooth="yes"/>
      <point x="161" y="606.333"/>
      <point x="191.833" y="628.833"/>
      <point x="227.5" y="644.5" type="curve" smooth="yes"/>
      <point x="263.167" y="660.167"/>
      <point x="302" y="668"/>
      <point x="344" y="668" type="curve" smooth="yes"/>
      <point x="384" y="668"/>
      <point x="419" y="659.833"/>
      <point x="449" y="643.5" type="curve" smooth="yes"/>
      <point x="479" y="627.167"/>
      <point x="503.667" y="608.333"/>
      <point x="523" y="587" type="curve"/>
      <point x="476" y="534" type="line"/>
      <point x="458.667" y="552.667"/>
      <point x="439.5" y="567.5"/>
      <point x="418.5" y="578.5" type="curve" smooth="yes"/>
      <point x="397.5" y="589.5"/>
      <point x="373" y="595"/>
      <point x="345" y="595" type="curve" smooth="yes"/>
      <point x="313.667" y="595"/>
      <point x="285.333" y="588.833"/>
      <point x="260" y="576.5" type="curve" smooth="yes"/>
      <point x="234.667" y="564.167"/>
      <point x="213" y="546.5"/>
      <point x="195" y="523.5" type="curve" smooth="yes"/>
      <point x="177" y="500.5"/>
      <point x="163" y="472.667"/>
      <point x="153" y="440" type="curve" smooth="yes"/>
      <point x="143" y="407.333"/>
      <point x="138" y="370.667"/>
      <point x="138" y="330" type="curve" smooth="yes"/>
      <point x="138" y="288.667"/>
      <point x="142.833" y="251.5"/>
      <point x="152.5" y="218.5" type="curve" smooth="yes"/>
      <point x="162.167" y="185.5"/>
      <point x="175.667" y="157.333"/>
      <point x="193" y="134" type="curve" smooth="yes"/>
      <point x="210.333" y="110.667"/>
      <point x="231.5" y="92.6667"/>
      <point x="256.5" y="80" type="curve" smooth="yes"/>
      <point x="281.5" y="67.3333"/>
      <point x="309.667" y="61"/>
      <point x="341" y="61" type="curve" smooth="yes"/>
      <point x="373" y="61"/>
      <point x="400.833" y="67.3333"/>
      <point x="424.5" y="80" type="curve" smooth="yes"/>
      <point x="448.167" y="92.6667"/>
      <point x="470.667" y="110.667"/>
      <point x="492" y="134" type="curve"/>
      <point x="539" y="83" type="line"/>
      <point x="513" y="53"/>
      <point x="483.667" y="29.6667"/>
      <point x="451" y="13" type="curve" smooth="yes"/>
      <point x="418.333" y="-3.66667"/>
      <point x="381" y="-12"/>
      <point x="339" y="-12" type="curve" smooth="yes"/>
      <point x="297.667" y="-12"/>
      <point x="259.5" y="-4.33333"/>
      <point x="224.5" y="11" type="curve" smooth="yes"/>
      <point x="189.5" y="26.3333"/>
      <point x="159.167" y="48.5"/>
      <point x="133.5" y="77.5" type="curve" smooth="yes"/>
      <point x="107.833" y="106.5"/>
      <point x="87.8333" y="142.167"/>
      <point x="73.5" y="184.5" type="curve" smooth="yes"/>
      <point x="59.1667" y="226.833"/>
      <point x="52" y="274.667"/>
    </contour>
  </outline>
</glyph>
<glyph name="D" format="1">
  <advance width="615"/>
  <unicode hex="0044"/>
  <outline>
    <contour>
      <point x="90" y="656" type="line"/>
      <point x="254" y="656" type="line" smooth="yes"/>
      <point x="355.333" y="656"/>
      <point x="432.333" y="628"/>
      <point x="485" y="572" type="curve" smooth="yes"/>
      <point x="537.667" y="516"/>
      <point x="564" y="435.667"/>
      <point x="564" y="331" type="curve" smooth="yes"/>
      <point x="564" y="279"/>
      <point x="557.333" y="232.5"/>
      <point x="544" y="191.5" type="curve" smooth="yes"/>
      <point x="530.667" y="150.5"/>
      <point x="511" y="115.833"/>
      <point x="485" y="87.5" type="curve" smooth="yes"/>
      <point x="459" y="59.1667"/>
      <point x="427" y="37.5"/>
      <point x="389" y="22.5" type="curve" smooth="yes"/>
      <point x="351" y="7.5"/>
      <point x="307.333" y="0"/>
      <point x="258" y="0" type="curve" smooth="yes"/>
      <point x="90" y="0" type="line"/>
    </contour>
    <contour>
      <point x="248" y="68" type="line" smooth="yes"/>
      <point x="324.667" y="68"/>
      <point x="382.167" y="91"/>
      <point x="420.5" y="137" type="curve" smooth="yes"/>
      <point x="458.833" y="183"/>
      <point x="478" y="247.667"/>
      <point x="478" y="331" type="curve" smooth="yes"/>
      <point x="478" y="414.333"/>
      <point x="458.833" y="478"/>
      <point x="420.5" y="522" type="curve" smooth="yes"/>
      <point x="382.167" y="566"/>
      <point x="324.667" y="588"/>
      <point x="248" y="588" type="curve" smooth="yes"/>
      <point x="173" y="588" type="line"/>
      <point x="173" y="68" type="line"/>
    </contour>
    <contour>
      <point x="308" y="678" type="move" name="Anchor-0"/>
    </contour>
    <contour>
      <point x="305" y="-22" type="move" name="Anchor-2"/>
    </contour>
  </outline>
</glyph>
<glyph name="F" format="1">
  <advance width="494"/>
  <unicode hex="0046"/>
  <outline>
    <contour>
      <point x="90" y="656" type="line"/>
      <point x="468" y="656" type="line"/>
      <point x="468" y="586" type="line"/>
      <point x="173" y="586" type="line"/>
      <point x="173" y="364" type="line"/>
      <point x="423" y="364" type="line"/>
      <point x="423" y="294" type="line"/>
      <point x="173" y="294" type="line"/>
      <point x="173" y="0" type="line"/>
      <point x="90" y="0" type="line"/>
    </contour>
    <contour>
      <point x="286" y="678" type="move" name="Anchor-0"/>
    </contour>
    <contour>
      <point x="135" y="-22" type="move" name="Anchor-2"/>
    </contour>
  </outline>
</glyph>
<glyph name="G" format="1">
  <advance width="617"/>
  <unicode hex="0047"/>
  <outline>
    <contour>
      <point x="52" y="328" type="curve" smooth="yes"/>
      <point x="52" y="380.667"/>
      <point x="59.5" y="428"/>
      <point x="74.5" y="470" type="curve" smooth="yes"/>
      <point x="89.5" y="512"/>
      <point x="110.5" y="547.667"/>
      <point x="137.5" y="577" type="curve" smooth="yes"/>
      <point x="164.5" y="606.333"/>
      <point x="196.333" y="628.833"/>
      <point x="233" y="644.5" type="curve" smooth="yes"/>
      <point x="269.667" y="660.167"/>
      <point x="310" y="668"/>
      <point x="354" y="668" type="curve" smooth="yes"/>
      <point x="399.333" y="668"/>
      <point x="437.167" y="659.5"/>
      <point x="467.5" y="642.5" type="curve" smooth="yes"/>
      <point x="497.833" y="625.5"/>
      <point x="522.667" y="607"/>
      <point x="542" y="587" type="curve"/>
      <point x="495" y="534" type="line"/>
      <point x="478.333" y="551.333"/>
      <point x="459.167" y="565.833"/>
      <point x="437.5" y="577.5" type="curve" smooth="yes"/>
      <point x="415.833" y="589.167"/>
      <point x="388.333" y="595"/>
      <point x="355" y="595" type="curve" smooth="yes"/>
      <point x="321.667" y="595"/>
      <point x="291.667" y="588.833"/>
      <point x="265" y="576.5" type="curve" smooth="yes"/>
      <point x="238.333" y="564.167"/>
      <point x="215.667" y="546.5"/>
      <point x="197" y="523.5" type="curve" smooth="yes"/>
      <point x="178.333" y="500.5"/>
      <point x="163.833" y="472.667"/>
      <point x="153.5" y="440" type="curve" smooth="yes"/>
      <point x="143.167" y="407.333"/>
      <point x="138" y="370.667"/>
      <point x="138" y="330" type="curve" smooth="yes"/>
      <point x="138" y="288.667"/>
      <point x="142.833" y="251.5"/>
      <point x="152.5" y="218.5" type="curve" smooth="yes"/>
      <point x="162.167" y="185.5"/>
      <point x="176.167" y="157.333"/>
      <point x="194.5" y="134" type="curve" smooth="yes"/>
      <point x="212.833" y="110.667"/>
      <point x="235.5" y="92.6667"/>
      <point x="262.5" y="80" type="curve" smooth="yes"/>
      <point x="289.5" y="67.3333"/>
      <point x="320.667" y="61"/>
      <point x="356" y="61" type="curve" smooth="yes"/>
      <point x="379.333" y="61"/>
      <point x="401.5" y="64.5"/>
      <point x="422.5" y="71.5" type="curve" smooth="yes"/>
      <point x="443.5" y="78.5"/>
      <point x="460.667" y="88"/>
      <point x="474" y="100" type="curve"/>
      <point x="474" y="271" type="line"/>
      <point x="335" y="271" type="line"/>
      <point x="335" y="340" type="line"/>
      <point x="550" y="340" type="line"/>
      <point x="550" y="64" type="line"/>
      <point x="528.667" y="42"/>
      <point x="500.5" y="23.8333"/>
      <point x="465.5" y="9.5" type="curve" smooth="yes"/>
      <point x="430.5" y="-4.83333"/>
      <point x="391" y="-12"/>
      <point x="347" y="-12" type="curve" smooth="yes"/>
      <point x="303.667" y="-12"/>
      <point x="264" y="-4.33333"/>
      <point x="228" y="11" type="curve" smooth="yes"/>
      <point x="192" y="26.3333"/>
      <point x="161" y="48.5"/>
      <point x="135" y="77.5" type="curve" smooth="yes"/>
      <point x="109" y="106.5"/>
      <point x="88.6667" y="142.167"/>
      <point x="74" y="184.5" type="curve" smooth="yes"/>
      <point x="59.3333" y="226.833"/>
      <point x="52" y="274.667"/>
    </contour>
    <contour>
      <point x="353" y="678" type="move" name="Anchor-0"/>
    </contour>
    <contour>
      <point x="348" y="-22" type="move" name="Anchor-2"/>
    </contour>
  </outline>
</glyph>
<glyph name="I" format="1">
  <advance width="263"/>
  <unicode hex="0049"/>
  <outline>
    <contour>
      <point x="90" y="656" type="line"/>
      <point x="173" y="656" type="line"/>
      <point x="173" y="0" type="line"/>
      <point x="90" y="0" type="line"/>
    </contour>
    <contour>
      <point x="131" y="678" type="move" name="Anchor-0"/>
    </contour>
    <contour>
      <point x="131" y="-22" type="move" name="Anchor-2"/>
    </contour>
    <contour>
      <point x="108" y="0" type="move" name="Anchor-4"/>
    </contour>
  </outline>
</glyph>
<glyph name="J" format="1">
  <advance width="480"/>
  <unicode hex="004A"/>
  <outline>
    <contour>
      <point x="91" y="135" type="line"/>
      <point x="105.667" y="109"/>
      <point x="122.333" y="90.1667"/>
      <point x="141" y="78.5" type="curve" smooth="yes"/>
      <point x="159.667" y="66.8333"/>
      <point x="180.667" y="61"/>
      <point x="204" y="61" type="curve" smooth="yes"/>
      <point x="239.333" y="61"/>
      <point x="265.667" y="71.8333"/>
      <point x="283" y="93.5" type="curve" smooth="yes"/>
      <point x="300.333" y="115.167"/>
      <point x="309" y="151"/>
      <point x="309" y="201" type="curve" smooth="yes"/>
      <point x="309" y="656" type="line"/>
      <point x="393" y="656" type="line"/>
      <point x="393" y="193" type="line" smooth="yes"/>
      <point x="393" y="165"/>
      <point x="389.5" y="138.5"/>
      <point x="382.5" y="113.5" type="curve" smooth="yes"/>
      <point x="375.5" y="88.5"/>
      <point x="364.833" y="66.6667"/>
      <point x="350.5" y="48" type="curve" smooth="yes"/>
      <point x="336.167" y="29.3333"/>
      <point x="317.5" y="14.6667"/>
      <point x="294.5" y="4" type="curve" smooth="yes"/>
      <point x="271.5" y="-6.66667"/>
      <point x="244" y="-12"/>
      <point x="212" y="-12" type="curve" smooth="yes"/>
      <point x="130" y="-12"/>
      <point x="69.6667" y="23"/>
      <point x="31" y="93" type="curve"/>
    </contour>
    <contour>
      <point x="348" y="678" type="move" name="Anchor-0"/>
    </contour>
    <contour>
      <point x="253" y="-22" type="move" name="Anchor-2"/>
    </contour>
  </outline>
</glyph>
<glyph name="L" format="1">
  <advance width="486"/>
  <unicode hex="004C"/>
  <outline>
    <contour>
      <point x="90" y="656" type="line"/>
      <point x="173" y="656" type="line"/>
      <point x="173" y="71" type="line"/>
      <point x="460" y="71" type="line"/>
      <point x="460" y="0" type="line"/>
      <point x="90" y="0" type="line"/>
    </contour>
    <contour>
      <point x="133" y="678" type="move" name="Anchor-0"/>
    </contour>
    <contour>
      <point x="289" y="-22" type="move" name="Anchor-2"/>
    </contour>
  </outline>
</glyph>
<glyph name="M" format="1">
  <advance width="727"/>
  <unicode hex="004D"/>
  <outline>
    <contour>
      <point x="90" y="656" type="line"/>
      <point x="188" y="656" type="line"/>
      <point x="315" y="304" type="line"/>
      <point x="363" y="170" type="line"/>
      <point x="367" y="170" type="line"/>
      <point x="413" y="304" type="line"/>
      <point x="539" y="656" type="line"/>
      <point x="637" y="656" type="line"/>
      <point x="637" y="0" type="line"/>
      <point x="558" y="0" type="line"/>
      <point x="558" y="361" type="line" smooth="yes"/>
      <point x="558" y="390.333"/>
      <point x="559.167" y="422.667"/>
      <point x="561.5" y="458" type="curve" smooth="yes"/>
      <point x="563.833" y="493.333"/>
      <point x="566.333" y="525.667"/>
      <point x="569" y="555" type="curve"/>
      <point x="565" y="555" type="line"/>
      <point x="512" y="409" type="line"/>
      <point x="386" y="66" type="line"/>
      <point x="339" y="66" type="line"/>
      <point x="212" y="409" type="line"/>
      <point x="160" y="555" type="line"/>
      <point x="156" y="555" type="line"/>
      <point x="158" y="525.667"/>
      <point x="160.333" y="493.333"/>
      <point x="163" y="458" type="curve" smooth="yes"/>
      <point x="165.667" y="422.667"/>
      <point x="167" y="390.333"/>
      <point x="167" y="361" type="curve" smooth="yes"/>
      <point x="167" y="0" type="line"/>
      <point x="90" y="0" type="line"/>
    </contour>
    <contour>
      <point x="363" y="678" type="move" name="Anchor-0"/>
    </contour>
    <contour>
      <point x="365" y="-22" type="move" name="Anchor-2"/>
    </contour>
  </outline>
</glyph>
<glyph name="N" format="1">
  <advance width="647"/>
  <unicode hex="004E"/>
  <outline>
    <contour>
      <point x="90" y="656" type="line"/>
      <point x="176" y="656" type="line"/>
      <point x="413" y="244" type="line"/>
      <point x="484" y="108" type="line"/>
      <point x="488" y="108" type="line"/>
      <point x="486" y="141.333"/>
      <point x="483.833" y="175.833"/>
      <point x="481.5" y="211.5" type="curve" smooth="yes"/>
      <point x="479.167" y="247.167"/>
      <point x="478" y="282.333"/>
      <point x="478" y="317" type="curve" smooth="yes"/>
      <point x="478" y="656" type="line"/>
      <point x="557" y="656" type="line"/>
      <point x="557" y="0" type="line"/>
      <point x="471" y="0" type="line"/>
      <point x="233" y="413" type="line"/>
      <point x="162" y="548" type="line"/>
      <point x="158" y="548" type="line"/>
      <point x="160.667" y="514.667"/>
      <point x="163.167" y="480.833"/>
      <point x="165.5" y="446.5" type="curve" smooth="yes"/>
      <point x="167.833" y="412.167"/>
      <point x="169" y="377.667"/>
      <point x="169" y="343" type="curve" smooth="yes"/>
      <point x="169" y="0" type="line"/>
      <point x="90" y="0" type="line"/>
    </contour>
    <contour>
      <point x="327" y="678" type="move" name="Anchor-0"/>
    </contour>
    <contour>
      <point x="327" y="-22" type="move" name="Anchor-2"/>
    </contour>
  </outline>
</glyph>
<glyph name="O" format="1">
  <advance width="664"/>
  <unicode hex="004F"/>
  <outline>
    <contour>
      <point x="332" y="-12" type="curve" smooth="yes"/>
      <point x="290.667" y="-12"/>
      <point x="252.833" y="-4"/>
      <point x="218.5" y="12" type="curve" smooth="yes"/>
      <point x="184.167" y="28"/>
      <point x="154.667" y="50.8333"/>
      <point x="130" y="80.5" type="curve" smooth="yes"/>
      <point x="105.333" y="110.167"/>
      <point x="86.1667" y="146.167"/>
      <point x="72.5" y="188.5" type="curve" smooth="yes"/>
      <point x="58.8333" y="230.833"/>
      <point x="52" y="278.333"/>
      <point x="52" y="331" type="curve" smooth="yes"/>
      <point x="52" y="383.667"/>
      <point x="58.8333" y="430.833"/>
      <point x="72.5" y="472.5" type="curve" smooth="yes"/>
      <point x="86.1667" y="514.167"/>
      <point x="105.333" y="549.5"/>
      <point x="130" y="578.5" type="curve" smooth="yes"/>
      <point x="154.667" y="607.5"/>
      <point x="184.167" y="629.667"/>
      <point x="218.5" y="645" type="curve" smooth="yes"/>
      <point x="252.833" y="660.333"/>
      <point x="290.667" y="668"/>
      <point x="332" y="668" type="curve" smooth="yes"/>
      <point x="373.333" y="668"/>
      <point x="411.167" y="660.167"/>
      <point x="445.5" y="644.5" type="curve" smooth="yes"/>
      <point x="479.833" y="628.833"/>
      <point x="509.5" y="606.5"/>
      <point x="534.5" y="577.5" type="curve" smooth="yes"/>
      <point x="559.5" y="548.5"/>
      <point x="578.833" y="513.167"/>
      <point x="592.5" y="471.5" type="curve" smooth="yes"/>
      <point x="606.167" y="429.833"/>
      <point x="613" y="383"/>
      <point x="613" y="331" type="curve" smooth="yes"/>
      <point x="613" y="278.333"/>
      <point x="606.167" y="230.833"/>
      <point x="592.5" y="188.5" type="curve" smooth="yes"/>
      <point x="578.833" y="146.167"/>
      <point x="559.5" y="110.167"/>
      <point x="534.5" y="80.5" type="curve" smooth="yes"/>
      <point x="509.5" y="50.8333"/>
      <point x="479.833" y="28"/>
      <point x="445.5" y="12" type="curve" smooth="yes"/>
      <point x="411.167" y="-4"/>
      <point x="373.333" y="-12"/>
    </contour>
    <contour>
      <point x="332" y="61" type="curve" smooth="yes"/>
      <point x="361.333" y="61"/>
      <point x="387.833" y="67.3333"/>
      <point x="411.5" y="80" type="curve" smooth="yes"/>
      <point x="435.167" y="92.6667"/>
      <point x="455.5" y="110.833"/>
      <point x="472.5" y="134.5" type="curve" smooth="yes"/>
      <point x="489.5" y="158.167"/>
      <point x="502.667" y="186.5"/>
      <point x="512" y="219.5" type="curve" smooth="yes"/>
      <point x="521.333" y="252.5"/>
      <point x="526" y="289.667"/>
      <point x="526" y="331" type="curve" smooth="yes"/>
      <point x="526" y="371.667"/>
      <point x="521.333" y="408.333"/>
      <point x="512" y="441" type="curve" smooth="yes"/>
      <point x="502.667" y="473.667"/>
      <point x="489.5" y="501.333"/>
      <point x="472.5" y="524" type="curve" smooth="yes"/>
      <point x="455.5" y="546.667"/>
      <point x="435.167" y="564.167"/>
      <point x="411.5" y="576.5" type="curve" smooth="yes"/>
      <point x="387.833" y="588.833"/>
      <point x="361.333" y="595"/>
      <point x="332" y="595" type="curve" smooth="yes"/>
      <point x="302.667" y="595"/>
      <point x="276.167" y="588.833"/>
      <point x="252.5" y="576.5" type="curve" smooth="yes"/>
      <point x="228.833" y="564.167"/>
      <point x="208.5" y="546.667"/>
      <point x="191.5" y="524" type="curve" smooth="yes"/>
      <point x="174.5" y="501.333"/>
      <point x="161.333" y="473.667"/>
      <point x="152" y="441" type="curve" smooth="yes"/>
      <point x="142.667" y="408.333"/>
      <point x="138" y="371.667"/>
      <point x="138" y="331" type="curve" smooth="yes"/>
      <point x="138" y="289.667"/>
      <point x="142.667" y="252.5"/>
      <point x="152" y="219.5" type="curve" smooth="yes"/>
      <point x="161.333" y="186.5"/>
      <point x="174.5" y="158.167"/>
      <point x="191.5" y="134.5" type="curve" smooth="yes"/>
      <point x="208.5" y="110.833"/>
      <point x="228.833" y="92.6667"/>
      <point x="252.5" y="80" type="curve" smooth="yes"/>
      <point x="276.167" y="67.3333"/>
      <point x="302.667" y="61"/>
    </contour>
    <contour>
      <point x="332" y="678" type="move" name="Anchor-0"/>
    </contour>
    <contour>
      <point x="332" y="-22" type="move" name="Anchor-2"/>
    </contour>
    <contour>
      <point x="469" y="646" type="move" name="Anchor-3"/>
    </contour>
    <contour>
      <point x="332" y="0" type="move" name="Anchor-4"/>
    </contour>
  </outline>
</glyph>
<glyph name="P" format="1">
  <advance width="576"/>
  <unicode hex="0050"/>
  <outline>
    <contour>
      <point x="137" y="-22" type="move" name="Anchor-2"/>
    </contour>
    <contour>
      <point x="303" y="678" type="move" name="Anchor-0"/>
    </contour>
    <contour>
      <point x="90" y="656" type="line"/>
      <point x="291" y="656" type="line" smooth="yes"/>
      <point x="327" y="656"/>
      <point x="360" y="652.667"/>
      <point x="390" y="646" type="curve" smooth="yes"/>
      <point x="420" y="639.333"/>
      <point x="445.5" y="628.5"/>
      <point x="466.5" y="613.5" type="curve" smooth="yes"/>
      <point x="487.5" y="598.5"/>
      <point x="503.833" y="578.667"/>
      <point x="515.5" y="554" type="curve" smooth="yes"/>
      <point x="527.167" y="529.333"/>
      <point x="533" y="499"/>
      <point x="533" y="463" type="curve" smooth="yes"/>
      <point x="533" y="428.333"/>
      <point x="527.167" y="398.333"/>
      <point x="515.5" y="373" type="curve" smooth="yes"/>
      <point x="503.833" y="347.667"/>
      <point x="487.333" y="326.667"/>
      <point x="466" y="310" type="curve" smooth="yes"/>
      <point x="444.667" y="293.333"/>
      <point x="419.167" y="280.833"/>
      <point x="389.5" y="272.5" type="curve" smooth="yes"/>
      <point x="359.833" y="264.167"/>
      <point x="327" y="260"/>
      <point x="291" y="260" type="curve" smooth="yes"/>
      <point x="173" y="260" type="line"/>
      <point x="173" y="0" type="line"/>
      <point x="90" y="0" type="line"/>
    </contour>
    <contour>
      <point x="281" y="328" type="line" smooth="yes"/>
      <point x="338.333" y="328"/>
      <point x="380.833" y="338.833"/>
      <point x="408.5" y="360.5" type="curve" smooth="yes"/>
      <point x="436.167" y="382.167"/>
      <point x="450" y="416.333"/>
      <point x="450" y="463" type="curve" smooth="yes"/>
      <point x="450" y="510.333"/>
      <point x="436" y="543.167"/>
      <point x="408" y="561.5" type="curve" smooth="yes"/>
      <point x="380" y="579.833"/>
      <point x="337.667" y="589"/>
      <point x="281" y="589" type="curve" smooth="yes"/>
      <point x="173" y="589" type="line"/>
      <point x="173" y="328" type="line"/>
    </contour>
  </outline>
</glyph>
<glyph name="Q" format="1">
  <advance width="664"/>
  <unicode hex="0051"/>
  <outline>
    <contour>
      <point x="332" y="678" type="move" name="Anchor-0"/>
    </contour>
    <contour>
      <point x="138" y="331" type="curve" smooth="yes"/>
      <point x="138" y="289"/>
      <point x="142.667" y="251.167"/>
      <point x="152" y="217.5" type="curve" smooth="yes"/>
      <point x="161.333" y="183.833"/>
      <point x="174.5" y="155"/>
      <point x="191.5" y="131" type="curve" smooth="yes"/>
      <point x="208.5" y="107"/>
      <point x="228.833" y="88.6667"/>
      <point x="252.5" y="76" type="curve" smooth="yes"/>
      <point x="276.167" y="63.3333"/>
      <point x="302.667" y="57"/>
      <point x="332" y="57" type="curve" smooth="yes"/>
      <point x="361.333" y="57"/>
      <point x="387.833" y="63.3333"/>
      <point x="411.5" y="76" type="curve" smooth="yes"/>
      <point x="435.167" y="88.6667"/>
      <point x="455.5" y="107"/>
      <point x="472.5" y="131" type="curve" smooth="yes"/>
      <point x="489.5" y="155"/>
      <point x="502.667" y="183.833"/>
      <point x="512" y="217.5" type="curve" smooth="yes"/>
      <point x="521.333" y="251.167"/>
      <point x="526" y="289"/>
      <point x="526" y="331" type="curve" smooth="yes"/>
      <point x="526" y="371.667"/>
      <point x="521.333" y="408.333"/>
      <point x="512" y="441" type="curve" smooth="yes"/>
      <point x="502.667" y="473.667"/>
      <point x="489.5" y="501.333"/>
      <point x="472.5" y="524" type="curve" smooth="yes"/>
      <point x="455.5" y="546.667"/>
      <point x="435.167" y="564.167"/>
      <point x="411.5" y="576.5" type="curve" smooth="yes"/>
      <point x="387.833" y="588.833"/>
      <point x="361.333" y="595"/>
      <point x="332" y="595" type="curve" smooth="yes"/>
      <point x="302.667" y="595"/>
      <point x="276.167" y="588.833"/>
      <point x="252.5" y="576.5" type="curve" smooth="yes"/>
      <point x="228.833" y="564.167"/>
      <point x="208.5" y="546.667"/>
      <point x="191.5" y="524" type="curve" smooth="yes"/>
      <point x="174.5" y="501.333"/>
      <point x="161.333" y="473.667"/>
      <point x="152" y="441" type="curve" smooth="yes"/>
      <point x="142.667" y="408.333"/>
      <point x="138" y="371.667"/>
    </contour>
    <contour>
      <point x="627" y="-149" type="line"/>
      <point x="617" y="-152.333"/>
      <point x="603.667" y="-155.667"/>
      <point x="587" y="-159" type="curve" smooth="yes"/>
      <point x="570.333" y="-162.333"/>
      <point x="552.333" y="-164"/>
      <point x="533" y="-164" type="curve" smooth="yes"/>
      <point x="472.333" y="-164"/>
      <point x="421.667" y="-149.5"/>
      <point x="381" y="-120.5" type="curve" smooth="yes"/>
      <point x="340.333" y="-91.5"/>
      <point x="310.333" y="-54.3333"/>
      <point x="291" y="-9" type="curve"/>
      <point x="255" y="-4.33333"/>
      <point x="222.333" y="7"/>
      <point x="193" y="25" type="curve" smooth="yes"/>
      <point x="163.667" y="43"/>
      <point x="138.5" y="66.6667"/>
      <point x="117.5" y="96" type="curve" smooth="yes"/>
      <point x="96.5" y="125.333"/>
      <point x="80.3333" y="159.833"/>
      <point x="69" y="199.5" type="curve" smooth="yes"/>
      <point x="57.6667" y="239.167"/>
      <point x="52" y="283"/>
      <point x="52" y="331" type="curve" smooth="yes"/>
      <point x="52" y="383.667"/>
      <point x="58.8333" y="430.833"/>
      <point x="72.5" y="472.5" type="curve" smooth="yes"/>
      <point x="86.1667" y="514.167"/>
      <point x="105.333" y="549.5"/>
      <point x="130" y="578.5" type="curve" smooth="yes"/>
      <point x="154.667" y="607.5"/>
      <point x="184.167" y="629.667"/>
      <point x="218.5" y="645" type="curve" smooth="yes"/>
      <point x="252.833" y="660.333"/>
      <point x="290.667" y="668"/>
      <point x="332" y="668" type="curve" smooth="yes"/>
      <point x="373.333" y="668"/>
      <point x="411.167" y="660.167"/>
      <point x="445.5" y="644.5" type="curve" smooth="yes"/>
      <point x="479.833" y="628.833"/>
      <point x="509.5" y="606.5"/>
      <point x="534.5" y="577.5" type="curve" smooth="yes"/>
      <point x="559.5" y="548.5"/>
      <point x="578.833" y="513.167"/>
      <point x="592.5" y="471.5" type="curve" smooth="yes"/>
      <point x="606.167" y="429.833"/>
      <point x="613" y="383"/>
      <point x="613" y="331" type="curve" smooth="yes"/>
      <point x="613" y="283.667"/>
      <point x="607.5" y="240.5"/>
      <point x="596.5" y="201.5" type="curve" smooth="yes"/>
      <point x="585.5" y="162.5"/>
      <point x="569.833" y="128.5"/>
      <point x="549.5" y="99.5" type="curve" smooth="yes"/>
      <point x="529.167" y="70.5"/>
      <point x="504.667" y="46.8333"/>
      <point x="476" y="28.5" type="curve" smooth="yes"/>
      <point x="447.333" y="10.1667"/>
      <point x="415.667" y="-2"/>
      <point x="381" y="-8" type="curve"/>
      <point x="396.333" y="-37.3333"/>
      <point x="418" y="-59"/>
      <point x="446" y="-73" type="curve" smooth="yes"/>
      <point x="474" y="-87"/>
      <point x="506" y="-94"/>
      <point x="542" y="-94" type="curve" smooth="yes"/>
      <point x="556.667" y="-94"/>
      <point x="569.5" y="-93"/>
      <point x="580.5" y="-91" type="curve" smooth="yes"/>
      <point x="591.5" y="-89"/>
      <point x="601.667" y="-86.6667"/>
      <point x="611" y="-84" type="curve"/>
    </contour>
  </outline>
</glyph>
<glyph name="R" format="1">
  <advance width="581"/>
  <unicode hex="0052"/>
  <outline>
    <contour>
      <point x="173" y="345" type="line"/>
      <point x="283" y="345" type="line" smooth="yes"/>
      <point x="334.333" y="345"/>
      <point x="373.667" y="355.5"/>
      <point x="401" y="376.5" type="curve" smooth="yes"/>
      <point x="428.333" y="397.5"/>
      <point x="442" y="429.333"/>
      <point x="442" y="472" type="curve" smooth="yes"/>
      <point x="442" y="515.333"/>
      <point x="428.333" y="545.667"/>
      <point x="401" y="563" type="curve" smooth="yes"/>
      <point x="373.667" y="580.333"/>
      <point x="334.333" y="589"/>
      <point x="283" y="589" type="curve" smooth="yes"/>
      <point x="173" y="589" type="line"/>
    </contour>
    <contour>
      <point x="450" y="0" type="line"/>
      <point x="292" y="277" type="line"/>
      <point x="173" y="277" type="line"/>
      <point x="173" y="0" type="line"/>
      <point x="90" y="0" type="line"/>
      <point x="90" y="656" type="line"/>
      <point x="295" y="656" type="line" smooth="yes"/>
      <point x="328.333" y="656"/>
      <point x="359.167" y="652.833"/>
      <point x="387.5" y="646.5" type="curve" smooth="yes"/>
      <point x="415.833" y="640.167"/>
      <point x="440.167" y="629.667"/>
      <point x="460.5" y="615" type="curve" smooth="yes"/>
      <point x="480.833" y="600.333"/>
      <point x="496.667" y="581.333"/>
      <point x="508" y="558" type="curve" smooth="yes"/>
      <point x="519.333" y="534.667"/>
      <point x="525" y="506"/>
      <point x="525" y="472" type="curve" smooth="yes"/>
      <point x="525" y="420.667"/>
      <point x="511.667" y="379.667"/>
      <point x="485" y="349" type="curve" smooth="yes"/>
      <point x="458.333" y="318.333"/>
      <point x="422.667" y="297.333"/>
      <point x="378" y="286" type="curve"/>
      <point x="544" y="0" type="line"/>
    </contour>
    <contour>
      <point x="295" y="678" type="move" name="Anchor-0"/>
    </contour>
    <contour>
      <point x="310" y="-22" type="move" name="Anchor-2"/>
    </contour>
  </outline>
</glyph>
<glyph name="S" format="1">
  <advance width="534"/>
  <unicode hex="0053"/>
  <outline>
    <contour>
      <point x="273" y="-22" type="move" name="Anchor-2"/>
    </contour>
    <contour>
      <point x="273" y="0" type="move" name="Anchor-1"/>
    </contour>
    <contour>
      <point x="278" y="678" type="move" name="Anchor-0"/>
    </contour>
    <contour>
      <point x="92" y="143" type="line"/>
      <point x="115.333" y="118.333"/>
      <point x="142.833" y="98.5"/>
      <point x="174.5" y="83.5" type="curve" smooth="yes"/>
      <point x="206.167" y="68.5"/>
      <point x="239" y="61"/>
      <point x="273" y="61" type="curve" smooth="yes"/>
      <point x="316.333" y="61"/>
      <point x="350" y="70.8333"/>
      <point x="374" y="90.5" type="curve" smooth="yes"/>
      <point x="398" y="110.167"/>
      <point x="410" y="136"/>
      <point x="410" y="168" type="curve" smooth="yes"/>
      <point x="410" y="184.667"/>
      <point x="407.167" y="198.833"/>
      <point x="401.5" y="210.5" type="curve" smooth="yes"/>
      <point x="395.833" y="222.167"/>
      <point x="388.167" y="232.167"/>
      <point x="378.5" y="240.5" type="curve" smooth="yes"/>
      <point x="368.833" y="248.833"/>
      <point x="357.333" y="256.333"/>
      <point x="344" y="263" type="curve" smooth="yes"/>
      <point x="330.667" y="269.667"/>
      <point x="316.333" y="276.667"/>
      <point x="301" y="284" type="curve" smooth="yes"/>
      <point x="207" y="325" type="line" smooth="yes"/>
      <point x="191.667" y="331.667"/>
      <point x="176" y="339.667"/>
      <point x="160" y="349" type="curve" smooth="yes"/>
      <point x="144" y="358.333"/>
      <point x="129.667" y="369.667"/>
      <point x="117" y="383" type="curve" smooth="yes"/>
      <point x="104.333" y="396.333"/>
      <point x="94" y="412.167"/>
      <point x="86" y="430.5" type="curve" smooth="yes"/>
      <point x="78" y="448.833"/>
      <point x="74" y="470"/>
      <point x="74" y="494" type="curve" smooth="yes"/>
      <point x="74" y="518.667"/>
      <point x="79.1667" y="541.667"/>
      <point x="89.5" y="563" type="curve" smooth="yes"/>
      <point x="99.8333" y="584.333"/>
      <point x="114.167" y="602.833"/>
      <point x="132.5" y="618.5" type="curve" smooth="yes"/>
      <point x="150.833" y="634.167"/>
      <point x="172.5" y="646.333"/>
      <point x="197.5" y="655" type="curve" smooth="yes"/>
      <point x="222.5" y="663.667"/>
      <point x="250" y="668"/>
      <point x="280" y="668" type="curve" smooth="yes"/>
      <point x="319.333" y="668"/>
      <point x="355.667" y="660.5"/>
      <point x="389" y="645.5" type="curve" smooth="yes"/>
      <point x="422.333" y="630.5"/>
      <point x="450.667" y="611"/>
      <point x="474" y="587" type="curve"/>
      <point x="429" y="533" type="line"/>
      <point x="409" y="552.333"/>
      <point x="386.833" y="567.5"/>
      <point x="362.5" y="578.5" type="curve" smooth="yes"/>
      <point x="338.167" y="589.5"/>
      <point x="310.667" y="595"/>
      <point x="280" y="595" type="curve" smooth="yes"/>
      <point x="243.333" y="595"/>
      <point x="213.833" y="586.5"/>
      <point x="191.5" y="569.5" type="curve" smooth="yes"/>
      <point x="169.167" y="552.5"/>
      <point x="158" y="529"/>
      <point x="158" y="499" type="curve" smooth="yes"/>
      <point x="158" y="483"/>
      <point x="161.167" y="469.5"/>
      <point x="167.5" y="458.5" type="curve" smooth="yes"/>
      <point x="173.833" y="447.5"/>
      <point x="182.333" y="437.833"/>
      <point x="193" y="429.5" type="curve" smooth="yes"/>
      <point x="203.667" y="421.167"/>
      <point x="215.333" y="413.833"/>
      <point x="228" y="407.5" type="curve" smooth="yes"/>
      <point x="240.667" y="401.167"/>
      <point x="253.667" y="395.333"/>
      <point x="267" y="390" type="curve" smooth="yes"/>
      <point x="360" y="350" type="line" smooth="yes"/>
      <point x="378.667" y="342"/>
      <point x="396.333" y="332.833"/>
      <point x="413" y="322.5" type="curve" smooth="yes"/>
      <point x="429.667" y="312.167"/>
      <point x="444" y="300.167"/>
      <point x="456" y="286.5" type="curve" smooth="yes"/>
      <point x="468" y="272.833"/>
      <point x="477.5" y="256.833"/>
      <point x="484.5" y="238.5" type="curve" smooth="yes"/>
      <point x="491.5" y="220.167"/>
      <point x="495" y="199"/>
      <point x="495" y="175" type="curve" smooth="yes"/>
      <point x="495" y="149"/>
      <point x="489.833" y="124.667"/>
      <point x="479.5" y="102" type="curve" smooth="yes"/>
      <point x="469.167" y="79.3333"/>
      <point x="454.333" y="59.5"/>
      <point x="435" y="42.5" type="curve" smooth="yes"/>
      <point x="415.667" y="25.5"/>
      <point x="392.333" y="12.1667"/>
      <point x="365" y="2.5" type="curve" smooth="yes"/>
      <point x="337.667" y="-7.16667"/>
      <point x="306.667" y="-12"/>
      <point x="272" y="-12" type="curve" smooth="yes"/>
      <point x="226" y="-12"/>
      <point x="183.333" y="-3.33333"/>
      <point x="144" y="14" type="curve" smooth="yes"/>
      <point x="104.667" y="31.3333"/>
      <point x="70.6667" y="55"/>
      <point x="42" y="85" type="curve"/>
    </contour>
  </outline>
</glyph>
<glyph name="T" format="1">
  <advance width="536"/>
  <unicode hex="0054"/>
  <outline>
    <contour>
      <point x="226" y="586" type="line"/>
      <point x="28" y="586" type="line"/>
      <point x="28" y="656" type="line"/>
      <point x="508" y="656" type="line"/>
      <point x="508" y="586" type="line"/>
      <point x="310" y="586" type="line"/>
      <point x="310" y="0" type="line"/>
      <point x="226" y="0" type="line"/>
    </contour>
    <contour>
      <point x="267" y="678" type="move" name="Anchor-0"/>
    </contour>
    <contour>
      <point x="268" y="0" type="move" name="Anchor-1"/>
    </contour>
    <contour>
      <point x="268" y="-22" type="move" name="Anchor-2"/>
    </contour>
  </outline>
</glyph>
<glyph name="U" format="1">
  <advance width="645"/>
  <unicode hex="0055"/>
  <outline>
    <contour>
      <point x="322" y="0" type="move" name="Anchor-4"/>
    </contour>
    <contour>
      <point x="525" y="666" type="move" name="Anchor-3"/>
    </contour>
    <contour>
      <point x="322" y="-22" type="move" name="Anchor-2"/>
    </contour>
    <contour>
      <point x="322" y="678" type="move" name="Anchor-0"/>
    </contour>
    <contour>
      <point x="87" y="656" type="line"/>
      <point x="170" y="656" type="line"/>
      <point x="170" y="269" type="line" smooth="yes"/>
      <point x="170" y="229.667"/>
      <point x="174" y="196.667"/>
      <point x="182" y="170" type="curve" smooth="yes"/>
      <point x="190" y="143.333"/>
      <point x="200.833" y="122"/>
      <point x="214.5" y="106" type="curve" smooth="yes"/>
      <point x="228.167" y="90"/>
      <point x="244.333" y="78.5"/>
      <point x="263" y="71.5" type="curve" smooth="yes"/>
      <point x="281.667" y="64.5"/>
      <point x="301.667" y="61"/>
      <point x="323" y="61" type="curve" smooth="yes"/>
      <point x="345" y="61"/>
      <point x="365.333" y="64.5"/>
      <point x="384" y="71.5" type="curve" smooth="yes"/>
      <point x="402.667" y="78.5"/>
      <point x="419" y="90"/>
      <point x="433" y="106" type="curve" smooth="yes"/>
      <point x="447" y="122"/>
      <point x="458" y="143.333"/>
      <point x="466" y="170" type="curve" smooth="yes"/>
      <point x="474" y="196.667"/>
      <point x="478" y="229.667"/>
      <point x="478" y="269" type="curve" smooth="yes"/>
      <point x="478" y="656" type="line"/>
      <point x="558" y="656" type="line"/>
      <point x="558" y="271" type="line" smooth="yes"/>
      <point x="558" y="218.333"/>
      <point x="552" y="174"/>
      <point x="540" y="138" type="curve" smooth="yes"/>
      <point x="528" y="102"/>
      <point x="511.5" y="72.8333"/>
      <point x="490.5" y="50.5" type="curve" smooth="yes"/>
      <point x="469.5" y="28.1667"/>
      <point x="444.667" y="12.1667"/>
      <point x="416" y="2.5" type="curve" smooth="yes"/>
      <point x="387.333" y="-7.16667"/>
      <point x="356.333" y="-12"/>
      <point x="323" y="-12" type="curve" smooth="yes"/>
      <point x="289.667" y="-12"/>
      <point x="258.5" y="-7.16667"/>
      <point x="229.5" y="2.5" type="curve" smooth="yes"/>
      <point x="200.5" y="12.1667"/>
      <point x="175.5" y="28.1667"/>
      <point x="154.5" y="50.5" type="curve" smooth="yes"/>
      <point x="133.5" y="72.8333"/>
      <point x="117" y="102"/>
      <point x="105" y="138" type="curve" smooth="yes"/>
      <point x="93" y="174"/>
      <point x="87" y="218.333"/>
      <point x="87" y="271" type="curve" smooth="yes"/>
    </contour>
  </outline>
</glyph>
<glyph name="V" format="1">
  <advance width="515"/>
  <unicode hex="0056"/>
  <outline>
    <contour>
      <point x="258" y="-22" type="move" name="Anchor-2"/>
    </contour>
    <contour>
      <point x="257" y="678" type="move" name="Anchor-0"/>
    </contour>
    <contour>
      <point x="0" y="656" type="line"/>
      <point x="89" y="656" type="line"/>
      <point x="194" y="302" type="line" smooth="yes"/>
      <point x="206" y="262.667"/>
      <point x="216.5" y="226.333"/>
      <point x="225.5" y="193" type="curve" smooth="yes"/>
      <point x="234.5" y="159.667"/>
      <point x="245.333" y="123.667"/>
      <point x="258" y="85" type="curve"/>
      <point x="262" y="85" type="line"/>
      <point x="274" y="123.667"/>
      <point x="284.667" y="159.667"/>
      <point x="294" y="193" type="curve" smooth="yes"/>
      <point x="303.333" y="226.333"/>
      <point x="313.667" y="262.667"/>
      <point x="325" y="302" type="curve" smooth="yes"/>
      <point x="430" y="656" type="line"/>
      <point x="515" y="656" type="line"/>
      <point x="307" y="0" type="line"/>
      <point x="210" y="0" type="line"/>
    </contour>
  </outline>
</glyph>
<glyph name="W" format="1">
  <advance width="786"/>
  <unicode hex="0057"/>
  <outline>
    <contour>
      <point x="23" y="656" type="line"/>
      <point x="109" y="656" type="line"/>
      <point x="178" y="299" type="line"/>
      <point x="184" y="263"/>
      <point x="190.333" y="227.667"/>
      <point x="197" y="193" type="curve" smooth="yes"/>
      <point x="203.667" y="158.333"/>
      <point x="210" y="123"/>
      <point x="216" y="87" type="curve"/>
      <point x="220" y="87" type="line"/>
      <point x="227.333" y="123"/>
      <point x="235" y="158.5"/>
      <point x="243" y="193.5" type="curve" smooth="yes"/>
      <point x="251" y="228.5"/>
      <point x="258.667" y="263.667"/>
      <point x="266" y="299" type="curve"/>
      <point x="357" y="656" type="line"/>
      <point x="433" y="656" type="line"/>
      <point x="524" y="299" type="line"/>
      <point x="532" y="264.333"/>
      <point x="540" y="229.333"/>
      <point x="548" y="194" type="curve" smooth="yes"/>
      <point x="556" y="158.667"/>
      <point x="564" y="123"/>
      <point x="572" y="87" type="curve"/>
      <point x="576" y="87" type="line"/>
      <point x="582" y="123"/>
      <point x="588" y="158.5"/>
      <point x="594" y="193.5" type="curve" smooth="yes"/>
      <point x="600" y="228.5"/>
      <point x="606.333" y="263.667"/>
      <point x="613" y="299" type="curve" smooth="yes"/>
      <point x="682" y="656" type="line"/>
      <point x="762" y="656" type="line"/>
      <point x="626" y="0" type="line"/>
      <point x="526" y="0" type="line"/>
      <point x="427" y="395" type="line" smooth="yes"/>
      <point x="421" y="420.333"/>
      <point x="415.5" y="445.167"/>
      <point x="410.5" y="469.5" type="curve" smooth="yes"/>
      <point x="405.5" y="493.833"/>
      <point x="400.333" y="518.667"/>
      <point x="395" y="544" type="curve"/>
      <point x="391" y="544" type="line"/>
      <point x="385.667" y="518.667"/>
      <point x="380.167" y="493.833"/>
      <point x="374.5" y="469.5" type="curve" smooth="yes"/>
      <point x="368.833" y="445.167"/>
      <point x="363.333" y="420.333"/>
      <point x="358" y="395" type="curve"/>
      <point x="261" y="0" type="line"/>
      <point x="162" y="0" type="line"/>
    </contour>
    <contour>
      <point x="393" y="678" type="move" name="Anchor-0"/>
    </contour>
    <contour>
      <point x="396" y="-22" type="move" name="Anchor-2"/>
    </contour>
  </outline>
</glyph>
<glyph name="X" format="1">
  <advance width="513"/>
  <unicode hex="0058"/>
  <outline>
    <contour>
      <point x="206" y="339" type="line"/>
      <point x="28" y="656" type="line"/>
      <point x="120" y="656" type="line"/>
      <point x="209" y="488" type="line" smooth="yes"/>
      <point x="217.667" y="472.667"/>
      <point x="225.833" y="457.833"/>
      <point x="233.5" y="443.5" type="curve" smooth="yes"/>
      <point x="241.167" y="429.167"/>
      <point x="250" y="412.333"/>
      <point x="260" y="393" type="curve"/>
      <point x="264" y="393" type="line"/>
      <point x="273.333" y="412.333"/>
      <point x="281.5" y="429.167"/>
      <point x="288.5" y="443.5" type="curve" smooth="yes"/>
      <point x="295.5" y="457.833"/>
      <point x="303" y="472.667"/>
      <point x="311" y="488" type="curve" smooth="yes"/>
      <point x="398" y="656" type="line"/>
      <point x="486" y="656" type="line"/>
      <point x="307" y="335" type="line"/>
      <point x="498" y="0" type="line"/>
      <point x="406" y="0" type="line"/>
      <point x="310" y="177" type="line" smooth="yes"/>
      <point x="301.333" y="193"/>
      <point x="292.5" y="209.5"/>
      <point x="283.5" y="226.5" type="curve" smooth="yes"/>
      <point x="274.5" y="243.5"/>
      <point x="264.667" y="262"/>
      <point x="254" y="282" type="curve"/>
      <point x="250" y="282" type="line"/>
      <point x="240.667" y="262"/>
      <point x="231.667" y="243.5"/>
      <point x="223" y="226.5" type="curve" smooth="yes"/>
      <point x="214.333" y="209.5"/>
      <point x="206" y="193"/>
      <point x="198" y="177" type="curve" smooth="yes"/>
      <point x="103" y="0" type="line"/>
      <point x="15" y="0" type="line"/>
    </contour>
    <contour>
      <point x="257" y="678" type="move" name="Anchor-0"/>
    </contour>
    <contour>
      <point x="252" y="-22" type="move" name="Anchor-2"/>
    </contour>
  </outline>
</glyph>
<glyph name="Y" format="1">
  <advance width="476"/>
  <unicode hex="0059"/>
  <outline>
    <contour>
      <point x="196" y="254" type="line"/>
      <point x="-1" y="656" type="line"/>
      <point x="88" y="656" type="line"/>
      <point x="173" y="471" type="line" smooth="yes"/>
      <point x="183.667" y="447"/>
      <point x="194" y="423.333"/>
      <point x="204" y="400" type="curve" smooth="yes"/>
      <point x="214" y="376.667"/>
      <point x="224.667" y="352.667"/>
      <point x="236" y="328" type="curve"/>
      <point x="240" y="328" type="line"/>
      <point x="251.333" y="352.667"/>
      <point x="262.667" y="376.667"/>
      <point x="274" y="400" type="curve" smooth="yes"/>
      <point x="285.333" y="423.333"/>
      <point x="296" y="447"/>
      <point x="306" y="471" type="curve"/>
      <point x="390" y="656" type="line"/>
      <point x="477" y="656" type="line"/>
      <point x="280" y="254" type="line"/>
      <point x="280" y="0" type="line"/>
      <point x="196" y="0" type="line"/>
    </contour>
    <contour>
      <point x="238" y="678" type="move" name="Anchor-0"/>
    </contour>
    <contour>
      <point x="240" y="-22" type="move" name="Anchor-2"/>
    </contour>
  </outline>
</glyph>
<glyph name="a" format="1">
  <advance width="512"/>
  <unicode hex="0061"/>
  <outline>
    <contour>
      <point x="58" y="126" type="curve" smooth="yes"/>
      <point x="58" y="179.333"/>
      <point x="81.8333" y="220.167"/>
      <point x="129.5" y="248.5" type="curve" smooth="yes"/>
      <point x="177.167" y="276.833"/>
      <point x="253" y="296.667"/>
      <point x="357" y="308" type="curve"/>
      <point x="357" y="323.333"/>
      <point x="355.5" y="338.333"/>
      <point x="352.5" y="353" type="curve" smooth="yes"/>
      <point x="349.5" y="367.667"/>
      <point x="344.167" y="380.667"/>
      <point x="336.5" y="392" type="curve" smooth="yes"/>
      <point x="328.833" y="403.333"/>
      <point x="318.667" y="412.5"/>
      <point x="306" y="419.5" type="curve" smooth="yes"/>
      <point x="293.333" y="426.5"/>
      <point x="277" y="430"/>
      <point x="257" y="430" type="curve" smooth="yes"/>
      <point x="228.333" y="430"/>
      <point x="201.833" y="424.667"/>
      <point x="177.5" y="414" type="curve" smooth="yes"/>
      <point x="153.167" y="403.333"/>
      <point x="131.333" y="391.333"/>
      <point x="112" y="378" type="curve"/>
      <point x="79" y="435" type="line"/>
      <point x="101.667" y="449.667"/>
      <point x="129.333" y="463.833"/>
      <point x="162" y="477.5" type="curve" smooth="yes"/>
      <point x="194.667" y="491.167"/>
      <point x="230.667" y="498"/>
      <point x="270" y="498" type="curve" smooth="yes"/>
      <point x="329.333" y="498"/>
      <point x="372.333" y="479.833"/>
      <point x="399" y="443.5" type="curve" smooth="yes"/>
      <point x="425.667" y="407.167"/>
      <point x="439" y="358.667"/>
      <point x="439" y="298" type="curve" smooth="yes"/>
      <point x="439" y="0" type="line"/>
      <point x="371" y="0" type="line"/>
      <point x="364" y="58" type="line"/>
      <point x="362" y="58" type="line"/>
      <point x="338.667" y="38.6667"/>
      <point x="313.5" y="22.1667"/>
      <point x="286.5" y="8.5" type="curve" smooth="yes"/>
      <point x="259.5" y="-5.16667"/>
      <point x="231" y="-12"/>
      <point x="201" y="-12" type="curve" smooth="yes"/>
      <point x="159.667" y="-12"/>
      <point x="125.5" y="0"/>
      <point x="98.5" y="24" type="curve" smooth="yes"/>
      <point x="71.5" y="48"/>
      <point x="58" y="82"/>
    </contour>
    <contour>
      <point x="139" y="132" type="curve" smooth="yes"/>
      <point x="139" y="104"/>
      <point x="147.167" y="84"/>
      <point x="163.5" y="72" type="curve" smooth="yes"/>
      <point x="179.833" y="60"/>
      <point x="200" y="54"/>
      <point x="224" y="54" type="curve" smooth="yes"/>
      <point x="247.333" y="54"/>
      <point x="269.5" y="59.5"/>
      <point x="290.5" y="70.5" type="curve" smooth="yes"/>
      <point x="311.5" y="81.5"/>
      <point x="333.667" y="97.6667"/>
      <point x="357" y="119" type="curve"/>
      <point x="357" y="254" type="line"/>
      <point x="316.333" y="248.667"/>
      <point x="282" y="242.333"/>
      <point x="254" y="235" type="curve" smooth="yes"/>
      <point x="226" y="227.667"/>
      <point x="203.5" y="219"/>
      <point x="186.5" y="209" type="curve" smooth="yes"/>
      <point x="169.5" y="199"/>
      <point x="157.333" y="187.5"/>
      <point x="150" y="174.5" type="curve" smooth="yes"/>
      <point x="142.667" y="161.5"/>
      <point x="139" y="147.333"/>
    </contour>
    <contour>
      <point x="269" y="508" type="move" name="Anchor-0"/>
    </contour>
    <contour>
      <point x="252" y="-22" type="move" name="Anchor-2"/>
    </contour>
    <contour>
      <point x="414" y="0" type="move" name="Anchor-4"/>
    </contour>
  </outline>
</glyph>
<glyph name="b" format="1">
  <advance width="555"/>
  <unicode hex="0062"/>
  <outline>
    <contour>
      <point x="82" y="712" type="line"/>
      <point x="164" y="712" type="line"/>
      <point x="164" y="518" type="line"/>
      <point x="162" y="430" type="line"/>
      <point x="184" y="449.333"/>
      <point x="208" y="465.5"/>
      <point x="234" y="478.5" type="curve" smooth="yes"/>
      <point x="260" y="491.5"/>
      <point x="286.667" y="498"/>
      <point x="314" y="498" type="curve" smooth="yes"/>
      <point x="345.333" y="498"/>
      <point x="373" y="492.167"/>
      <point x="397" y="480.5" type="curve" smooth="yes"/>
      <point x="421" y="468.833"/>
      <point x="441.167" y="452.167"/>
      <point x="457.5" y="430.5" type="curve" smooth="yes"/>
      <point x="473.833" y="408.833"/>
      <point x="486.167" y="382.833"/>
      <point x="494.5" y="352.5" type="curve" smooth="yes"/>
      <point x="502.833" y="322.167"/>
      <point x="507" y="288.333"/>
      <point x="507" y="251" type="curve" smooth="yes"/>
      <point x="507" y="209.667"/>
      <point x="501.333" y="172.667"/>
      <point x="490" y="140" type="curve" smooth="yes"/>
      <point x="478.667" y="107.333"/>
      <point x="463.333" y="79.6667"/>
      <point x="444" y="57" type="curve" smooth="yes"/>
      <point x="424.667" y="34.3333"/>
      <point x="402.333" y="17.1667"/>
      <point x="377" y="5.5" type="curve" smooth="yes"/>
      <point x="351.667" y="-6.16667"/>
      <point x="325" y="-12"/>
      <point x="297" y="-12" type="curve" smooth="yes"/>
      <point x="274.333" y="-12"/>
      <point x="250.833" y="-6.83333"/>
      <point x="226.5" y="3.5" type="curve" smooth="yes"/>
      <point x="202.167" y="13.8333"/>
      <point x="179.333" y="28.6667"/>
      <point x="158" y="48" type="curve"/>
      <point x="155" y="48" type="line"/>
      <point x="148" y="0" type="line"/>
      <point x="82" y="0" type="line"/>
    </contour>
    <contour>
      <point x="164" y="108" type="line"/>
      <point x="185.333" y="89.3333"/>
      <point x="206.5" y="76.1667"/>
      <point x="227.5" y="68.5" type="curve" smooth="yes"/>
      <point x="248.5" y="60.8333"/>
      <point x="267" y="57"/>
      <point x="283" y="57" type="curve" smooth="yes"/>
      <point x="303" y="57"/>
      <point x="321.5" y="61.5"/>
      <point x="338.5" y="70.5" type="curve" smooth="yes"/>
      <point x="355.5" y="79.5"/>
      <point x="370.167" y="92.1667"/>
      <point x="382.5" y="108.5" type="curve" smooth="yes"/>
      <point x="394.833" y="124.833"/>
      <point x="404.5" y="145"/>
      <point x="411.5" y="169" type="curve" smooth="yes"/>
      <point x="418.5" y="193"/>
      <point x="422" y="220"/>
      <point x="422" y="250" type="curve" smooth="yes"/>
      <point x="422" y="276.667"/>
      <point x="419.667" y="301"/>
      <point x="415" y="323" type="curve" smooth="yes"/>
      <point x="410.333" y="345"/>
      <point x="402.833" y="363.833"/>
      <point x="392.5" y="379.5" type="curve" smooth="yes"/>
      <point x="382.167" y="395.167"/>
      <point x="368.833" y="407.333"/>
      <point x="352.5" y="416" type="curve" smooth="yes"/>
      <point x="336.167" y="424.667"/>
      <point x="316.667" y="429"/>
      <point x="294" y="429" type="curve" smooth="yes"/>
      <point x="254.667" y="429"/>
      <point x="211.333" y="407"/>
      <point x="164" y="363" type="curve"/>
    </contour>
    <contour>
      <point x="126" y="730" type="move" name="Anchor-0"/>
    </contour>
    <contour>
      <point x="284" y="-22" type="move" name="Anchor-2"/>
    </contour>
  </outline>
</glyph>
<glyph name="c" format="1">
  <advance width="456"/>
  <unicode hex="0063"/>
  <outline>
    <contour>
      <point x="46" y="242" type="curve" smooth="yes"/>
      <point x="46" y="282.667"/>
      <point x="52.3333" y="318.833"/>
      <point x="65" y="350.5" type="curve" smooth="yes"/>
      <point x="77.6667" y="382.167"/>
      <point x="94.6667" y="409"/>
      <point x="116" y="431" type="curve" smooth="yes"/>
      <point x="137.333" y="453"/>
      <point x="162.167" y="469.667"/>
      <point x="190.5" y="481" type="curve" smooth="yes"/>
      <point x="218.833" y="492.333"/>
      <point x="248.667" y="498"/>
      <point x="280" y="498" type="curve" smooth="yes"/>
      <point x="312" y="498"/>
      <point x="339.5" y="492.167"/>
      <point x="362.5" y="480.5" type="curve" smooth="yes"/>
      <point x="385.5" y="468.833"/>
      <point x="405.333" y="455.333"/>
      <point x="422" y="440" type="curve"/>
      <point x="381" y="387" type="line"/>
      <point x="366.333" y="399.667"/>
      <point x="351.167" y="410"/>
      <point x="335.5" y="418" type="curve" smooth="yes"/>
      <point x="319.833" y="426"/>
      <point x="302.333" y="430"/>
      <point x="283" y="430" type="curve" smooth="yes"/>
      <point x="261" y="430"/>
      <point x="240.667" y="425.5"/>
      <point x="222" y="416.5" type="curve" smooth="yes"/>
      <point x="203.333" y="407.5"/>
      <point x="187.333" y="394.667"/>
      <point x="174" y="378" type="curve" smooth="yes"/>
      <point x="160.667" y="361.333"/>
      <point x="150.167" y="341.5"/>
      <point x="142.5" y="318.5" type="curve" smooth="yes"/>
      <point x="134.833" y="295.5"/>
      <point x="131" y="270"/>
      <point x="131" y="242" type="curve" smooth="yes"/>
      <point x="131" y="214"/>
      <point x="134.667" y="188.667"/>
      <point x="142" y="166" type="curve" smooth="yes"/>
      <point x="149.333" y="143.333"/>
      <point x="159.5" y="123.833"/>
      <point x="172.5" y="107.5" type="curve" smooth="yes"/>
      <point x="185.5" y="91.1667"/>
      <point x="201.333" y="78.5"/>
      <point x="220" y="69.5" type="curve" smooth="yes"/>
      <point x="238.667" y="60.5"/>
      <point x="259" y="56"/>
      <point x="281" y="56" type="curve" smooth="yes"/>
      <point x="304.333" y="56"/>
      <point x="325.5" y="60.8333"/>
      <point x="344.5" y="70.5" type="curve" smooth="yes"/>
      <point x="363.5" y="80.1667"/>
      <point x="380.333" y="91.6667"/>
      <point x="395" y="105" type="curve"/>
      <point x="432" y="51" type="line"/>
      <point x="410" y="31.6667"/>
      <point x="385.5" y="16.3333"/>
      <point x="358.5" y="5" type="curve" smooth="yes"/>
      <point x="331.5" y="-6.33333"/>
      <point x="303.333" y="-12"/>
      <point x="274" y="-12" type="curve" smooth="yes"/>
      <point x="242" y="-12"/>
      <point x="212" y="-6.33333"/>
      <point x="184" y="5" type="curve" smooth="yes"/>
      <point x="156" y="16.3333"/>
      <point x="131.833" y="32.8333"/>
      <point x="111.5" y="54.5" type="curve" smooth="yes"/>
      <point x="91.1667" y="76.1667"/>
      <point x="75.1667" y="102.833"/>
      <point x="63.5" y="134.5" type="curve" smooth="yes"/>
      <point x="51.8333" y="166.167"/>
      <point x="46" y="202"/>
    </contour>
    <contour>
      <point x="276" y="508" type="move" name="Anchor-0"/>
    </contour>
    <contour>
      <point x="270" y="0" type="move" name="Anchor-1"/>
    </contour>
    <contour>
      <point x="270" y="-22" type="move" name="Anchor-2"/>
    </contour>
  </outline>
</glyph>
<glyph name="d" format="1">
  <advance width="555"/>
  <unicode hex="0064"/>
  <outline>
    <contour>
      <point x="301" y="-22" type="move" name="Anchor-2"/>
    </contour>
    <contour>
      <point x="393" y="730" type="move" name="Anchor-0"/>
    </contour>
    <contour>
      <point x="47" y="242" type="curve" smooth="yes"/>
      <point x="47" y="281.333"/>
      <point x="52.8333" y="316.833"/>
      <point x="64.5" y="348.5" type="curve" smooth="yes"/>
      <point x="76.1667" y="380.167"/>
      <point x="91.6667" y="407"/>
      <point x="111" y="429" type="curve" smooth="yes"/>
      <point x="130.333" y="451"/>
      <point x="152.667" y="468"/>
      <point x="178" y="480" type="curve" smooth="yes"/>
      <point x="203.333" y="492"/>
      <point x="230" y="498"/>
      <point x="258" y="498" type="curve" smooth="yes"/>
      <point x="286" y="498"/>
      <point x="310.333" y="493"/>
      <point x="331" y="483" type="curve" smooth="yes"/>
      <point x="351.667" y="473"/>
      <point x="372.667" y="459.333"/>
      <point x="394" y="442" type="curve"/>
      <point x="390" y="525" type="line"/>
      <point x="390" y="712" type="line"/>
      <point x="473" y="712" type="line"/>
      <point x="473" y="0" type="line"/>
      <point x="405" y="0" type="line"/>
      <point x="398" y="57" type="line"/>
      <point x="395" y="57" type="line"/>
      <point x="375.667" y="38.3333"/>
      <point x="353.5" y="22.1667"/>
      <point x="328.5" y="8.5" type="curve" smooth="yes"/>
      <point x="303.5" y="-5.16667"/>
      <point x="276.667" y="-12"/>
      <point x="248" y="-12" type="curve" smooth="yes"/>
      <point x="186.667" y="-12"/>
      <point x="137.833" y="10"/>
      <point x="101.5" y="54" type="curve" smooth="yes"/>
      <point x="65.1667" y="98"/>
      <point x="47" y="160.667"/>
    </contour>
    <contour>
      <point x="132" y="243" type="curve" smooth="yes"/>
      <point x="132" y="184.333"/>
      <point x="143.667" y="138.667"/>
      <point x="167" y="106" type="curve" smooth="yes"/>
      <point x="190.333" y="73.3333"/>
      <point x="223.333" y="57"/>
      <point x="266" y="57" type="curve" smooth="yes"/>
      <point x="288.667" y="57"/>
      <point x="310" y="62.5"/>
      <point x="330" y="73.5" type="curve" smooth="yes"/>
      <point x="350" y="84.5"/>
      <point x="370" y="101.333"/>
      <point x="390" y="124" type="curve"/>
      <point x="390" y="378" type="line"/>
      <point x="369.333" y="396.667"/>
      <point x="349.5" y="409.833"/>
      <point x="330.5" y="417.5" type="curve" smooth="yes"/>
      <point x="311.5" y="425.167"/>
      <point x="292" y="429"/>
      <point x="272" y="429" type="curve" smooth="yes"/>
      <point x="252.667" y="429"/>
      <point x="234.5" y="424.5"/>
      <point x="217.5" y="415.5" type="curve" smooth="yes"/>
      <point x="200.5" y="406.5"/>
      <point x="185.667" y="393.833"/>
      <point x="173" y="377.5" type="curve" smooth="yes"/>
      <point x="160.333" y="361.167"/>
      <point x="150.333" y="341.667"/>
      <point x="143" y="319" type="curve" smooth="yes"/>
      <point x="135.667" y="296.333"/>
      <point x="132" y="271"/>
    </contour>
  </outline>
</glyph>
<glyph name="e" format="1">
  <advance width="496"/>
  <unicode hex="0065"/>
  <outline>
    <contour>
      <point x="46" y="242" type="curve" smooth="yes"/>
      <point x="46" y="282"/>
      <point x="52.1667" y="317.833"/>
      <point x="64.5" y="349.5" type="curve" smooth="yes"/>
      <point x="76.8333" y="381.167"/>
      <point x="93.1667" y="408"/>
      <point x="113.5" y="430" type="curve" smooth="yes"/>
      <point x="133.833" y="452"/>
      <point x="157" y="468.833"/>
      <point x="183" y="480.5" type="curve" smooth="yes"/>
      <point x="209" y="492.167"/>
      <point x="236" y="498"/>
      <point x="264" y="498" type="curve" smooth="yes"/>
      <point x="294.667" y="498"/>
      <point x="322.167" y="492.667"/>
      <point x="346.5" y="482" type="curve" smooth="yes"/>
      <point x="370.833" y="471.333"/>
      <point x="391.167" y="456"/>
      <point x="407.5" y="436" type="curve" smooth="yes"/>
      <point x="423.833" y="416"/>
      <point x="436.333" y="392"/>
      <point x="445" y="364" type="curve" smooth="yes"/>
      <point x="453.667" y="336"/>
      <point x="458" y="304.667"/>
      <point x="458" y="270" type="curve" smooth="yes"/>
      <point x="458" y="252"/>
      <point x="457" y="237"/>
      <point x="455" y="225" type="curve"/>
      <point x="127" y="225" type="line"/>
      <point x="130.333" y="172.333"/>
      <point x="146.5" y="130.667"/>
      <point x="175.5" y="100" type="curve" smooth="yes"/>
      <point x="204.5" y="69.3333"/>
      <point x="242.333" y="54"/>
      <point x="289" y="54" type="curve" smooth="yes"/>
      <point x="312.333" y="54"/>
      <point x="333.833" y="57.5"/>
      <point x="353.5" y="64.5" type="curve" smooth="yes"/>
      <point x="373.167" y="71.5"/>
      <point x="392" y="80.6667"/>
      <point x="410" y="92" type="curve"/>
      <point x="439" y="38" type="line"/>
      <point x="417.667" y="24.6667"/>
      <point x="394" y="13"/>
      <point x="368" y="3" type="curve" smooth="yes"/>
      <point x="342" y="-7"/>
      <point x="312.333" y="-12"/>
      <point x="279" y="-12" type="curve" smooth="yes"/>
      <point x="246.333" y="-12"/>
      <point x="215.833" y="-6.16667"/>
      <point x="187.5" y="5.5" type="curve" smooth="yes"/>
      <point x="159.167" y="17.1667"/>
      <point x="134.5" y="33.8333"/>
      <point x="113.5" y="55.5" type="curve" smooth="yes"/>
      <point x="92.5" y="77.1667"/>
      <point x="76" y="103.667"/>
      <point x="64" y="135" type="curve" smooth="yes"/>
      <point x="52" y="166.333"/>
      <point x="46" y="202"/>
    </contour>
    <contour>
      <point x="386" y="279" type="line"/>
      <point x="386" y="329"/>
      <point x="375.5" y="367.167"/>
      <point x="354.5" y="393.5" type="curve" smooth="yes"/>
      <point x="333.5" y="419.833"/>
      <point x="304" y="433"/>
      <point x="266" y="433" type="curve" smooth="yes"/>
      <point x="248.667" y="433"/>
      <point x="232.167" y="429.5"/>
      <point x="216.5" y="422.5" type="curve" smooth="yes"/>
      <point x="200.833" y="415.5"/>
      <point x="186.667" y="405.5"/>
      <point x="174" y="392.5" type="curve" smooth="yes"/>
      <point x="161.333" y="379.5"/>
      <point x="150.833" y="363.5"/>
      <point x="142.5" y="344.5" type="curve" smooth="yes"/>
      <point x="134.167" y="325.5"/>
      <point x="128.667" y="303.667"/>
      <point x="126" y="279" type="curve"/>
    </contour>
    <contour>
      <point x="264" y="508" type="move" name="Anchor-0"/>
    </contour>
    <contour>
      <point x="262" y="-22" type="move" name="Anchor-2"/>
    </contour>
    <contour>
      <point x="389" y="0" type="move" name="Anchor-4"/>
    </contour>
  </outline>
</glyph>
<glyph name="f" format="1">
  <advance width="292"/>
  <unicode hex="0066"/>
  <outline>
    <contour>
      <point x="137" y="-22" type="move" name="Anchor-2"/>
    </contour>
    <contour>
      <point x="219" y="740" type="move" name="Anchor-0"/>
    </contour>
    <contour>
      <point x="301" y="645" type="line"/>
      <point x="283" y="653"/>
      <point x="264.667" y="657"/>
      <point x="246" y="657" type="curve" smooth="yes"/>
      <point x="200.667" y="657"/>
      <point x="178" y="625.667"/>
      <point x="178" y="563" type="curve" smooth="yes"/>
      <point x="178" y="486" type="line"/>
      <point x="281" y="486" type="line"/>
      <point x="281" y="419" type="line"/>
      <point x="178" y="419" type="line"/>
      <point x="178" y="0" type="line"/>
      <point x="96" y="0" type="line"/>
      <point x="96" y="419" type="line"/>
      <point x="30" y="419" type="line"/>
      <point x="30" y="481" type="line"/>
      <point x="96" y="486" type="line"/>
      <point x="96" y="563" type="line" smooth="yes"/>
      <point x="96" y="613"/>
      <point x="107.5" y="652.333"/>
      <point x="130.5" y="681" type="curve" smooth="yes"/>
      <point x="153.5" y="709.667"/>
      <point x="189.333" y="724"/>
      <point x="238" y="724" type="curve" smooth="yes"/>
      <point x="253.333" y="724"/>
      <point x="267.833" y="722.5"/>
      <point x="281.5" y="719.5" type="curve" smooth="yes"/>
      <point x="295.167" y="716.5"/>
      <point x="307.667" y="712.667"/>
      <point x="319" y="708" type="curve"/>
    </contour>
  </outline>
</glyph>
<glyph name="g" format="1">
  <advance width="504"/>
  <unicode hex="0067"/>
  <outline>
    <contour>
      <point x="250" y="-230" type="move" name="Anchor-2"/>
    </contour>
    <contour>
      <point x="258" y="508" type="move" name="Anchor-0"/>
    </contour>
    <contour>
      <point x="117" y="-82" type="curve" smooth="yes"/>
      <point x="117" y="-108"/>
      <point x="129.5" y="-128.667"/>
      <point x="154.5" y="-144" type="curve" smooth="yes"/>
      <point x="179.5" y="-159.333"/>
      <point x="214" y="-167"/>
      <point x="258" y="-167" type="curve" smooth="yes"/>
      <point x="281.333" y="-167"/>
      <point x="302.5" y="-164.167"/>
      <point x="321.5" y="-158.5" type="curve" smooth="yes"/>
      <point x="340.5" y="-152.833"/>
      <point x="356.667" y="-145.5"/>
      <point x="370" y="-136.5" type="curve" smooth="yes"/>
      <point x="383.333" y="-127.5"/>
      <point x="393.667" y="-117"/>
      <point x="401" y="-105" type="curve" smooth="yes"/>
      <point x="408.333" y="-93"/>
      <point x="412" y="-80.6667"/>
      <point x="412" y="-68" type="curve" smooth="yes"/>
      <point x="412" y="-45.3333"/>
      <point x="403.667" y="-29.6667"/>
      <point x="387" y="-21" type="curve" smooth="yes"/>
      <point x="370.333" y="-12.3333"/>
      <point x="346" y="-8"/>
      <point x="314" y="-8" type="curve" smooth="yes"/>
      <point x="230" y="-8" type="line" smooth="yes"/>
      <point x="220.667" y="-8"/>
      <point x="210.5" y="-7.5"/>
      <point x="199.5" y="-6.5" type="curve" smooth="yes"/>
      <point x="188.5" y="-5.5"/>
      <point x="177.667" y="-3.33333"/>
      <point x="167" y="0" type="curve"/>
      <point x="149.667" y="-12.6667"/>
      <point x="137" y="-26"/>
      <point x="129" y="-40" type="curve" smooth="yes"/>
      <point x="121" y="-54"/>
      <point x="117" y="-68"/>
    </contour>
    <contour>
      <point x="45" y="-93" type="curve" smooth="yes"/>
      <point x="45" y="-72.3333"/>
      <point x="51.3333" y="-52.6667"/>
      <point x="64" y="-34" type="curve" smooth="yes"/>
      <point x="76.6667" y="-15.3333"/>
      <point x="94" y="1.66667"/>
      <point x="116" y="17" type="curve"/>
      <point x="116" y="21" type="line"/>
      <point x="104" y="28.3333"/>
      <point x="93.8333" y="38.5"/>
      <point x="85.5" y="51.5" type="curve" smooth="yes"/>
      <point x="77.1667" y="64.5"/>
      <point x="73" y="80.6667"/>
      <point x="73" y="100" type="curve" smooth="yes"/>
      <point x="73" y="120.667"/>
      <point x="78.6667" y="138.667"/>
      <point x="90" y="154" type="curve" smooth="yes"/>
      <point x="101.333" y="169.333"/>
      <point x="113.333" y="181.333"/>
      <point x="126" y="190" type="curve"/>
      <point x="126" y="194" type="line"/>
      <point x="110" y="207.333"/>
      <point x="95.5" y="225.167"/>
      <point x="82.5" y="247.5" type="curve" smooth="yes"/>
      <point x="69.5" y="269.833"/>
      <point x="63" y="295.667"/>
      <point x="63" y="325" type="curve" smooth="yes"/>
      <point x="63" y="351.667"/>
      <point x="67.8333" y="375.667"/>
      <point x="77.5" y="397" type="curve" smooth="yes"/>
      <point x="87.1667" y="418.333"/>
      <point x="100.333" y="436.5"/>
      <point x="117" y="451.5" type="curve" smooth="yes"/>
      <point x="133.667" y="466.5"/>
      <point x="153.167" y="478"/>
      <point x="175.5" y="486" type="curve" smooth="yes"/>
      <point x="197.833" y="494"/>
      <point x="221.333" y="498"/>
      <point x="246" y="498" type="curve" smooth="yes"/>
      <point x="259.333" y="498"/>
      <point x="271.833" y="496.833"/>
      <point x="283.5" y="494.5" type="curve" smooth="yes"/>
      <point x="295.167" y="492.167"/>
      <point x="305.667" y="489.333"/>
      <point x="315" y="486" type="curve"/>
      <point x="484" y="486" type="line"/>
      <point x="484" y="423" type="line"/>
      <point x="384" y="423" type="line"/>
      <point x="395.333" y="411.667"/>
      <point x="404.833" y="397.333"/>
      <point x="412.5" y="380" type="curve" smooth="yes"/>
      <point x="420.167" y="362.667"/>
      <point x="424" y="343.667"/>
      <point x="424" y="323" type="curve" smooth="yes"/>
      <point x="424" y="297"/>
      <point x="419.333" y="273.5"/>
      <point x="410" y="252.5" type="curve" smooth="yes"/>
      <point x="400.667" y="231.5"/>
      <point x="388" y="213.833"/>
      <point x="372" y="199.5" type="curve" smooth="yes"/>
      <point x="356" y="185.167"/>
      <point x="337.167" y="174"/>
      <point x="315.5" y="166" type="curve" smooth="yes"/>
      <point x="293.833" y="158"/>
      <point x="270.667" y="154"/>
      <point x="246" y="154" type="curve" smooth="yes"/>
      <point x="234" y="154"/>
      <point x="221.667" y="155.5"/>
      <point x="209" y="158.5" type="curve" smooth="yes"/>
      <point x="196.333" y="161.5"/>
      <point x="184.333" y="165.667"/>
      <point x="173" y="171" type="curve"/>
      <point x="164.333" y="163.667"/>
      <point x="157" y="155.5"/>
      <point x="151" y="146.5" type="curve" smooth="yes"/>
      <point x="145" y="137.5"/>
      <point x="142" y="126.333"/>
      <point x="142" y="113" type="curve" smooth="yes"/>
      <point x="142" y="97.6667"/>
      <point x="148" y="85"/>
      <point x="160" y="75" type="curve" smooth="yes"/>
      <point x="172" y="65"/>
      <point x="194.667" y="60"/>
      <point x="228" y="60" type="curve" smooth="yes"/>
      <point x="322" y="60" type="line" smooth="yes"/>
      <point x="378.667" y="60"/>
      <point x="421.167" y="50.8333"/>
      <point x="449.5" y="32.5" type="curve" smooth="yes"/>
      <point x="477.833" y="14.1667"/>
      <point x="492" y="-15.3333"/>
      <point x="492" y="-56" type="curve" smooth="yes"/>
      <point x="492" y="-78.6667"/>
      <point x="486.333" y="-100.167"/>
      <point x="475" y="-120.5" type="curve" smooth="yes"/>
      <point x="463.667" y="-140.833"/>
      <point x="447.333" y="-158.667"/>
      <point x="426" y="-174" type="curve" smooth="yes"/>
      <point x="404.667" y="-189.333"/>
      <point x="378.833" y="-201.5"/>
      <point x="348.5" y="-210.5" type="curve" smooth="yes"/>
      <point x="318.167" y="-219.5"/>
      <point x="284" y="-224"/>
      <point x="246" y="-224" type="curve" smooth="yes"/>
      <point x="216" y="-224"/>
      <point x="188.667" y="-221.167"/>
      <point x="164" y="-215.5" type="curve" smooth="yes"/>
      <point x="139.333" y="-209.833"/>
      <point x="118.167" y="-201.333"/>
      <point x="100.5" y="-190" type="curve" smooth="yes"/>
      <point x="82.8333" y="-178.667"/>
      <point x="69.1667" y="-165"/>
      <point x="59.5" y="-149" type="curve" smooth="yes"/>
      <point x="49.8333" y="-133"/>
      <point x="45" y="-114.333"/>
    </contour>
    <contour>
      <point x="246" y="209" type="curve" smooth="yes"/>
      <point x="260" y="209"/>
      <point x="273.167" y="211.667"/>
      <point x="285.5" y="217" type="curve" smooth="yes"/>
      <point x="297.833" y="222.333"/>
      <point x="308.833" y="230"/>
      <point x="318.5" y="240" type="curve" smooth="yes"/>
      <point x="328.167" y="250"/>
      <point x="335.667" y="262.167"/>
      <point x="341" y="276.5" type="curve" smooth="yes"/>
      <point x="346.333" y="290.833"/>
      <point x="349" y="307"/>
      <point x="349" y="325" type="curve" smooth="yes"/>
      <point x="349" y="361"/>
      <point x="339" y="388.833"/>
      <point x="319" y="408.5" type="curve" smooth="yes"/>
      <point x="299" y="428.167"/>
      <point x="274.667" y="438"/>
      <point x="246" y="438" type="curve" smooth="yes"/>
      <point x="217.333" y="438"/>
      <point x="193" y="428.167"/>
      <point x="173" y="408.5" type="curve" smooth="yes"/>
      <point x="153" y="388.833"/>
      <point x="143" y="361"/>
      <point x="143" y="325" type="curve" smooth="yes"/>
      <point x="143" y="307"/>
      <point x="145.667" y="290.833"/>
      <point x="151" y="276.5" type="curve" smooth="yes"/>
      <point x="156.333" y="262.167"/>
      <point x="163.833" y="250"/>
      <point x="173.5" y="240" type="curve" smooth="yes"/>
      <point x="183.167" y="230"/>
      <point x="194.167" y="222.333"/>
      <point x="206.5" y="217" type="curve" smooth="yes"/>
      <point x="218.833" y="211.667"/>
      <point x="232" y="209"/>
    </contour>
  </outline>
</glyph>
<glyph name="i" format="1">
  <advance width="246"/>
  <unicode hex="0069"/>
  <outline>
    <contour>
      <point x="124" y="586" type="curve" smooth="yes"/>
      <point x="108" y="586"/>
      <point x="94.5" y="591"/>
      <point x="83.5" y="601" type="curve" smooth="yes"/>
      <point x="72.5" y="611"/>
      <point x="67" y="623.667"/>
      <point x="67" y="639" type="curve" smooth="yes"/>
      <point x="67" y="655"/>
      <point x="72.5" y="667.833"/>
      <point x="83.5" y="677.5" type="curve" smooth="yes"/>
      <point x="94.5" y="687.167"/>
      <point x="108" y="692"/>
      <point x="124" y="692" type="curve" smooth="yes"/>
      <point x="140" y="692"/>
      <point x="153.5" y="687.167"/>
      <point x="164.5" y="677.5" type="curve" smooth="yes"/>
      <point x="175.5" y="667.833"/>
      <point x="181" y="655"/>
      <point x="181" y="639" type="curve" smooth="yes"/>
      <point x="181" y="623.667"/>
      <point x="175.5" y="611"/>
      <point x="164.5" y="601" type="curve" smooth="yes"/>
      <point x="153.5" y="591"/>
      <point x="140" y="586"/>
    </contour>
    <contour>
      <point x="82" y="486" type="line"/>
      <point x="164" y="486" type="line"/>
      <point x="164" y="0" type="line"/>
      <point x="82" y="0" type="line"/>
    </contour>
    <contour>
      <point x="123" y="694" type="move" name="Anchor-0"/>
    </contour>
    <contour>
      <point x="123" y="-22" type="move" name="Anchor-2"/>
    </contour>
    <contour>
      <point x="152" y="0" type="move" name="Anchor-4"/>
    </contour>
  </outline>
</glyph>
<glyph name="j" format="1">
  <advance width="247"/>
  <unicode hex="006A"/>
  <outline>
    <contour>
      <point x="83" y="486" type="line"/>
      <point x="165" y="486" type="line"/>
      <point x="165" y="-55" type="line" smooth="yes"/>
      <point x="165" y="-104.333"/>
      <point x="155" y="-143.667"/>
      <point x="135" y="-173" type="curve" smooth="yes"/>
      <point x="115" y="-202.333"/>
      <point x="80.6667" y="-217"/>
      <point x="32" y="-217" type="curve" smooth="yes"/>
      <point x="16.6667" y="-217"/>
      <point x="3" y="-215.667"/>
      <point x="-9" y="-213" type="curve" smooth="yes"/>
      <point x="-21" y="-210.333"/>
      <point x="-31.3333" y="-207.333"/>
      <point x="-40" y="-204" type="curve"/>
      <point x="-23" y="-142" type="line"/>
      <point x="-17" y="-144"/>
      <point x="-10" y="-145.833"/>
      <point x="-2" y="-147.5" type="curve" smooth="yes"/>
      <point x="6" y="-149.167"/>
      <point x="14.3333" y="-150"/>
      <point x="23" y="-150" type="curve" smooth="yes"/>
      <point x="47" y="-150"/>
      <point x="63" y="-141.667"/>
      <point x="71" y="-125" type="curve" smooth="yes"/>
      <point x="79" y="-108.333"/>
      <point x="83" y="-85"/>
      <point x="83" y="-55" type="curve" smooth="yes"/>
    </contour>
    <contour>
      <point x="125" y="586" type="curve" smooth="yes"/>
      <point x="109" y="586"/>
      <point x="95.5" y="591"/>
      <point x="84.5" y="601" type="curve" smooth="yes"/>
      <point x="73.5" y="611"/>
      <point x="68" y="623.667"/>
      <point x="68" y="639" type="curve" smooth="yes"/>
      <point x="68" y="655"/>
      <point x="73.5" y="667.833"/>
      <point x="84.5" y="677.5" type="curve" smooth="yes"/>
      <point x="95.5" y="687.167"/>
      <point x="109" y="692"/>
      <point x="125" y="692" type="curve" smooth="yes"/>
      <point x="140.333" y="692"/>
      <point x="153.5" y="687.167"/>
      <point x="164.5" y="677.5" type="curve" smooth="yes"/>
      <point x="175.5" y="667.833"/>
      <point x="181" y="655"/>
      <point x="181" y="639" type="curve" smooth="yes"/>
      <point x="181" y="623.667"/>
      <point x="175.5" y="611"/>
      <point x="164.5" y="601" type="curve" smooth="yes"/>
      <point x="153.5" y="591"/>
      <point x="140.333" y="586"/>
    </contour>
    <contour>
      <point x="125" y="694" type="move" name="Anchor-0"/>
    </contour>
    <contour>
      <point x="59" y="-231" type="move" name="Anchor-2"/>
    </contour>
  </outline>
</glyph>
<glyph name="l" format="1">
  <advance width="255"/>
  <unicode hex="006C"/>
  <outline>
    <contour>
      <point x="82" y="712" type="line"/>
      <point x="164" y="712" type="line"/>
      <point x="164" y="92" type="line" smooth="yes"/>
      <point x="164" y="78.6667"/>
      <point x="166.333" y="69.3333"/>
      <point x="171" y="64" type="curve" smooth="yes"/>
      <point x="175.667" y="58.6667"/>
      <point x="181" y="56"/>
      <point x="187" y="56" type="curve" smooth="yes"/>
      <point x="191" y="56"/>
      <point x="191" y="56"/>
      <point x="194.5" y="56" type="curve" smooth="yes"/>
      <point x="196.833" y="56"/>
      <point x="200.333" y="56.6667"/>
      <point x="205" y="58" type="curve"/>
      <point x="216" y="-4" type="line"/>
      <point x="210.667" y="-6.66667"/>
      <point x="204.333" y="-8.66667"/>
      <point x="197" y="-10" type="curve" smooth="yes"/>
      <point x="189.667" y="-11.3333"/>
      <point x="180.333" y="-12"/>
      <point x="169" y="-12" type="curve" smooth="yes"/>
      <point x="137.667" y="-12"/>
      <point x="115.333" y="-2.66667"/>
      <point x="102" y="16" type="curve" smooth="yes"/>
      <point x="88.6667" y="34.6667"/>
      <point x="82" y="62"/>
      <point x="82" y="98" type="curve" smooth="yes"/>
    </contour>
    <contour>
      <point x="122" y="730" type="move" name="Anchor-0"/>
    </contour>
    <contour>
      <point x="122" y="-22" type="move" name="Anchor-2"/>
    </contour>
  </outline>
</glyph>
<glyph name="m" format="1">
  <advance width="829"/>
  <unicode hex="006D"/>
  <outline>
    <contour>
      <point x="425" y="-22" type="move" name="Anchor-2"/>
    </contour>
    <contour>
      <point x="419" y="508" type="move" name="Anchor-0"/>
    </contour>
    <contour>
      <point x="82" y="486" type="line"/>
      <point x="150" y="486" type="line"/>
      <point x="157" y="416" type="line"/>
      <point x="160" y="416" type="line"/>
      <point x="181.333" y="439.333"/>
      <point x="204.5" y="458.833"/>
      <point x="229.5" y="474.5" type="curve" smooth="yes"/>
      <point x="254.5" y="490.167"/>
      <point x="281.667" y="498"/>
      <point x="311" y="498" type="curve" smooth="yes"/>
      <point x="348.333" y="498"/>
      <point x="377.5" y="489.833"/>
      <point x="398.5" y="473.5" type="curve" smooth="yes"/>
      <point x="419.5" y="457.167"/>
      <point x="435" y="434.333"/>
      <point x="445" y="405" type="curve"/>
      <point x="470.333" y="433"/>
      <point x="495.833" y="455.5"/>
      <point x="521.5" y="472.5" type="curve" smooth="yes"/>
      <point x="547.167" y="489.5"/>
      <point x="575" y="498"/>
      <point x="605" y="498" type="curve" smooth="yes"/>
      <point x="655" y="498"/>
      <point x="692.167" y="482"/>
      <point x="716.5" y="450" type="curve" smooth="yes"/>
      <point x="740.833" y="418"/>
      <point x="753" y="370.667"/>
      <point x="753" y="308" type="curve" smooth="yes"/>
      <point x="753" y="0" type="line"/>
      <point x="671" y="0" type="line"/>
      <point x="671" y="297" type="line" smooth="yes"/>
      <point x="671" y="343"/>
      <point x="663.667" y="376.167"/>
      <point x="649" y="396.5" type="curve" smooth="yes"/>
      <point x="634.333" y="416.833"/>
      <point x="611.667" y="427"/>
      <point x="581" y="427" type="curve" smooth="yes"/>
      <point x="544.333" y="427"/>
      <point x="503.667" y="402"/>
      <point x="459" y="352" type="curve"/>
      <point x="459" y="0" type="line"/>
      <point x="377" y="0" type="line"/>
      <point x="377" y="297" type="line" smooth="yes"/>
      <point x="377" y="343"/>
      <point x="369.667" y="376.167"/>
      <point x="355" y="396.5" type="curve" smooth="yes"/>
      <point x="340.333" y="416.833"/>
      <point x="317.333" y="427"/>
      <point x="286" y="427" type="curve" smooth="yes"/>
      <point x="249.333" y="427"/>
      <point x="208.667" y="402"/>
      <point x="164" y="352" type="curve"/>
      <point x="164" y="0" type="line"/>
      <point x="82" y="0" type="line"/>
    </contour>
  </outline>
</glyph>
<glyph name="n" format="1">
  <advance width="547"/>
  <unicode hex="006E"/>
  <outline>
    <contour>
      <point x="278" y="-22" type="move" name="Anchor-2"/>
    </contour>
    <contour>
      <point x="291" y="508" type="move" name="Anchor-0"/>
    </contour>
    <contour>
      <point x="82" y="486" type="line"/>
      <point x="150" y="486" type="line"/>
      <point x="157" y="416" type="line"/>
      <point x="160" y="416" type="line"/>
      <point x="183.333" y="439.333"/>
      <point x="207.833" y="458.833"/>
      <point x="233.5" y="474.5" type="curve" smooth="yes"/>
      <point x="259.167" y="490.167"/>
      <point x="289" y="498"/>
      <point x="323" y="498" type="curve" smooth="yes"/>
      <point x="374.333" y="498"/>
      <point x="411.833" y="482"/>
      <point x="435.5" y="450" type="curve" smooth="yes"/>
      <point x="459.167" y="418"/>
      <point x="471" y="370.667"/>
      <point x="471" y="308" type="curve" smooth="yes"/>
      <point x="471" y="0" type="line"/>
      <point x="389" y="0" type="line"/>
      <point x="389" y="297" type="line" smooth="yes"/>
      <point x="389" y="343"/>
      <point x="381.667" y="376.167"/>
      <point x="367" y="396.5" type="curve" smooth="yes"/>
      <point x="352.333" y="416.833"/>
      <point x="329" y="427"/>
      <point x="297" y="427" type="curve" smooth="yes"/>
      <point x="271.667" y="427"/>
      <point x="249.333" y="420.667"/>
      <point x="230" y="408" type="curve" smooth="yes"/>
      <point x="210.667" y="395.333"/>
      <point x="188.667" y="376.667"/>
      <point x="164" y="352" type="curve"/>
      <point x="164" y="0" type="line"/>
      <point x="82" y="0" type="line"/>
    </contour>
  </outline>
</glyph>
<glyph name="o" format="1">
  <advance width="542"/>
  <unicode hex="006F"/>
  <outline>
    <contour>
      <point x="46" y="242" type="curve" smooth="yes"/>
      <point x="46" y="282.667"/>
      <point x="52.1667" y="318.833"/>
      <point x="64.5" y="350.5" type="curve" smooth="yes"/>
      <point x="76.8333" y="382.167"/>
      <point x="93.3333" y="409"/>
      <point x="114" y="431" type="curve" smooth="yes"/>
      <point x="134.667" y="453"/>
      <point x="158.5" y="469.667"/>
      <point x="185.5" y="481" type="curve" smooth="yes"/>
      <point x="212.5" y="492.333"/>
      <point x="241" y="498"/>
      <point x="271" y="498" type="curve" smooth="yes"/>
      <point x="301" y="498"/>
      <point x="329.5" y="492.333"/>
      <point x="356.5" y="481" type="curve" smooth="yes"/>
      <point x="383.5" y="469.667"/>
      <point x="407.333" y="453"/>
      <point x="428" y="431" type="curve" smooth="yes"/>
      <point x="448.667" y="409"/>
      <point x="465.167" y="382.167"/>
      <point x="477.5" y="350.5" type="curve" smooth="yes"/>
      <point x="489.833" y="318.833"/>
      <point x="496" y="282.667"/>
      <point x="496" y="242" type="curve" smooth="yes"/>
      <point x="496" y="202"/>
      <point x="489.833" y="166.167"/>
      <point x="477.5" y="134.5" type="curve" smooth="yes"/>
      <point x="465.167" y="102.833"/>
      <point x="448.667" y="76.1667"/>
      <point x="428" y="54.5" type="curve" smooth="yes"/>
      <point x="407.333" y="32.8333"/>
      <point x="383.5" y="16.3333"/>
      <point x="356.5" y="5" type="curve" smooth="yes"/>
      <point x="329.5" y="-6.33333"/>
      <point x="301" y="-12"/>
      <point x="271" y="-12" type="curve" smooth="yes"/>
      <point x="241" y="-12"/>
      <point x="212.5" y="-6.33333"/>
      <point x="185.5" y="5" type="curve" smooth="yes"/>
      <point x="158.5" y="16.3333"/>
      <point x="134.667" y="32.8333"/>
      <point x="114" y="54.5" type="curve" smooth="yes"/>
      <point x="93.3333" y="76.1667"/>
      <point x="76.8333" y="102.833"/>
      <point x="64.5" y="134.5" type="curve" smooth="yes"/>
      <point x="52.1667" y="166.167"/>
      <point x="46" y="202"/>
    </contour>
    <contour>
      <point x="131" y="242" type="curve" smooth="yes"/>
      <point x="131" y="214"/>
      <point x="134.333" y="188.667"/>
      <point x="141" y="166" type="curve" smooth="yes"/>
      <point x="147.667" y="143.333"/>
      <point x="157.167" y="123.833"/>
      <point x="169.5" y="107.5" type="curve" smooth="yes"/>
      <point x="181.833" y="91.1667"/>
      <point x="196.667" y="78.5"/>
      <point x="214" y="69.5" type="curve" smooth="yes"/>
      <point x="231.333" y="60.5"/>
      <point x="250.333" y="56"/>
      <point x="271" y="56" type="curve" smooth="yes"/>
      <point x="291.667" y="56"/>
      <point x="310.667" y="60.5"/>
      <point x="328" y="69.5" type="curve" smooth="yes"/>
      <point x="345.333" y="78.5"/>
      <point x="360.167" y="91.1667"/>
      <point x="372.5" y="107.5" type="curve" smooth="yes"/>
      <point x="384.833" y="123.833"/>
      <point x="394.333" y="143.333"/>
      <point x="401" y="166" type="curve" smooth="yes"/>
      <point x="407.667" y="188.667"/>
      <point x="411" y="214"/>
      <point x="411" y="242" type="curve" smooth="yes"/>
      <point x="411" y="270"/>
      <point x="407.667" y="295.5"/>
      <point x="401" y="318.5" type="curve" smooth="yes"/>
      <point x="394.333" y="341.5"/>
      <point x="384.833" y="361.333"/>
      <point x="372.5" y="378" type="curve" smooth="yes"/>
      <point x="360.167" y="394.667"/>
      <point x="345.333" y="407.5"/>
      <point x="328" y="416.5" type="curve" smooth="yes"/>
      <point x="310.667" y="425.5"/>
      <point x="291.667" y="430"/>
      <point x="271" y="430" type="curve" smooth="yes"/>
      <point x="250.333" y="430"/>
      <point x="231.333" y="425.5"/>
      <point x="214" y="416.5" type="curve" smooth="yes"/>
      <point x="196.667" y="407.5"/>
      <point x="181.833" y="394.667"/>
      <point x="169.5" y="378" type="curve" smooth="yes"/>
      <point x="157.167" y="361.333"/>
      <point x="147.667" y="341.5"/>
      <point x="141" y="318.5" type="curve" smooth="yes"/>
      <point x="134.333" y="295.5"/>
      <point x="131" y="270"/>
    </contour>
    <contour>
      <point x="271" y="508" type="move" name="Anchor-0"/>
    </contour>
    <contour>
      <point x="271" y="-22" type="move" name="Anchor-2"/>
    </contour>
    <contour>
      <point x="364" y="486" type="move" name="Anchor-3"/>
    </contour>
    <contour>
      <point x="320" y="0" type="move" name="Anchor-4"/>
    </contour>
  </outline>
</glyph>
<glyph name="p" format="1">
  <advance width="555"/>
  <unicode hex="0070"/>
  <outline>
    <contour>
      <point x="117" y="-218" type="move" name="Anchor-2"/>
    </contour>
    <contour>
      <point x="291" y="508" type="move" name="Anchor-0"/>
    </contour>
    <contour>
      <point x="164" y="-41" type="line"/>
      <point x="164" y="-205" type="line"/>
      <point x="82" y="-205" type="line"/>
      <point x="82" y="486" type="line"/>
      <point x="150" y="486" type="line"/>
      <point x="157" y="430" type="line"/>
      <point x="160" y="430" type="line"/>
      <point x="182" y="448.667"/>
      <point x="206.167" y="464.667"/>
      <point x="232.5" y="478" type="curve" smooth="yes"/>
      <point x="258.833" y="491.333"/>
      <point x="286.333" y="498"/>
      <point x="315" y="498" type="curve" smooth="yes"/>
      <point x="346.333" y="498"/>
      <point x="374" y="492.167"/>
      <point x="398" y="480.5" type="curve" smooth="yes"/>
      <point x="422" y="468.833"/>
      <point x="442" y="452.167"/>
      <point x="458" y="430.5" type="curve" smooth="yes"/>
      <point x="474" y="408.833"/>
      <point x="486.167" y="382.833"/>
      <point x="494.5" y="352.5" type="curve" smooth="yes"/>
      <point x="502.833" y="322.167"/>
      <point x="507" y="288"/>
      <point x="507" y="250" type="curve" smooth="yes"/>
      <point x="507" y="208.667"/>
      <point x="501.333" y="171.833"/>
      <point x="490" y="139.5" type="curve" smooth="yes"/>
      <point x="478.667" y="107.167"/>
      <point x="463.333" y="79.6667"/>
      <point x="444" y="57" type="curve" smooth="yes"/>
      <point x="424.667" y="34.3333"/>
      <point x="402.333" y="17.1667"/>
      <point x="377" y="5.5" type="curve" smooth="yes"/>
      <point x="351.667" y="-6.16667"/>
      <point x="325" y="-12"/>
      <point x="297" y="-12" type="curve" smooth="yes"/>
      <point x="274.333" y="-12"/>
      <point x="251.833" y="-7"/>
      <point x="229.5" y="3" type="curve" smooth="yes"/>
      <point x="207.167" y="13"/>
      <point x="184.667" y="26.6667"/>
      <point x="162" y="44" type="curve"/>
    </contour>
    <contour>
      <point x="164" y="108" type="line"/>
      <point x="186" y="89.3333"/>
      <point x="207.333" y="76.1667"/>
      <point x="228" y="68.5" type="curve" smooth="yes"/>
      <point x="248.667" y="60.8333"/>
      <point x="267" y="57"/>
      <point x="283" y="57" type="curve" smooth="yes"/>
      <point x="303" y="57"/>
      <point x="321.5" y="61.5"/>
      <point x="338.5" y="70.5" type="curve" smooth="yes"/>
      <point x="355.5" y="79.5"/>
      <point x="370.167" y="92.1667"/>
      <point x="382.5" y="108.5" type="curve" smooth="yes"/>
      <point x="394.833" y="124.833"/>
      <point x="404.5" y="145"/>
      <point x="411.5" y="169" type="curve" smooth="yes"/>
      <point x="418.5" y="193"/>
      <point x="422" y="220"/>
      <point x="422" y="250" type="curve" smooth="yes"/>
      <point x="422" y="276.667"/>
      <point x="419.667" y="301"/>
      <point x="415" y="323" type="curve" smooth="yes"/>
      <point x="410.333" y="345"/>
      <point x="402.833" y="363.833"/>
      <point x="392.5" y="379.5" type="curve" smooth="yes"/>
      <point x="382.167" y="395.167"/>
      <point x="368.833" y="407.333"/>
      <point x="352.5" y="416" type="curve" smooth="yes"/>
      <point x="336.167" y="424.667"/>
      <point x="316.667" y="429"/>
      <point x="294" y="429" type="curve" smooth="yes"/>
      <point x="273.333" y="429"/>
      <point x="252.5" y="423.333"/>
      <point x="231.5" y="412" type="curve" smooth="yes"/>
      <point x="210.5" y="400.667"/>
      <point x="188" y="384.333"/>
      <point x="164" y="363" type="curve"/>
    </contour>
  </outline>
</glyph>
<glyph name="q" format="1">
  <advance width="550"/>
  <unicode hex="0071"/>
  <outline>
    <contour>
      <point x="426" y="-218" type="move" name="Anchor-2"/>
    </contour>
    <contour>
      <point x="278" y="508" type="move" name="Anchor-0"/>
    </contour>
    <contour>
      <point x="47" y="242" type="curve" smooth="yes"/>
      <point x="47" y="281.333"/>
      <point x="52.8333" y="316.833"/>
      <point x="64.5" y="348.5" type="curve" smooth="yes"/>
      <point x="76.1667" y="380.167"/>
      <point x="91.6667" y="407"/>
      <point x="111" y="429" type="curve" smooth="yes"/>
      <point x="130.333" y="451"/>
      <point x="152.667" y="468"/>
      <point x="178" y="480" type="curve" smooth="yes"/>
      <point x="203.333" y="492"/>
      <point x="230" y="498"/>
      <point x="258" y="498" type="curve" smooth="yes"/>
      <point x="286" y="498"/>
      <point x="310.667" y="493.167"/>
      <point x="332" y="483.5" type="curve" smooth="yes"/>
      <point x="353.333" y="473.833"/>
      <point x="375" y="459.333"/>
      <point x="397" y="440" type="curve"/>
      <point x="399" y="440" type="line"/>
      <point x="407" y="486" type="line"/>
      <point x="473" y="486" type="line"/>
      <point x="473" y="-205" type="line"/>
      <point x="390" y="-205" type="line"/>
      <point x="390" y="-32" type="line"/>
      <point x="394" y="54" type="line"/>
      <point x="374.667" y="36"/>
      <point x="352.5" y="20.5"/>
      <point x="327.5" y="7.5" type="curve" smooth="yes"/>
      <point x="302.5" y="-5.5"/>
      <point x="276" y="-12"/>
      <point x="248" y="-12" type="curve" smooth="yes"/>
      <point x="186.667" y="-12"/>
      <point x="137.833" y="10"/>
      <point x="101.5" y="54" type="curve" smooth="yes"/>
      <point x="65.1667" y="98"/>
      <point x="47" y="160.667"/>
    </contour>
    <contour>
      <point x="132" y="243" type="curve" smooth="yes"/>
      <point x="132" y="184.333"/>
      <point x="143.667" y="138.667"/>
      <point x="167" y="106" type="curve" smooth="yes"/>
      <point x="190.333" y="73.3333"/>
      <point x="223.333" y="57"/>
      <point x="266" y="57" type="curve" smooth="yes"/>
      <point x="288.667" y="57"/>
      <point x="310" y="62.5"/>
      <point x="330" y="73.5" type="curve" smooth="yes"/>
      <point x="350" y="84.5"/>
      <point x="370" y="101.333"/>
      <point x="390" y="124" type="curve"/>
      <point x="390" y="378" type="line"/>
      <point x="369.333" y="396.667"/>
      <point x="349.5" y="409.833"/>
      <point x="330.5" y="417.5" type="curve" smooth="yes"/>
      <point x="311.5" y="425.167"/>
      <point x="292" y="429"/>
      <point x="272" y="429" type="curve" smooth="yes"/>
      <point x="252.667" y="429"/>
      <point x="234.5" y="424.5"/>
      <point x="217.5" y="415.5" type="curve" smooth="yes"/>
      <point x="200.5" y="406.5"/>
      <point x="185.667" y="393.833"/>
      <point x="173" y="377.5" type="curve" smooth="yes"/>
      <point x="160.333" y="361.167"/>
      <point x="150.333" y="341.667"/>
      <point x="143" y="319" type="curve" smooth="yes"/>
      <point x="135.667" y="296.333"/>
      <point x="132" y="271"/>
    </contour>
  </outline>
</glyph>
<glyph name="r" format="1">
  <advance width="347"/>
  <unicode hex="0072"/>
  <outline>
    <contour>
      <point x="82" y="486" type="line"/>
      <point x="150" y="486" type="line"/>
      <point x="157" y="398" type="line"/>
      <point x="160" y="398" type="line"/>
      <point x="176.667" y="428.667"/>
      <point x="196.833" y="453"/>
      <point x="220.5" y="471" type="curve" smooth="yes"/>
      <point x="244.167" y="489"/>
      <point x="270" y="498"/>
      <point x="298" y="498" type="curve" smooth="yes"/>
      <point x="317.333" y="498"/>
      <point x="334.667" y="494.667"/>
      <point x="350" y="488" type="curve"/>
      <point x="334" y="416" type="line"/>
      <point x="326" y="418.667"/>
      <point x="318.667" y="420.667"/>
      <point x="312" y="422" type="curve" smooth="yes"/>
      <point x="305.333" y="423.333"/>
      <point x="297" y="424"/>
      <point x="287" y="424" type="curve" smooth="yes"/>
      <point x="266.333" y="424"/>
      <point x="244.833" y="415.667"/>
      <point x="222.5" y="399" type="curve" smooth="yes"/>
      <point x="200.167" y="382.333"/>
      <point x="180.667" y="353.333"/>
      <point x="164" y="312" type="curve"/>
      <point x="164" y="0" type="line"/>
      <point x="82" y="0" type="line"/>
    </contour>
    <contour>
      <point x="216" y="508" type="move" name="Anchor-0"/>
    </contour>
    <contour>
      <point x="123" y="-22" type="move" name="Anchor-2"/>
    </contour>
  </outline>
</glyph>
<glyph name="s" format="1">
  <advance width="419"/>
  <unicode hex="0073"/>
  <outline>
    <contour>
      <point x="69" y="110" type="line"/>
      <point x="90.3333" y="92.6667"/>
      <point x="112.167" y="78.6667"/>
      <point x="134.5" y="68" type="curve" smooth="yes"/>
      <point x="156.833" y="57.3333"/>
      <point x="182.667" y="52"/>
      <point x="212" y="52" type="curve" smooth="yes"/>
      <point x="244" y="52"/>
      <point x="268" y="59.3333"/>
      <point x="284" y="74" type="curve" smooth="yes"/>
      <point x="300" y="88.6667"/>
      <point x="308" y="106.667"/>
      <point x="308" y="128" type="curve" smooth="yes"/>
      <point x="308" y="140.667"/>
      <point x="304.667" y="151.667"/>
      <point x="298" y="161" type="curve" smooth="yes"/>
      <point x="291.333" y="170.333"/>
      <point x="282.833" y="178.5"/>
      <point x="272.5" y="185.5" type="curve" smooth="yes"/>
      <point x="262.167" y="192.5"/>
      <point x="250.333" y="198.667"/>
      <point x="237" y="204" type="curve" smooth="yes"/>
      <point x="217" y="212"/>
      <point x="217" y="212"/>
      <point x="197" y="220" type="curve"/>
      <point x="179.667" y="226"/>
      <point x="162.333" y="232.833"/>
      <point x="145" y="240.5" type="curve" smooth="yes"/>
      <point x="127.667" y="248.167"/>
      <point x="112.167" y="257.5"/>
      <point x="98.5" y="268.5" type="curve" smooth="yes"/>
      <point x="84.8333" y="279.5"/>
      <point x="73.6667" y="292.333"/>
      <point x="65" y="307" type="curve" smooth="yes"/>
      <point x="56.3333" y="321.667"/>
      <point x="52" y="339.333"/>
      <point x="52" y="360" type="curve" smooth="yes"/>
      <point x="52" y="379.333"/>
      <point x="55.8333" y="397.5"/>
      <point x="63.5" y="414.5" type="curve" smooth="yes"/>
      <point x="71.1667" y="431.5"/>
      <point x="82.1667" y="446.167"/>
      <point x="96.5" y="458.5" type="curve" smooth="yes"/>
      <point x="110.833" y="470.833"/>
      <point x="128.333" y="480.5"/>
      <point x="149" y="487.5" type="curve" smooth="yes"/>
      <point x="169.667" y="494.5"/>
      <point x="193" y="498"/>
      <point x="219" y="498" type="curve" smooth="yes"/>
      <point x="249.667" y="498"/>
      <point x="277.833" y="492.667"/>
      <point x="303.5" y="482" type="curve" smooth="yes"/>
      <point x="329.167" y="471.333"/>
      <point x="351.333" y="458.333"/>
      <point x="370" y="443" type="curve"/>
      <point x="331" y="391" type="line"/>
      <point x="314.333" y="403.667"/>
      <point x="297" y="414"/>
      <point x="279" y="422" type="curve" smooth="yes"/>
      <point x="261" y="430"/>
      <point x="241.333" y="434"/>
      <point x="220" y="434" type="curve" smooth="yes"/>
      <point x="189.333" y="434"/>
      <point x="166.833" y="427"/>
      <point x="152.5" y="413" type="curve" smooth="yes"/>
      <point x="138.167" y="399"/>
      <point x="131" y="382.667"/>
      <point x="131" y="364" type="curve" smooth="yes"/>
      <point x="131" y="352.667"/>
      <point x="134" y="342.833"/>
      <point x="140" y="334.5" type="curve" smooth="yes"/>
      <point x="146" y="326.167"/>
      <point x="154" y="318.833"/>
      <point x="164" y="312.5" type="curve" smooth="yes"/>
      <point x="174" y="306.167"/>
      <point x="185.5" y="300.5"/>
      <point x="198.5" y="295.5" type="curve" smooth="yes"/>
      <point x="211.5" y="290.5"/>
      <point x="225" y="285.333"/>
      <point x="239" y="280" type="curve" smooth="yes"/>
      <point x="256.333" y="273.333"/>
      <point x="273.833" y="266.333"/>
      <point x="291.5" y="259" type="curve" smooth="yes"/>
      <point x="309.167" y="251.667"/>
      <point x="325" y="242.5"/>
      <point x="339" y="231.5" type="curve" smooth="yes"/>
      <point x="353" y="220.5"/>
      <point x="364.5" y="207"/>
      <point x="373.5" y="191" type="curve" smooth="yes"/>
      <point x="382.5" y="175"/>
      <point x="387" y="155.667"/>
      <point x="387" y="133" type="curve" smooth="yes"/>
      <point x="387" y="113"/>
      <point x="383.167" y="94.3333"/>
      <point x="375.5" y="77" type="curve" smooth="yes"/>
      <point x="367.833" y="59.6667"/>
      <point x="356.5" y="44.3333"/>
      <point x="341.5" y="31" type="curve" smooth="yes"/>
      <point x="326.5" y="17.6667"/>
      <point x="307.833" y="7.16667"/>
      <point x="285.5" y="-0.5" type="curve" smooth="yes"/>
      <point x="263.167" y="-8.16667"/>
      <point x="237.667" y="-12"/>
      <point x="209" y="-12" type="curve" smooth="yes"/>
      <point x="174.333" y="-12"/>
      <point x="141.333" y="-5.66667"/>
      <point x="110" y="7" type="curve" smooth="yes"/>
      <point x="78.6667" y="19.6667"/>
      <point x="51.3333" y="35.6667"/>
      <point x="28" y="55" type="curve"/>
    </contour>
    <contour>
      <point x="219" y="508" type="move" name="Anchor-0"/>
    </contour>
    <contour>
      <point x="223" y="0" type="move" name="Anchor-1"/>
    </contour>
    <contour>
      <point x="223" y="-22" type="move" name="Anchor-2"/>
    </contour>
  </outline>
</glyph>
<glyph name="t" format="1">
  <advance width="338"/>
  <unicode hex="0074"/>
  <outline>
    <contour>
      <point x="96" y="419" type="line"/>
      <point x="24" y="419" type="line"/>
      <point x="24" y="481" type="line"/>
      <point x="100" y="486" type="line"/>
      <point x="110" y="622" type="line"/>
      <point x="179" y="622" type="line"/>
      <point x="179" y="486" type="line"/>
      <point x="310" y="486" type="line"/>
      <point x="310" y="419" type="line"/>
      <point x="179" y="419" type="line"/>
      <point x="179" y="149" type="line" smooth="yes"/>
      <point x="179" y="119"/>
      <point x="184.5" y="95.8333"/>
      <point x="195.5" y="79.5" type="curve" smooth="yes"/>
      <point x="206.5" y="63.1667"/>
      <point x="226" y="55"/>
      <point x="254" y="55" type="curve" smooth="yes"/>
      <point x="262.667" y="55"/>
      <point x="272" y="56.3333"/>
      <point x="282" y="59" type="curve" smooth="yes"/>
      <point x="292" y="61.6667"/>
      <point x="301" y="64.6667"/>
      <point x="309" y="68" type="curve"/>
      <point x="325" y="6" type="line"/>
      <point x="311.667" y="1.33333"/>
      <point x="297.167" y="-2.83333"/>
      <point x="281.5" y="-6.5" type="curve" smooth="yes"/>
      <point x="265.833" y="-10.1667"/>
      <point x="250.333" y="-12"/>
      <point x="235" y="-12" type="curve" smooth="yes"/>
      <point x="209" y="-12"/>
      <point x="187.167" y="-8"/>
      <point x="169.5" y="0" type="curve" smooth="yes"/>
      <point x="151.833" y="8"/>
      <point x="137.5" y="19"/>
      <point x="126.5" y="33" type="curve" smooth="yes"/>
      <point x="115.5" y="47"/>
      <point x="107.667" y="64"/>
      <point x="103" y="84" type="curve" smooth="yes"/>
      <point x="98.3333" y="104"/>
      <point x="96" y="126"/>
      <point x="96" y="150" type="curve" smooth="yes"/>
    </contour>
    <contour>
      <point x="143" y="643" type="move" name="Anchor-0"/>
    </contour>
    <contour>
      <point x="217" y="0" type="move" name="Anchor-1"/>
    </contour>
    <contour>
      <point x="212" y="-22" type="move" name="Anchor-2"/>
    </contour>
  </outline>
</glyph>
<glyph name="u" format="1">
  <advance width="544"/>
  <unicode hex="0075"/>
  <outline>
    <contour>
      <point x="428" y="0" type="move" name="Anchor-4"/>
    </contour>
    <contour>
      <point x="411" y="496" type="move" name="Anchor-3"/>
    </contour>
    <contour>
      <point x="290" y="-22" type="move" name="Anchor-2"/>
    </contour>
    <contour>
      <point x="272" y="508" type="move" name="Anchor-0"/>
    </contour>
    <contour>
      <point x="75" y="486" type="line"/>
      <point x="158" y="486" type="line"/>
      <point x="158" y="189" type="line" smooth="yes"/>
      <point x="158" y="143"/>
      <point x="165.167" y="109.833"/>
      <point x="179.5" y="89.5" type="curve" smooth="yes"/>
      <point x="193.833" y="69.1667"/>
      <point x="217" y="59"/>
      <point x="249" y="59" type="curve" smooth="yes"/>
      <point x="274.333" y="59"/>
      <point x="296.667" y="65.5"/>
      <point x="316" y="78.5" type="curve" smooth="yes"/>
      <point x="335.333" y="91.5"/>
      <point x="356.667" y="112.333"/>
      <point x="380" y="141" type="curve"/>
      <point x="380" y="486" type="line"/>
      <point x="462" y="486" type="line"/>
      <point x="462" y="0" type="line"/>
      <point x="394" y="0" type="line"/>
      <point x="387" y="76" type="line"/>
      <point x="384" y="76" type="line"/>
      <point x="361.333" y="49.3333"/>
      <point x="337.5" y="28"/>
      <point x="312.5" y="12" type="curve" smooth="yes"/>
      <point x="287.5" y="-4"/>
      <point x="258" y="-12"/>
      <point x="224" y="-12" type="curve" smooth="yes"/>
      <point x="172" y="-12"/>
      <point x="134.167" y="4"/>
      <point x="110.5" y="36" type="curve" smooth="yes"/>
      <point x="86.8333" y="68"/>
      <point x="75" y="115.333"/>
      <point x="75" y="178" type="curve" smooth="yes"/>
    </contour>
  </outline>
</glyph>
<glyph name="v" format="1">
  <advance width="467"/>
  <unicode hex="0076"/>
  <outline>
    <contour>
      <point x="235" y="-22" type="move" name="Anchor-2"/>
    </contour>
    <contour>
      <point x="235" y="508" type="move" name="Anchor-0"/>
    </contour>
    <contour>
      <point x="12" y="486" type="line"/>
      <point x="97" y="486" type="line"/>
      <point x="189" y="210" type="line" smooth="yes"/>
      <point x="196.333" y="186"/>
      <point x="203.833" y="162"/>
      <point x="211.5" y="138" type="curve" smooth="yes"/>
      <point x="219.167" y="114"/>
      <point x="226.667" y="90.3333"/>
      <point x="234" y="67" type="curve"/>
      <point x="238" y="67" type="line"/>
      <point x="245.333" y="90.3333"/>
      <point x="252.667" y="114"/>
      <point x="260" y="138" type="curve" smooth="yes"/>
      <point x="271" y="174"/>
      <point x="271" y="174"/>
      <point x="282" y="210" type="curve" smooth="yes"/>
      <point x="374" y="486" type="line"/>
      <point x="455" y="486" type="line"/>
      <point x="283" y="0" type="line"/>
      <point x="187" y="0" type="line"/>
    </contour>
  </outline>
</glyph>
<glyph name="w" format="1">
  <advance width="718"/>
  <unicode hex="0077"/>
  <outline>
    <contour>
      <point x="360" y="-22" type="move" name="Anchor-2"/>
    </contour>
    <contour>
      <point x="360" y="508" type="move" name="Anchor-0"/>
    </contour>
    <contour>
      <point x="24" y="486" type="line"/>
      <point x="108" y="486" type="line"/>
      <point x="180" y="205" type="line" smooth="yes"/>
      <point x="185.333" y="181.667"/>
      <point x="190.333" y="159"/>
      <point x="195" y="137" type="curve" smooth="yes"/>
      <point x="199.667" y="115"/>
      <point x="204.333" y="92.6667"/>
      <point x="209" y="70" type="curve"/>
      <point x="213" y="70" type="line"/>
      <point x="218.333" y="92.6667"/>
      <point x="223.667" y="115.167"/>
      <point x="229" y="137.5" type="curve" smooth="yes"/>
      <point x="234.333" y="159.833"/>
      <point x="240" y="182.333"/>
      <point x="246" y="205" type="curve" smooth="yes"/>
      <point x="321" y="486" type="line"/>
      <point x="401" y="486" type="line"/>
      <point x="477" y="205" type="line" smooth="yes"/>
      <point x="483" y="181.667"/>
      <point x="488.833" y="159"/>
      <point x="494.5" y="137" type="curve" smooth="yes"/>
      <point x="500.167" y="115"/>
      <point x="505.667" y="92.6667"/>
      <point x="511" y="70" type="curve"/>
      <point x="515" y="70" type="line"/>
      <point x="520.333" y="92.6667"/>
      <point x="525.333" y="115"/>
      <point x="530" y="137" type="curve" smooth="yes"/>
      <point x="534.667" y="159"/>
      <point x="539.667" y="181.667"/>
      <point x="545" y="205" type="curve" smooth="yes"/>
      <point x="616" y="486" type="line"/>
      <point x="694" y="486" type="line"/>
      <point x="564" y="0" type="line"/>
      <point x="464" y="0" type="line"/>
      <point x="394" y="261" type="line" smooth="yes"/>
      <point x="388" y="284.333"/>
      <point x="382.5" y="307.333"/>
      <point x="377.5" y="330" type="curve" smooth="yes"/>
      <point x="372.5" y="352.667"/>
      <point x="367" y="376.333"/>
      <point x="361" y="401" type="curve"/>
      <point x="357" y="401" type="line"/>
      <point x="351.667" y="376.333"/>
      <point x="346.333" y="352.5"/>
      <point x="341" y="329.5" type="curve" smooth="yes"/>
      <point x="335.667" y="306.5"/>
      <point x="329.667" y="283.333"/>
      <point x="323" y="260" type="curve" smooth="yes"/>
      <point x="255" y="0" type="line"/>
      <point x="159" y="0" type="line"/>
    </contour>
  </outline>
</glyph>
<glyph name="x" format="1">
  <advance width="446"/>
  <unicode hex="0078"/>
  <outline>
    <contour>
      <point x="223" y="-22" type="move" name="Anchor-2"/>
    </contour>
    <contour>
      <point x="223" y="508" type="move" name="Anchor-0"/>
    </contour>
    <contour>
      <point x="173" y="254" type="line"/>
      <point x="26" y="486" type="line"/>
      <point x="115" y="486" type="line"/>
      <point x="180" y="379" type="line" smooth="yes"/>
      <point x="187.333" y="365.667"/>
      <point x="195" y="352.167"/>
      <point x="203" y="338.5" type="curve" smooth="yes"/>
      <point x="211" y="324.833"/>
      <point x="219.333" y="311.333"/>
      <point x="228" y="298" type="curve"/>
      <point x="232" y="298" type="line"/>
      <point x="239.333" y="311.333"/>
      <point x="246.667" y="324.833"/>
      <point x="254" y="338.5" type="curve" smooth="yes"/>
      <point x="261.333" y="352.167"/>
      <point x="268.667" y="365.667"/>
      <point x="276" y="379" type="curve" smooth="yes"/>
      <point x="335" y="486" type="line"/>
      <point x="421" y="486" type="line"/>
      <point x="274" y="245" type="line"/>
      <point x="432" y="0" type="line"/>
      <point x="343" y="0" type="line"/>
      <point x="272" y="113" type="line" smooth="yes"/>
      <point x="259" y="135"/>
      <point x="259" y="135"/>
      <point x="246" y="157" type="curve" smooth="yes"/>
      <point x="237.333" y="171.667"/>
      <point x="228.333" y="186"/>
      <point x="219" y="200" type="curve"/>
      <point x="215" y="200" type="line"/>
      <point x="206.333" y="186"/>
      <point x="198" y="171.833"/>
      <point x="190" y="157.5" type="curve" smooth="yes"/>
      <point x="182" y="143.167"/>
      <point x="174" y="128.333"/>
      <point x="166" y="113" type="curve"/>
      <point x="100" y="0" type="line"/>
      <point x="14" y="0" type="line"/>
    </contour>
  </outline>
</glyph>
<glyph name="y" format="1">
  <advance width="467"/>
  <unicode hex="0079"/>
  <outline>
    <contour>
      <point x="49" y="-134" type="line"/>
      <point x="57" y="-136"/>
      <point x="57" y="-136"/>
      <point x="67" y="-138.5" type="curve" smooth="yes"/>
      <point x="73.6667" y="-140.167"/>
      <point x="80" y="-141"/>
      <point x="86" y="-141" type="curve" smooth="yes"/>
      <point x="114" y="-141"/>
      <point x="136.833" y="-131.167"/>
      <point x="154.5" y="-111.5" type="curve" smooth="yes"/>
      <point x="172.167" y="-91.8333"/>
      <point x="186" y="-67"/>
      <point x="196" y="-37" type="curve"/>
      <point x="207" y="-1" type="line"/>
      <point x="12" y="486" type="line"/>
      <point x="97" y="486" type="line"/>
      <point x="196" y="217" type="line" smooth="yes"/>
      <point x="203.333" y="195.667"/>
      <point x="211.167" y="173.167"/>
      <point x="219.5" y="149.5" type="curve" smooth="yes"/>
      <point x="227.833" y="125.833"/>
      <point x="235.667" y="102.667"/>
      <point x="243" y="80" type="curve"/>
      <point x="247" y="80" type="line"/>
      <point x="254.333" y="102"/>
      <point x="261.333" y="125"/>
      <point x="268" y="149" type="curve" smooth="yes"/>
      <point x="274.667" y="173"/>
      <point x="281.333" y="195.667"/>
      <point x="288" y="217" type="curve" smooth="yes"/>
      <point x="375" y="486" type="line"/>
      <point x="455" y="486" type="line"/>
      <point x="272" y="-40" type="line" smooth="yes"/>
      <point x="263.333" y="-64"/>
      <point x="253.667" y="-86.3333"/>
      <point x="243" y="-107" type="curve" smooth="yes"/>
      <point x="232.333" y="-127.667"/>
      <point x="219.667" y="-145.5"/>
      <point x="205" y="-160.5" type="curve" smooth="yes"/>
      <point x="190.333" y="-175.5"/>
      <point x="173.667" y="-187.333"/>
      <point x="155" y="-196" type="curve" smooth="yes"/>
      <point x="136.333" y="-204.667"/>
      <point x="114.667" y="-209"/>
      <point x="90" y="-209" type="curve" smooth="yes"/>
      <point x="78.6667" y="-209"/>
      <point x="68.3333" y="-208.167"/>
      <point x="59" y="-206.5" type="curve" smooth="yes"/>
      <point x="49.6667" y="-204.833"/>
      <point x="41" y="-202.333"/>
      <point x="33" y="-199" type="curve"/>
      <point x="49" y="-134" type="line"/>
    </contour>
    <contour>
      <point x="243" y="508" type="move" name="Anchor-0"/>
    </contour>
    <contour>
      <point x="200" y="-242" type="move" name="Anchor-2"/>
    </contour>
  </outline>
</glyph>
<glyph name="braceleft" format="1">
  <advance width="303"/>
  <unicode hex="007B"/>
  <outline>
    <contour>
      <point x="273" y="-105" type="line"/>
      <point x="273" y="-152" type="line"/>
      <point x="228" y="-152" type="line" smooth="yes"/>
      <point x="188.667" y="-152"/>
      <point x="159.333" y="-142.667"/>
      <point x="140" y="-124" type="curve" smooth="yes"/>
      <point x="120.667" y="-105.333"/>
      <point x="111" y="-70.3333"/>
      <point x="111" y="-19" type="curve" smooth="yes"/>
      <point x="111" y="-1"/>
      <point x="111.5" y="16.1667"/>
      <point x="112.5" y="32.5" type="curve" smooth="yes"/>
      <point x="113.5" y="48.8333"/>
      <point x="114.5" y="64.6667"/>
      <point x="115.5" y="80" type="curve" smooth="yes"/>
      <point x="117" y="103"/>
      <point x="117" y="103"/>
      <point x="118.5" y="126" type="curve" smooth="yes"/>
      <point x="119.5" y="141.333"/>
      <point x="120" y="157.333"/>
      <point x="120" y="174" type="curve" smooth="yes"/>
      <point x="120" y="184"/>
      <point x="118.667" y="193.5"/>
      <point x="116" y="202.5" type="curve" smooth="yes"/>
      <point x="113.333" y="211.5"/>
      <point x="108.833" y="219.667"/>
      <point x="102.5" y="227" type="curve" smooth="yes"/>
      <point x="96.1667" y="234.333"/>
      <point x="87.3333" y="240.333"/>
      <point x="76" y="245" type="curve" smooth="yes"/>
      <point x="64.6667" y="249.667"/>
      <point x="50.6667" y="252"/>
      <point x="34" y="252" type="curve"/>
      <point x="34" y="304" type="line"/>
      <point x="50.6667" y="304"/>
      <point x="64.6667" y="306.333"/>
      <point x="76" y="311" type="curve" smooth="yes"/>
      <point x="87.3333" y="315.667"/>
      <point x="96.1667" y="321.5"/>
      <point x="102.5" y="328.5" type="curve" smooth="yes"/>
      <point x="108.833" y="335.5"/>
      <point x="113.333" y="343.667"/>
      <point x="116" y="353" type="curve" smooth="yes"/>
      <point x="118.667" y="362.333"/>
      <point x="120" y="371.667"/>
      <point x="120" y="381" type="curve" smooth="yes"/>
      <point x="120" y="415"/>
      <point x="118.5" y="446.667"/>
      <point x="115.5" y="476" type="curve" smooth="yes"/>
      <point x="112.5" y="505.333"/>
      <point x="111" y="538.333"/>
      <point x="111" y="575" type="curve" smooth="yes"/>
      <point x="111" y="626.333"/>
      <point x="120.667" y="661.333"/>
      <point x="140" y="680" type="curve" smooth="yes"/>
      <point x="159.333" y="698.667"/>
      <point x="188.667" y="708"/>
      <point x="228" y="708" type="curve" smooth="yes"/>
      <point x="273" y="708" type="line"/>
      <point x="273" y="661" type="line"/>
      <point x="246" y="661" type="line" smooth="yes"/>
      <point x="218.667" y="661"/>
      <point x="200.5" y="654"/>
      <point x="191.5" y="640" type="curve" smooth="yes"/>
      <point x="182.5" y="626"/>
      <point x="178" y="602.667"/>
      <point x="178" y="570" type="curve" smooth="yes"/>
      <point x="178" y="539.333"/>
      <point x="179" y="510"/>
      <point x="181" y="482" type="curve" smooth="yes"/>
      <point x="183" y="454"/>
      <point x="184" y="423"/>
      <point x="184" y="389" type="curve" smooth="yes"/>
      <point x="184" y="356.333"/>
      <point x="179.333" y="331.5"/>
      <point x="170" y="314.5" type="curve" smooth="yes"/>
      <point x="160.667" y="297.5"/>
      <point x="145.333" y="286"/>
      <point x="124" y="280" type="curve"/>
      <point x="124" y="276" type="line"/>
      <point x="145.333" y="270"/>
      <point x="160.667" y="258.333"/>
      <point x="170" y="241" type="curve" smooth="yes"/>
      <point x="179.333" y="223.667"/>
      <point x="184" y="199"/>
      <point x="184" y="167" type="curve" smooth="yes"/>
      <point x="184" y="133"/>
      <point x="183" y="102"/>
      <point x="181" y="74" type="curve" smooth="yes"/>
      <point x="179" y="46"/>
      <point x="178" y="16.6667"/>
      <point x="178" y="-14" type="curve" smooth="yes"/>
      <point x="178" y="-46.6667"/>
      <point x="182.5" y="-70"/>
      <point x="191.5" y="-84" type="curve" smooth="yes"/>
      <point x="200.5" y="-98"/>
      <point x="218.667" y="-105"/>
      <point x="246" y="-105" type="curve" smooth="yes"/>
    </contour>
  </outline>
</glyph>
<glyph name="braceright" format="1">
  <advance width="303"/>
  <unicode hex="007D"/>
  <outline>
    <contour>
      <point x="57" y="-105" type="line" smooth="yes"/>
      <point x="84.3333" y="-105"/>
      <point x="102.5" y="-98"/>
      <point x="111.5" y="-84" type="curve" smooth="yes"/>
      <point x="120.5" y="-70"/>
      <point x="125" y="-46.6667"/>
      <point x="125" y="-14" type="curve" smooth="yes"/>
      <point x="125" y="16.6667"/>
      <point x="124.167" y="46"/>
      <point x="122.5" y="74" type="curve" smooth="yes"/>
      <point x="120.833" y="102"/>
      <point x="120" y="133"/>
      <point x="120" y="167" type="curve" smooth="yes"/>
      <point x="120" y="199"/>
      <point x="124.5" y="223.667"/>
      <point x="133.5" y="241" type="curve" smooth="yes"/>
      <point x="142.5" y="258.333"/>
      <point x="157.667" y="270"/>
      <point x="179" y="276" type="curve"/>
      <point x="179" y="280" type="line"/>
      <point x="157.667" y="286"/>
      <point x="142.5" y="297.5"/>
      <point x="133.5" y="314.5" type="curve" smooth="yes"/>
      <point x="124.5" y="331.5"/>
      <point x="120" y="356.333"/>
      <point x="120" y="389" type="curve" smooth="yes"/>
      <point x="120" y="423"/>
      <point x="120.833" y="454"/>
      <point x="122.5" y="482" type="curve" smooth="yes"/>
      <point x="124.167" y="510"/>
      <point x="125" y="539.333"/>
      <point x="125" y="570" type="curve" smooth="yes"/>
      <point x="125" y="602.667"/>
      <point x="120.5" y="626"/>
      <point x="111.5" y="640" type="curve" smooth="yes"/>
      <point x="102.5" y="654"/>
      <point x="84.3333" y="661"/>
      <point x="57" y="661" type="curve" smooth="yes"/>
      <point x="31" y="661" type="line"/>
      <point x="31" y="708" type="line"/>
      <point x="75" y="708" type="line" smooth="yes"/>
      <point x="95" y="708"/>
      <point x="112.333" y="705.833"/>
      <point x="127" y="701.5" type="curve" smooth="yes"/>
      <point x="141.667" y="697.167"/>
      <point x="153.833" y="690"/>
      <point x="163.5" y="680" type="curve" smooth="yes"/>
      <point x="173.167" y="670"/>
      <point x="180.333" y="656.5"/>
      <point x="185" y="639.5" type="curve" smooth="yes"/>
      <point x="189.667" y="622.5"/>
      <point x="192" y="601"/>
      <point x="192" y="575" type="curve" smooth="yes"/>
      <point x="192" y="538.333"/>
      <point x="190.5" y="505.333"/>
      <point x="187.5" y="476" type="curve" smooth="yes"/>
      <point x="184.5" y="446.667"/>
      <point x="183" y="415"/>
      <point x="183" y="381" type="curve" smooth="yes"/>
      <point x="183" y="361.667"/>
      <point x="189" y="344.167"/>
      <point x="201" y="328.5" type="curve" smooth="yes"/>
      <point x="213" y="312.833"/>
      <point x="235.667" y="304.667"/>
      <point x="269" y="304" type="curve"/>
      <point x="269" y="252" type="line"/>
      <point x="252.333" y="252"/>
      <point x="238.5" y="249.667"/>
      <point x="227.5" y="245" type="curve" smooth="yes"/>
      <point x="216.5" y="240.333"/>
      <point x="207.667" y="234.333"/>
      <point x="201" y="227" type="curve" smooth="yes"/>
      <point x="194.333" y="219.667"/>
      <point x="189.667" y="211.5"/>
      <point x="187" y="202.5" type="curve" smooth="yes"/>
      <point x="184.333" y="193.5"/>
      <point x="183" y="184"/>
      <point x="183" y="174" type="curve" smooth="yes"/>
      <point x="183" y="157.333"/>
      <point x="183.5" y="141.333"/>
      <point x="184.5" y="126" type="curve" smooth="yes"/>
      <point x="186" y="103"/>
      <point x="186" y="103"/>
      <point x="187.5" y="80" type="curve" smooth="yes"/>
      <point x="188.5" y="64.6667"/>
      <point x="189.5" y="48.8333"/>
      <point x="190.5" y="32.5" type="curve" smooth="yes"/>
      <point x="191.5" y="16.1667"/>
      <point x="192" y="-1"/>
      <point x="192" y="-19" type="curve" smooth="yes"/>
      <point x="192" y="-45"/>
      <point x="189.667" y="-66.5"/>
      <point x="185" y="-83.5" type="curve" smooth="yes"/>
      <point x="180.333" y="-100.5"/>
      <point x="173.167" y="-114"/>
      <point x="163.5" y="-124" type="curve" smooth="yes"/>
      <point x="153.833" y="-134"/>
      <point x="141.667" y="-141.167"/>
      <point x="127" y="-145.5" type="curve" smooth="yes"/>
      <point x="112.333" y="-149.833"/>
      <point x="95" y="-152"/>
      <point x="75" y="-152" type="curve" smooth="yes"/>
      <point x="31" y="-152" type="line"/>
      <point x="31" y="-105" type="line"/>
    </contour>
  </outline>
</glyph>
<glyph name="asciitilde" format="1">
  <advance width="497"/>
  <unicode hex="007E"/>
  <outline>
    <contour>
      <point x="36" y="313" type="line"/>
      <point x="54" y="345"/>
      <point x="74" y="368"/>
      <point x="96" y="382" type="curve" smooth="yes"/>
      <point x="118" y="396"/>
      <point x="139.667" y="403"/>
      <point x="161" y="403" type="curve" smooth="yes"/>
      <point x="181" y="403"/>
      <point x="198.833" y="398.667"/>
      <point x="214.5" y="390" type="curve" smooth="yes"/>
      <point x="230.167" y="381.333"/>
      <point x="244.833" y="371.667"/>
      <point x="258.5" y="361" type="curve" smooth="yes"/>
      <point x="272.167" y="350.333"/>
      <point x="285.333" y="340.667"/>
      <point x="298" y="332" type="curve" smooth="yes"/>
      <point x="310.667" y="323.333"/>
      <point x="324" y="319"/>
      <point x="338" y="319" type="curve" smooth="yes"/>
      <point x="352.667" y="319"/>
      <point x="366.333" y="323.833"/>
      <point x="379" y="333.5" type="curve" smooth="yes"/>
      <point x="391.667" y="343.167"/>
      <point x="403.667" y="358.667"/>
      <point x="415" y="380" type="curve"/>
      <point x="461" y="346" type="line"/>
      <point x="443" y="314"/>
      <point x="423" y="291.167"/>
      <point x="401" y="277.5" type="curve" smooth="yes"/>
      <point x="379" y="263.833"/>
      <point x="357.333" y="257"/>
      <point x="336" y="257" type="curve" smooth="yes"/>
      <point x="316" y="257"/>
      <point x="298.167" y="261.333"/>
      <point x="282.5" y="270" type="curve" smooth="yes"/>
      <point x="266.833" y="278.667"/>
      <point x="252.167" y="288.333"/>
      <point x="238.5" y="299" type="curve" smooth="yes"/>
      <point x="224.833" y="309.667"/>
      <point x="211.667" y="319.333"/>
      <point x="199" y="328" type="curve" smooth="yes"/>
      <point x="186.333" y="336.667"/>
      <point x="173" y="341"/>
      <point x="159" y="341" type="curve" smooth="yes"/>
      <point x="144.333" y="341"/>
      <point x="130.667" y="336.167"/>
      <point x="118" y="326.5" type="curve" smooth="yes"/>
      <point x="105.333" y="316.833"/>
      <point x="93.3333" y="301.333"/>
      <point x="82" y="280" type="curve"/>
    </contour>
  </outline>
</glyph>
<glyph name="exclamdown" format="1">
  <advance width="289"/>
  <unicode hex="00A1"/>
  <outline>
    <contour>
      <point x="184" y="-90" type="line"/>
      <point x="186" y="-184" type="line"/>
      <point x="103" y="-184" type="line"/>
      <point x="105" y="-90" type="line"/>
      <point x="116" y="288" type="line"/>
      <point x="173" y="288" type="line"/>
    </contour>
    <contour>
      <point x="204" y="436" type="curve" smooth="yes"/>
      <point x="204" y="416.667"/>
      <point x="198.167" y="401.167"/>
      <point x="186.5" y="389.5" type="curve" smooth="yes"/>
      <point x="174.833" y="377.833"/>
      <point x="161" y="372"/>
      <point x="145" y="372" type="curve" smooth="yes"/>
      <point x="128.333" y="372"/>
      <point x="114.167" y="377.833"/>
      <point x="102.5" y="389.5" type="curve" smooth="yes"/>
      <point x="90.8333" y="401.167"/>
      <point x="85" y="416.667"/>
      <point x="85" y="436" type="curve" smooth="yes"/>
      <point x="85" y="454"/>
      <point x="90.8333" y="468.833"/>
      <point x="102.5" y="480.5" type="curve" smooth="yes"/>
      <point x="114.167" y="492.167"/>
      <point x="128.333" y="498"/>
      <point x="145" y="498" type="curve" smooth="yes"/>
      <point x="161" y="498"/>
      <point x="174.833" y="492.167"/>
      <point x="186.5" y="480.5" type="curve" smooth="yes"/>
      <point x="198.167" y="468.833"/>
      <point x="204" y="454"/>
    </contour>
  </outline>
</glyph>
<glyph name="cent" format="1">
  <advance width="497"/>
  <unicode hex="00A2"/>
  <outline>
    <contour>
      <point x="262" y="477" type="line"/>
      <point x="225.333" y="468.333"/>
      <point x="196.333" y="449.333"/>
      <point x="175" y="420" type="curve" smooth="yes"/>
      <point x="153.667" y="390.667"/>
      <point x="143" y="354"/>
      <point x="143" y="310" type="curve" smooth="yes"/>
      <point x="143" y="265.333"/>
      <point x="153.333" y="228.333"/>
      <point x="174" y="199" type="curve" smooth="yes"/>
      <point x="194.667" y="169.667"/>
      <point x="224" y="150.667"/>
      <point x="262" y="142" type="curve"/>
    </contour>
    <contour>
      <point x="454" y="133" type="line"/>
      <point x="434.667" y="115.667"/>
      <point x="413" y="101.333"/>
      <point x="389" y="90" type="curve" smooth="yes"/>
      <point x="365" y="78.6667"/>
      <point x="340" y="72"/>
      <point x="314" y="70" type="curve"/>
      <point x="314" y="-33" type="line"/>
      <point x="262" y="-33" type="line"/>
      <point x="262" y="71" type="line"/>
      <point x="232" y="74.3333"/>
      <point x="204.667" y="82.1667"/>
      <point x="180" y="94.5" type="curve" smooth="yes"/>
      <point x="155.333" y="106.833"/>
      <point x="134.167" y="123"/>
      <point x="116.5" y="143" type="curve" smooth="yes"/>
      <point x="98.8333" y="163"/>
      <point x="85.1667" y="187"/>
      <point x="75.5" y="215" type="curve" smooth="yes"/>
      <point x="65.8333" y="243"/>
      <point x="61" y="274.667"/>
      <point x="61" y="310" type="curve" smooth="yes"/>
      <point x="61" y="344.667"/>
      <point x="66.1667" y="375.667"/>
      <point x="76.5" y="403" type="curve" smooth="yes"/>
      <point x="86.8333" y="430.333"/>
      <point x="101" y="454"/>
      <point x="119" y="474" type="curve" smooth="yes"/>
      <point x="137" y="494"/>
      <point x="158.333" y="510.167"/>
      <point x="183" y="522.5" type="curve" smooth="yes"/>
      <point x="207.667" y="534.833"/>
      <point x="234" y="543"/>
      <point x="262" y="547" type="curve"/>
      <point x="262" y="653" type="line"/>
      <point x="314" y="653" type="line"/>
      <point x="314" y="550" type="line"/>
      <point x="343.333" y="548.667"/>
      <point x="368.667" y="542.333"/>
      <point x="390" y="531" type="curve" smooth="yes"/>
      <point x="411.333" y="519.667"/>
      <point x="429.667" y="506.667"/>
      <point x="445" y="492" type="curve"/>
      <point x="405" y="440" type="line"/>
      <point x="391.667" y="452"/>
      <point x="377.5" y="461.667"/>
      <point x="362.5" y="469" type="curve" smooth="yes"/>
      <point x="347.5" y="476.333"/>
      <point x="331.333" y="480.667"/>
      <point x="314" y="482" type="curve"/>
      <point x="314" y="138" type="line"/>
      <point x="335.333" y="139.333"/>
      <point x="354.667" y="144.5"/>
      <point x="372" y="153.5" type="curve" smooth="yes"/>
      <point x="389.333" y="162.5"/>
      <point x="404.667" y="173"/>
      <point x="418" y="185" type="curve"/>
    </contour>
  </outline>
</glyph>
